mtllib material_0.mtl
usemtl material_0
v -0.015255 0.026438 -0.068463
v -0.015255 0.026438 -0.068463
v -0.015255 0.026438 -0.068463
v -0.015255 0.026136 -0.069627
v -0.015256 0.026441 0.068456
v -0.015256 0.026441 0.068456
v -0.015256 0.026441 0.068456
v -0.015256 0.026441 0.068456
v -0.015254 0.01339 0.069385
v -0.015254 0.01339 0.069385
v -0.015254 0.01339 0.069385
v -0.015254 0.018208 0.070934
v -0.015254 0.018208 0.070934
v -0.015255 0.022136 0.071962
v -0.015255 0.022136 0.071962
v -0.015255 0.022136 0.071962
v -0.015255 0.023234 0.071892
v -0.015255 0.023234 0.071892
v -0.015255 0.023234 0.071892
v -0.015255 0.024291 0.071552
v -0.015255 0.025224 0.070877
v -0.015255 0.025224 0.070877
v -0.015255 0.025827 0.07016
v -0.015255 0.025323 -0.070789
v -0.015255 0.025323 -0.070789
v -0.015255 0.025323 -0.070789
v -0.015255 0.025323 -0.070789
v -0.015255 0.024234 -0.07159
v -0.015255 0.026235 0.069319
v -0.015255 0.026235 0.069319
v -0.015255 0.026235 0.069319
v -0.015255 0.01107 -0.066386
v -0.015255 0.01107 -0.066386
v -0.015255 0.01107 -0.066386
v -0.015255 0.01107 -0.066386
v -0.015255 0.011061 0.066307
v -0.015255 0.011061 0.066307
v -0.015255 0.011061 0.066307
v -0.015255 0.022689 -0.071973
v -0.015255 0.022689 -0.071973
v -0.015255 0.021586 -0.071856
v -0.015255 0.021586 -0.071856
v -0.015255 0.021586 -0.071856
v -0.015254 0.011463 0.067548
v -0.015254 0.011463 0.067548
v -0.015255 0.012245 0.068623
v -0.015255 0.013206 -0.069307
v -0.015255 0.013206 -0.069307
v -0.015255 0.013206 -0.069307
v -0.015255 0.012109 -0.068472
v -0.015255 0.011488 -0.067587
v -0.015255 0.011488 -0.067587
v -0.015255 0.017618 -0.070753
v -0.015255 0.017618 -0.070753
v -0.015255 0.017618 -0.070753
v 0.015255 0.026438 -0.068463
v 0.015255 0.026438 -0.068463
v 0.015255 0.026438 -0.068463
v 0.015255 0.026136 -0.069627
v 0.015256 0.026441 0.068456
v 0.015256 0.026441 0.068456
v 0.015256 0.026441 0.068456
v 0.015256 0.026441 0.068456
v 0.015256 0.026441 0.068456
v 0.015254 0.01339 0.069385
v 0.015254 0.01339 0.069385
v 0.015254 0.01339 0.069385
v 0.015254 0.018208 0.070934
v 0.015254 0.018208 0.070934
v 0.015255 0.022136 0.071962
v 0.015255 0.022136 0.071962
v 0.015255 0.023234 0.071892
v 0.015255 0.023234 0.071892
v 0.015255 0.023234 0.071892
v 0.015255 0.023234 0.071892
v 0.015255 0.024291 0.071552
v 0.015255 0.025224 0.070877
v 0.015255 0.025224 0.070877
v 0.015255 0.025827 0.07016
v 0.015255 0.025323 -0.070789
v 0.015255 0.025323 -0.070789
v 0.015255 0.025323 -0.070789
v 0.015255 0.025323 -0.070789
v 0.015255 0.024234 -0.07159
v 0.015255 0.026235 0.069319
v 0.015255 0.026235 0.069319
v 0.015255 0.01107 -0.066386
v 0.015255 0.01107 -0.066386
v 0.015255 0.01107 -0.066386
v 0.015255 0.01107 -0.066386
v 0.015255 0.011061 0.066307
v 0.015255 0.011061 0.066307
v 0.015255 0.011061 0.066307
v 0.015255 0.022689 -0.071973
v 0.015255 0.022689 -0.071973
v 0.015255 0.021586 -0.071856
v 0.015255 0.021586 -0.071856
v 0.015255 0.021586 -0.071856
v 0.015254 0.011463 0.067548
v 0.015254 0.011463 0.067548
v 0.015255 0.012245 0.068623
v 0.015255 0.013206 -0.069307
v 0.015255 0.013206 -0.069307
v 0.015255 0.013206 -0.069307
v 0.015255 0.012109 -0.068472
v 0.015255 0.011488 -0.067587
v 0.015255 0.011488 -0.067587
v 0.015255 0.017618 -0.070753
v 0.015255 0.017618 -0.070753
v 0.015255 0.017618 -0.070753
vn -1 0 0
vn -1 0 0.0001
vn -1 0.0001 -0.0001
vn -1 0 0
vn -1 0.0001 0.0002
vn -1 -0.0002 -0.0002
vn -1 -0.0001 0.0003
vn -1 0 0
vn -1 -0.0006 0.0007
vn -1 0.0019 -0.002
vn -1 -0.0001 0.0003
vn -1 -0.0002 -0.0002
vn -1 -0.0001 0.0003
vn -1 0.0001 0.0002
vn -1 -0.0001 0
vn -1 -0.0002 -0.0002
vn -1 0 0
vn -1 0.0001 0.0002
vn -1 -0.0001 0
vn -1 0.0001 0.0002
vn -1 0 0
vn -1 0.0001 0.0002
vn -1 0 0
vn -1 0.0001 -0.0001
vn -1 0 0.0001
vn -1 0.0003 -0.0004
vn -1 0 0
vn -1 0.0003 -0.0004
vn -1 0.0001 0.0002
vn -1 -0.0001 0
vn -1 0 0
vn -1 0.0006 0.0007
vn -1 0 0
vn -1 0 0.0001
vn -1 0.0002 0.0004
vn -1 -0.0006 0.0007
vn -1 0 0
vn -1 -0.0001 0.0003
vn -1 0.0003 -0.0004
vn -1 0 0.0001
vn -1 0.0001 -0.0001
vn -1 0 0
vn -1 0 0.0001
vn -1 -0.0006 0.0007
vn -1 0.0019 -0.002
vn -1 0.0019 -0.002
vn -1 0.0002 0.0004
vn -1 0.0006 0.0007
vn -1 -0.0007 -0.0006
vn -1 -0.0007 -0.0006
vn -1 -0.0007 -0.0006
vn -1 0.0006 0.0007
vn -1 0 0
vn -1 0 0.0001
vn -1 0.0002 0.0004
vn 1 0 0.0001
vn 1 0.0001 -0.0001
vn 1 0 0
vn 1 0 0
vn 1 0 0
vn 1 0.0002 0.0003
vn 1 -0.0002 -0.0002
vn 1 -0.0001 0
vn 1 -0.0001 0.0003
vn 1 0.0019 -0.002
vn 1 -0.0006 0.0007
vn 1 -0.0001 0.0003
vn 1 -0.0001 0.0003
vn 1 -0.0002 -0.0002
vn 1 -0.0002 -0.0002
vn 1 -0.0001 0
vn 1 0.0002 0.0003
vn 1 0 0
vn 1 0.0001 0.0002
vn 1 -0.0001 0
vn 1 0.0001 0.0002
vn 1 0.0001 0.0002
vn 1 0 0
vn 1 0 0
vn 1 0.0001 -0.0001
vn 1 0.0003 -0.0004
vn 1 0 0.0001
vn 1 0 0
vn 1 0.0003 -0.0004
vn 1 0 0
vn 1 0.0002 0.0003
vn 1 0.0006 0.0007
vn 1 0 0.0001
vn 1 0.0002 0.0004
vn 1 0 0
vn 1 -0.0001 0.0003
vn 1 0 0
vn 1 -0.0006 0.0007
vn 1 0 0.0001
vn 1 0.0003 -0.0004
vn 1 0 0.0001
vn 1 0 0
vn 1 0.0001 -0.0001
vn 1 0.0019 -0.002
vn 1 -0.0006 0.0007
vn 1 0.0019 -0.002
vn 1 -0.0007 -0.0006
vn 1 0.0006 0.0007
vn 1 0.0002 0.0004
vn 1 -0.0007 -0.0006
vn 1 -0.0007 -0.0006
vn 1 0.0006 0.0007
vn 1 0.0002 0.0004
vn 1 0 0
vn 1 0 0.0001
f 37//37 8//8 1//1
f 60//60 92//92 58//58
f 29//29 5//5 14//14
f 1//1 4//4 27//27
f 26//26 28//28 39//39
f 40//40 43//43 25//25
f 55//55 47//47 35//35
f 50//50 51//51 49//49
f 33//33 37//37 1//1
f 45//45 46//46 10//10
f 9//9 36//36 44//44
f 15//15 19//19 30//30
f 20//20 22//22 18//18
f 23//23 31//31 21//21
f 3//3 24//24 41//41
f 42//42 53//53 1//1
f 52//52 32//32 48//48
f 11//11 13//13 38//38
f 17//17 21//21 31//31
f 7//7 38//38 13//13
f 54//54 34//34 2//2
f 12//12 16//16 6//6
f 106//106 105//105 102//102
f 104//104 108//108 89//89
f 96//96 94//94 82//82
f 84//84 81//81 95//95
f 59//59 58//58 83//83
f 61//61 86//86 72//72
f 79//79 78//78 85//85
f 76//76 74//74 77//77
f 71//71 63//63 75//75
f 65//65 101//101 99//99
f 100//100 93//93 66//66
f 87//87 107//107 103//103
f 109//109 97//97 58//58
f 80//80 57//57 98//98
f 85//85 78//78 73//73
f 70//70 69//69 62//62
f 67//67 91//91 68//68
f 88//88 110//110 56//56
f 58//58 92//92 90//90
f 68//68 91//91 64//64
