mtllib material_0.mtl
usemtl material_0
v -0.003902 0.053192 0.011686
v -0.003902 0.053192 0.011686
v -0.003902 0.053192 0.011686
v -0.003902 0.053192 0.011686
v 0.014935 0.050815 0.006522
v 0.014935 0.050815 0.006522
v 0.014935 0.050815 0.006522
v -0.004357 0.053227 0.015766
v -0.004357 0.053227 0.015766
v -0.004357 0.053227 0.015766
v -0.001394 0.052959 -0.007988
v -0.001394 0.052959 -0.007988
v -0.001394 0.052959 -0.007988
v -0.002738 0.053086 -0.008036
v -0.002738 0.053086 -0.008036
v -0.002738 0.053086 -0.008036
v -0.002738 0.053086 -0.008036
v 0.007368 0.052015 -0.004632
v 0.007368 0.052015 -0.004632
v 0.007368 0.052015 -0.004632
v 0.007368 0.052015 -0.004632
v 0.007368 0.052015 -0.004632
v 0.007368 0.052015 -0.004632
v 0.007368 0.052015 -0.004632
v 0.007368 0.052015 -0.004632
v -0.001264 0.052947 0.010984
v -0.001264 0.052947 0.010984
v -0.001264 0.052947 0.010984
v -0.001264 0.052947 0.010984
v 0.002741 0.052533 0.008988
v 0.002741 0.052533 0.008988
v 0.002741 0.052533 0.008988
v 0.002741 0.052533 0.008988
v 0.002741 0.052533 0.008988
v 0.013924 0.051 0.008499
v 0.013924 0.051 0.008499
v 0.013924 0.051 0.008499
v 0.006831 0.052049 -0.014856
v 0.006831 0.052049 -0.014856
v 0.006831 0.052049 -0.014856
v 0.011824 0.051351 0.011272
v 0.011824 0.051351 0.011272
v 0.011824 0.051351 0.011272
v 0.015043 0.050794 -0.006268
v 0.015043 0.050794 -0.006268
v 0.015043 0.050794 -0.006268
v 1E-06 0.052821 0.009705
v 1E-06 0.052821 0.009705
v 1E-06 0.052821 0.009705
v 1E-06 0.052821 0.009705
v 0.015782 0.050644 -0.004117
v 0.015782 0.050644 -0.004117
v -0.007361 0.05346 0.005021
v -0.007361 0.05346 0.005021
v -0.007361 0.05346 0.005021
v -0.007361 0.05346 0.005021
v -0.007361 0.05346 0.005021
v -0.007361 0.05346 0.005021
v 0.00705 0.052022 0.014739
v 0.00705 0.052022 0.014739
v 0.00705 0.052022 0.014739
v 0.00705 0.052022 0.014739
v 0.009865 0.051644 -0.013009
v 0.009865 0.051644 -0.013009
v 0.001333 0.052687 0.011927
v 0.001333 0.052687 0.011927
v 0.001333 0.052687 0.011927
v 0.001333 0.052687 0.011927
v -0.010868 0.053655 -0.01223
v -0.010868 0.053655 -0.01223
v -0.010868 0.053655 -0.01223
v -0.009023 0.053562 -0.013626
v -0.009023 0.053562 -0.013626
v -0.009023 0.053562 -0.013626
v -0.012996 0.053773 -0.009946
v -0.012996 0.053773 -0.009946
v -0.012996 0.053773 -0.009946
v -0.012996 0.053773 -0.009946
v -0.012996 0.053773 -0.009946
v -0.007321 0.053452 -0.014621
v -0.007321 0.053452 -0.014621
v -0.007321 0.053452 -0.014621
v -0.014818 0.053856 -0.006981
v -0.014818 0.053856 -0.006981
v -0.014818 0.053856 -0.006981
v -0.012168 0.053723 0.010939
v -0.012168 0.053723 0.010939
v -0.012168 0.053723 0.010939
v -0.013806 0.053811 0.00877
v -0.013806 0.053811 0.00877
v -0.008741 0.053545 0.002232
v -0.008741 0.053545 0.002232
v -0.008741 0.053545 0.002232
v -0.00517 0.053292 -0.015509
v -0.00517 0.053292 -0.015509
v -0.00517 0.053292 -0.015509
v -0.001218 0.052936 0.016305
v -0.001218 0.052936 0.016305
v -0.001218 0.052936 0.016305
v -0.001218 0.052936 0.016305
v -0.015819 0.053897 -0.004161
v -0.015819 0.053897 -0.004161
v -0.015819 0.053897 -0.004161
v -0.002247 0.053041 -0.016209
v -0.002247 0.053041 -0.016209
v -0.002247 0.053041 -0.016209
v -0.003846 0.053184 -0.012869
v -0.003846 0.053184 -0.012869
v -0.003846 0.053184 -0.012869
v -0.003846 0.053184 -0.012869
v -0.003846 0.053184 -0.012869
v -0.011458 0.053702 0.00364
v -0.011458 0.053702 0.00364
v -0.011458 0.053702 0.00364
v -0.011458 0.053702 0.00364
v -0.011458 0.053702 0.00364
v -0.014758 0.053856 0.007039
v -0.014758 0.053856 0.007039
v -0.014758 0.053856 0.007039
v -0.016317 0.053915 -0.00134
v 0.000584 0.052762 -0.001339
v 0.000584 0.052762 -0.001339
v 0.000584 0.052762 -0.001339
v 0.011037 0.051478 -0.005773
v 0.011037 0.051478 -0.005773
v 0.011037 0.051478 -0.005773
v 0.011037 0.051478 -0.005773
v 0.011037 0.051478 -0.005773
v 0.011037 0.051478 -0.005773
v 0.011037 0.051478 -0.005773
v -0.00987 0.053614 0.01305
v -0.00987 0.053614 0.01305
v -0.00987 0.053614 0.01305
v 0.015815 0.050643 0.004043
v 0.015815 0.050643 0.004043
v 0.015815 0.050643 0.004043
v 0.015815 0.050643 0.004043
v 0.016227 0.050561 -0.001504
v 0.016227 0.050561 -0.001504
v -0.005883 0.053348 0.007793
v -0.005883 0.053348 0.007793
v -0.005883 0.053348 0.007793
v -0.005883 0.053348 0.007793
v 0.009422 0.051706 0.013322
v 0.009422 0.051706 0.013322
v 0.009422 0.051706 0.013322
v 0.000795 0.05274 -0.016315
v 0.000795 0.05274 -0.016315
v 0.000795 0.05274 -0.016315
v 0.012156 0.051298 -0.010886
v 0.012156 0.051298 -0.010886
v 0.012156 0.051298 -0.010886
v 0.012156 0.051298 -0.010886
v 0.002345 0.052575 -0.001297
v 0.002345 0.052575 -0.001297
v 0.002345 0.052575 -0.001297
v 0.002345 0.052575 -0.001297
v 0.004266 0.05236 -0.003128
v 0.004266 0.05236 -0.003128
v 0.004266 0.05236 -0.003128
v 0.004266 0.05236 -0.003128
v 0.004266 0.05236 -0.003128
v 0.004266 0.05236 -0.003128
v 0.016275 0.050559 0.000904
v -0.007172 0.053469 0.003419
v -0.007172 0.053469 0.003419
v -0.007172 0.053469 0.003419
v -0.007172 0.053469 0.003419
v -0.007172 0.053469 0.003419
v -0.007172 0.053469 0.003419
v -0.007172 0.053469 0.003419
v -0.007172 0.053469 0.003419
v -0.007172 0.053469 0.003419
v -0.007172 0.053469 0.003419
v 0.001516 0.052664 0.016264
v 0.001516 0.052664 0.016264
v 0.004149 0.052372 0.015806
v 0.004149 0.052372 0.015806
v 0.004149 0.052372 0.015806
v -0.016285 0.053914 0.00152
v -0.016285 0.053914 0.00152
v -0.000162 0.052838 -0.011648
v -0.000162 0.052838 -0.011648
v -0.000162 0.052838 -0.011648
v -0.000162 0.052838 -0.011648
v 0.005922 0.052168 -0.003264
v 0.005922 0.052168 -0.003264
v 0.005922 0.052168 -0.003264
v 0.005922 0.052168 -0.003264
v -0.001991 0.05302 0.005803
v -0.001991 0.05302 0.005803
v -0.001991 0.05302 0.005803
v 0.003496 0.052447 -0.015964
v 0.003496 0.052447 -0.015964
v -0.000105 0.052834 0.005806
v -0.000105 0.052834 0.005806
v -0.000105 0.052834 0.005806
v -0.000105 0.052834 0.005806
v 0.014002 0.050986 -0.008378
v 0.014002 0.050986 -0.008378
v 0.014002 0.050986 -0.008378
v -0.015745 0.053896 0.004523
v -0.015745 0.053896 0.004523
v -0.015745 0.053896 0.004523
v -0.007221 0.053446 0.01468
v -0.007221 0.053446 0.01468
v -0.007221 0.053446 0.01468
v -0.007221 0.053446 0.01468
v 0.009779 0.051655 -0.00201
v 0.009779 0.051655 -0.00201
v 0.005403 0.052224 0.009902
v 0.005403 0.052224 0.009902
v 0.005403 0.052224 0.009902
v 0.005403 0.052224 0.009902
vn 0.0904 0.9959 -0.0081
vn 0.0782 0.9969 0.0002
vn 0.0919 0.9958 0.0018
vn 0.0929 0.9957 0.0012
vn 0.1794 0.9838 0
vn 0.1814 0.9834 -0.0001
vn 0.192 0.9814 0
vn 0.0782 0.9969 0.0002
vn 0.0762 0.9971 0.0006
vn 0.0919 0.9958 0.0018
vn 0.094 0.9956 -0.0013
vn 0.0926 0.995 0.038
vn 0.106 0.9944 0.0029
vn 0.0869 0.9962 0.0003
vn 0.094 0.9956 -0.0013
vn 0.0926 0.995 0.038
vn 0.0923 0.9957 0.0024
vn 0.1075 0.9942 0.0012
vn 0.1193 0.9929 -0.003
vn 0.106 0.9944 0.0029
vn 0.1436 0.9896 -0.0042
vn 0.1079 0.9942 0.001
vn 0.1638 0.9845 0.063
vn 0.116 0.9932 0.0116
vn 0.0926 0.995 0.038
vn 0.0904 0.9959 -0.0081
vn 0.0992 0.9951 0.0011
vn 0.1069 0.9942 0.0084
vn 0.0929 0.9957 0.0012
vn 0.1052 0.9945 0.0001
vn 0.1111 0.9938 -0.0002
vn 0.1048 0.9945 0.0004
vn 0.1069 0.9942 0.0084
vn 0.115 0.9934 0.0003
vn 0.1794 0.9838 0
vn 0.1651 0.9863 0.0001
vn 0.167 0.986 0
vn 0.1193 0.9929 -0.003
vn 0.1436 0.9896 -0.0042
vn 0.1316 0.9913 0.0014
vn 0.1468 0.9892 0.0006
vn 0.1651 0.9863 0.0001
vn 0.1589 0.9873 0
vn 0.1814 0.9834 -0.0001
vn 0.192 0.9814 0
vn 0.2005 0.9797 -0.0007
vn 0.0904 0.9959 -0.0081
vn 0.098 0.9952 0.0006
vn 0.1048 0.9945 0.0004
vn 0.1069 0.9942 0.0084
vn 0.1884 0.9821 -0.0006
vn 0.2005 0.9797 -0.0007
vn 0.0645 0.9979 -0.0003
vn 0.0615 0.9981 0
vn -0.0538 0.9986 -0.0005
vn -0.033 0.9995 0.0019
vn 0.063 0.998 0.0006
vn 0.0591 0.9983 -0.0007
vn 0.1319 0.9913 -0.0002
vn 0.123 0.9924 -0.0004
vn 0.1201 0.9928 0.0006
vn 0.1152 0.9933 0.0009
vn 0.1316 0.9913 0.0014
vn 0.1509 0.9886 -0.0018
vn 0.1123 0.9937 -0.001
vn 0.1103 0.9939 0.0005
vn 0.0992 0.9951 0.0011
vn 0.0989 0.9951 0.0009
vn 0.0545 0.9985 -0.0009
vn 0.0571 0.9984 -0.0008
vn 0.0504 0.9987 0.0002
vn 0.0615 0.9981 0
vn 0.0645 0.9979 -0.0003
vn 0.0504 0.9987 0.0002
vn 0.0452 0.999 -0.0002
vn 0.0545 0.9985 -0.0009
vn 0.0473 0.9989 0.0001
vn 0.0532 0.9986 0.0003
vn 0.0387 0.9992 0.0009
vn 0.0735 0.9973 -0.0016
vn 0.0645 0.9979 -0.0003
vn -0.0538 0.9986 -0.0005
vn 0.0452 0.999 -0.0002
vn 0.0394 0.9992 -0.0003
vn 0.041 0.9992 -0.0001
vn 0.0532 0.9986 0.0003
vn 0.0387 0.9992 0.0009
vn 0.0457 0.999 0.0016
vn 0.0532 0.9986 0.0003
vn 0.0473 0.9989 0.0001
vn 0.0615 0.9981 0
vn 0.0571 0.9984 -0.0008
vn 0.0504 0.9987 0.0002
vn 0.0735 0.9973 -0.0016
vn 0.0853 0.9964 -0.002
vn 0.0825 0.9966 -0.0006
vn 0.0992 0.9951 0.0011
vn 0.0989 0.9951 0.0009
vn 0.0919 0.9958 0.0018
vn 0.0929 0.9957 0.0012
vn 0.0362 0.9993 0
vn 0.0336 0.9994 -0.0002
vn 0.0394 0.9992 -0.0003
vn 0.0929 0.9957 0.0017
vn 0.0853 0.9964 -0.002
vn 0.0981 0.9952 -0.0007
vn 0.094 0.9956 -0.0013
vn 0.0869 0.9962 0.0003
vn 0.0825 0.9966 -0.0006
vn 0.0853 0.9964 -0.002
vn 0.0929 0.9957 0.0017
vn 0.0387 0.9992 0.0009
vn 0.0591 0.9983 -0.0007
vn 0.0571 0.9984 -0.0008
vn 0.0457 0.999 0.0016
vn 0.0545 0.9985 -0.0009
vn 0.0473 0.9989 0.0001
vn 0.0452 0.999 -0.0002
vn 0.041 0.9992 -0.0001
vn 0.0362 0.9993 0
vn 0.1049 0.9942 0.0232
vn 0.0923 0.9957 0.0024
vn 0.1056 0.9944 -0.0059
vn 0.1395 0.9902 0
vn 0.1589 0.9873 0
vn 0.1436 0.9896 -0.0042
vn 0.1468 0.9892 0.0006
vn 0.1316 0.9913 0.0014
vn 0.1509 0.9886 -0.0018
vn 0.1638 0.9845 0.063
vn 0.0591 0.9983 -0.0007
vn 0.063 0.998 0.0006
vn 0.0457 0.999 0.0016
vn 0.1645 0.9864 -0.0025
vn 0.192 0.9814 0
vn 0.1884 0.9821 -0.0006
vn 0.2005 0.9797 -0.0007
vn 0.1884 0.9821 -0.0006
vn 0.1645 0.9864 -0.0025
vn 0.0782 0.9969 0.0002
vn 0.0857 0.9963 0.0025
vn 0.0853 0.9964 0.0026
vn 0.0762 0.9971 0.0006
vn 0.1319 0.9913 -0.0002
vn 0.1468 0.9892 0.0006
vn 0.1395 0.9902 0
vn 0.1075 0.9942 0.0012
vn 0.1079 0.9942 0.001
vn 0.0981 0.9952 -0.0007
vn 0.1509 0.9886 -0.0018
vn 0.1651 0.9863 0.0001
vn 0.167 0.986 0
vn 0.1589 0.9873 0
vn 0.1056 0.9944 -0.0059
vn 0.1111 0.9938 -0.0002
vn 0.1052 0.9945 0.0001
vn 0.1049 0.9942 0.0232
vn 0.115 0.9934 0.0003
vn 0.1152 0.9933 0.0009
vn 0.1111 0.9938 -0.0002
vn 0.123 0.9924 -0.0004
vn 0.116 0.9932 0.0116
vn 0.1056 0.9944 -0.0059
vn 0.1645 0.9864 -0.0025
vn 0.0869 0.9962 0.0003
vn 0.0857 0.9963 0.0025
vn -0.033 0.9995 0.0019
vn 0.098 0.9949 -0.0254
vn 0.0923 0.9957 0.0024
vn 0.0853 0.9964 0.0026
vn 0.0825 0.9966 -0.0006
vn 0.1049 0.9942 0.0232
vn -0.0538 0.9986 -0.0005
vn 0.0735 0.9973 -0.0016
vn 0.1103 0.9939 0.0005
vn 0.0989 0.9951 0.0009
vn 0.1103 0.9939 0.0005
vn 0.1123 0.9937 -0.001
vn 0.1201 0.9928 0.0006
vn 0.0336 0.9994 -0.0002
vn 0.0362 0.9993 0
vn 0.0929 0.9957 0.0017
vn 0.106 0.9944 0.0029
vn 0.0981 0.9952 -0.0007
vn 0.1075 0.9942 0.0012
vn 0.1319 0.9913 -0.0002
vn 0.1638 0.9845 0.063
vn 0.1152 0.9933 0.0009
vn 0.116 0.9932 0.0116
vn 0.098 0.9952 0.0006
vn 0.0853 0.9964 0.0026
vn 0.098 0.9949 -0.0254
vn 0.1193 0.9929 -0.003
vn 0.1079 0.9942 0.001
vn 0.098 0.9952 0.0006
vn 0.098 0.9949 -0.0254
vn 0.1052 0.9945 0.0001
vn 0.1048 0.9945 0.0004
vn 0.167 0.986 0
vn 0.1814 0.9834 -0.0001
vn 0.1794 0.9838 0
vn 0.0394 0.9992 -0.0003
vn 0.041 0.9992 -0.0001
vn 0.0336 0.9994 -0.0002
vn 0.063 0.998 0.0006
vn -0.033 0.9995 0.0019
vn 0.0762 0.9971 0.0006
vn 0.0857 0.9963 0.0025
vn 0.1319 0.9913 -0.0002
vn 0.1395 0.9902 0
vn 0.115 0.9934 0.0003
vn 0.1123 0.9937 -0.001
vn 0.1201 0.9928 0.0006
vn 0.123 0.9924 -0.0004
f 16//16 25//25 12//12
f 28//28 33//33 50//50
f 159//159 62//62 188//188
f 89//89 86//86 78//78
f 71//71 93//93 74//74
f 114//114 92//92 70//70
f 186//186 144//144 209//209
f 214//214 60//60 161//161
f 10//10 99//99 3//3
f 103//103 202//202 84//84
f 34//34 211//211 158//158
f 95//95 110//110 105//105
f 108//108 165//165 14//14
f 76//76 116//116 69//69
f 203//203 119//119 85//85
f 4//4 100//100 29//29
f 46//46 137//137 52//52
f 118//118 75//75 83//83
f 21//21 126//126 39//39
f 113//113 131//131 58//58
f 7//7 135//135 45//45
f 169//169 122//122 17//17
f 40//40 128//128 63//63
f 136//136 138//138 51//51
f 87//87 112//112 79//79
f 27//27 97//97 67//67
f 59//59 144//144 186//186
f 206//206 167//167 56//56
f 121//121 172//172 157//157
f 154//154 163//163 123//123
f 88//88 133//133 115//115
f 134//134 164//164 139//139
f 184//184 149//149 106//106
f 80//80 174//174 94//94
f 208//208 141//141 166//166
f 98//98 176//176 68//68
f 111//111 182//182 104//104
f 181//181 101//101 120//120
f 142//142 191//191 170//170
f 175//175 177//177 66//66
f 64//64 129//129 150//150
f 189//189 24//24 162//162
f 91//91 54//54 72//72
f 73//73 53//53 81//81
f 65//65 178//178 212//212
f 130//130 23//23 187//187
f 35//35 5//5 201//201
f 117//117 90//90 77//77
f 55//55 173//173 82//82
f 168//168 192//192 196//196
f 179//179 61//61 213//213
f 22//22 194//194 148//148
f 171//171 109//109 96//96
f 146//146 124//124 210//210
f 180//180 204//204 102//102
f 132//132 205//205 57//57
f 197//197 30//30 156//156
f 43//43 153//153 125//125
f 145//145 41//41 127//127
f 207//207 9//9 143//143
f 48//48 195//195 190//190
f 49//49 32//32 198//198
f 31//31 160//160 155//155
f 8//8 2//2 140//140
f 15//15 11//11 107//107
f 13//13 20//20 183//183
f 19//19 38//38 193//193
f 185//185 18//18 147//147
f 42//42 36//36 151//151
f 152//152 37//37 199//199
f 26//26 47//47 1//1
f 200//200 6//6 44//44
