mtllib material_0.mtl
usemtl material_0
v 0.060297 0.045924 0.057824
v 0.060297 0.045924 0.057824
v 0.060297 0.045924 0.057824
v 0.060297 0.045924 0.057824
v 0.061257 0.0457 0.057663
v 0.061257 0.0457 0.057663
v 0.061257 0.0457 0.057663
v 0.061257 0.0457 0.057663
v 0.061257 0.0457 0.057663
v 0.061257 0.0457 0.057663
v 0.061257 0.0457 0.057663
v 0.06066 0.047751 0.057739
v 0.06066 0.047751 0.057739
v 0.06066 0.047751 0.057739
v 0.06066 0.047751 0.057739
v 0.06066 0.047751 0.057739
v 0.06066 0.047751 0.057739
v 0.059203 0.046843 0.058001
v 0.059203 0.046843 0.058001
v 0.059203 0.046843 0.058001
v 0.059203 0.046843 0.058001
v 0.059203 0.046843 0.058001
v 0.058787 0.0457 0.058048
v 0.058787 0.0457 0.058048
v 0.058787 0.0457 0.058048
v 0.058787 0.0457 0.058048
v 0.058787 0.0457 0.058048
v 0.058787 0.0457 0.058048
v 0.058787 0.0457 0.058048
v 0.059128 0.048701 0.058049
v 0.059128 0.048701 0.058049
v 0.059128 0.048701 0.058049
v 0.059128 0.048701 0.058049
v 0.059128 0.048701 0.058049
v 0.059128 0.048701 0.058049
v 0.059128 0.048701 0.058049
v 0.059685 0.047847 0.057927
v 0.059685 0.047847 0.057927
v 0.059685 0.047847 0.057927
v 0.071377 0.034697 0.056059
v 0.071377 0.034697 0.056059
v 0.071377 0.034697 0.056059
v 0.071377 0.034697 0.056059
v 0.071609 0.037624 0.056016
v 0.071609 0.037624 0.056016
v 0.071609 0.037624 0.056016
v 0.071609 0.037624 0.056016
v 0.071609 0.037624 0.056016
v 0.070943 0.040992 0.056126
v 0.070943 0.040992 0.056126
v 0.070943 0.040992 0.056126
v 0.070943 0.040992 0.056126
v 0.050213 0.03072 0.059497
v 0.050213 0.03072 0.059497
v 0.050213 0.03072 0.059497
v 0.050213 0.03072 0.059497
v 0.050213 0.03072 0.059497
v 0.053407 0.027424 0.058994
v 0.053407 0.027424 0.058994
v 0.053407 0.027424 0.058994
v 0.053407 0.027424 0.058994
v 0.053407 0.027424 0.058994
v 0.053407 0.027424 0.058994
v 0.05673 0.0273 0.058492
v 0.05673 0.0273 0.058492
v 0.05673 0.0273 0.058492
v 0.056702 0.028856 0.058316
v 0.056702 0.028856 0.058316
v 0.063347 0.0273 0.057421
v 0.063347 0.0273 0.057421
v 0.063347 0.0273 0.057421
v 0.063347 0.0273 0.057421
v 0.063318 0.028856 0.057244
v 0.063318 0.028856 0.057244
v 0.063318 0.028856 0.057244
v 0.067898 0.028313 0.056621
v 0.067898 0.028313 0.056621
v 0.067898 0.028313 0.056621
v 0.067898 0.028313 0.056621
v 0.067898 0.028313 0.056621
v 0.067898 0.028313 0.056621
v 0.052727 0.045239 0.059133
v 0.052727 0.045239 0.059133
v 0.052727 0.045239 0.059133
v 0.052727 0.045239 0.059133
v 0.052727 0.045239 0.059133
v 0.052727 0.045239 0.059133
v 0.052727 0.045239 0.059133
v 0.052727 0.045239 0.059133
v 0.052727 0.045239 0.059133
v 0.066675 0.046564 0.056845
v 0.066675 0.046564 0.056845
v 0.066675 0.046564 0.056845
v 0.066675 0.046564 0.056845
v 0.066675 0.046564 0.056845
v 0.069374 0.043925 0.05639
v 0.069374 0.043925 0.05639
v 0.069374 0.043925 0.05639
v 0.069374 0.043925 0.05639
v 0.069374 0.043925 0.05639
v 0.06072 0.02529 0.057802
v 0.06072 0.02529 0.057802
v 0.06072 0.02529 0.057802
v 0.06072 0.02529 0.057802
v 0.06072 0.02529 0.057802
v 0.048862 0.033143 0.059495
v 0.048862 0.033143 0.059495
v 0.048862 0.033143 0.059495
v 0.048862 0.033143 0.059495
v 0.048576 0.038817 0.059739
v 0.048576 0.038817 0.059739
v 0.048576 0.038817 0.059739
v 0.048576 0.038817 0.059739
v 0.048576 0.038817 0.059739
v 0.067351 0.045237 0.056764
v 0.067351 0.045237 0.056764
v 0.067351 0.045237 0.056764
v 0.067351 0.045237 0.056764
v 0.067351 0.045237 0.056764
v 0.067351 0.045237 0.056764
v 0.067351 0.045237 0.056764
v 0.067351 0.045237 0.056764
v 0.052651 0.027636 0.058854
v 0.052651 0.027636 0.058854
v 0.052651 0.027636 0.058854
v 0.052651 0.027636 0.058854
v 0.056745 0.025697 0.058418
v 0.056745 0.025697 0.058418
v 0.056745 0.025697 0.058418
v 0.056745 0.025697 0.058418
v 0.056745 0.025697 0.058418
v 0.056745 0.025697 0.058418
v 0.058457 0.02522 0.057912
v 0.058457 0.02522 0.057912
v 0.058457 0.02522 0.057912
v 0.064178 0.026011 0.057216
v 0.064178 0.026011 0.057216
v 0.064178 0.026011 0.057216
v 0.064178 0.026011 0.057216
v 0.064178 0.026011 0.057216
v 0.064975 0.026092 0.056866
v 0.064975 0.026092 0.056866
v 0.064975 0.026092 0.056866
v 0.064975 0.026092 0.056866
v 0.070425 0.031848 0.056227
v 0.070425 0.031848 0.056227
v 0.070425 0.031848 0.056227
v 0.070425 0.031848 0.056227
v 0.070425 0.031848 0.056227
v 0.070425 0.031848 0.056227
v 0.069535 0.030161 0.056118
v 0.069535 0.030161 0.056118
v 0.069535 0.030161 0.056118
v 0.071414 0.034087 0.055816
v 0.071414 0.034087 0.055816
v 0.071414 0.034087 0.055816
v 0.071414 0.034087 0.055816
v 0.048474 0.036261 0.059775
v 0.048474 0.036261 0.059775
v 0.048474 0.036261 0.059775
v 0.048474 0.036261 0.059775
v 0.048288 0.035916 0.05956
v 0.048288 0.035916 0.05956
v 0.048288 0.035916 0.05956
v 0.067329 0.046367 0.056477
v 0.067329 0.046367 0.056477
v 0.067329 0.046367 0.056477
v 0.067329 0.046367 0.056477
v 0.06362 0.048167 0.057321
v 0.06362 0.048167 0.057321
v 0.06362 0.048167 0.057321
v 0.06362 0.048167 0.057321
v 0.06362 0.048167 0.057321
v 0.06362 0.048167 0.057321
v 0.061358 0.04878 0.057442
v 0.061358 0.04878 0.057442
v 0.061358 0.04878 0.057442
v 0.055874 0.04818 0.058365
v 0.055874 0.04818 0.058365
v 0.055874 0.04818 0.058365
v 0.055874 0.04818 0.058365
v 0.052831 0.046421 0.058821
v 0.052831 0.046421 0.058821
v 0.052137 0.045699 0.059164
v 0.052137 0.045699 0.059164
v 0.052137 0.045699 0.059164
v 0.052137 0.045699 0.059164
v 0.052137 0.045699 0.059164
v 0.052137 0.045699 0.059164
v 0.049481 0.0419 0.059603
v 0.049481 0.0419 0.059603
v 0.049481 0.0419 0.059603
v 0.049481 0.0419 0.059603
v 0.071283 0.040618 0.055838
v 0.071283 0.040618 0.055838
v 0.071283 0.040618 0.055838
v 0.071283 0.040618 0.055838
v 0.049478 0.042473 0.059361
v 0.049478 0.042473 0.059361
v 0.049478 0.042473 0.059361
v 0.049478 0.042473 0.059361
v 0.067269 0.028799 0.056715
v 0.067269 0.028799 0.056715
v 0.067269 0.028799 0.056715
v 0.052792 0.028798 0.059058
v 0.052792 0.028798 0.059058
v 0.052792 0.028798 0.059058
vn 0.1678 0.0124 0.9857
vn 0.1697 0.012 0.9854
vn 0.1487 -0.0137 0.9888
vn 0.1537 -0.0489 0.9869
vn 0.1572 0.1851 0.9701
vn 0.1471 0.0149 0.989
vn 0.1505 -0.0071 0.9886
vn 0.1392 0.0039 0.9903
vn 0.1537 -0.0489 0.9869
vn 0.1472 0.2912 0.9453
vn 0.1678 0.0124 0.9857
vn 0.1678 0.0124 0.9857
vn 0.1697 0.012 0.9854
vn 0.1392 0.0039 0.9903
vn 0.1873 -0.0182 0.9821
vn 0.1874 -0.0174 0.9821
vn 0.1502 -0.0791 0.9855
vn 0.1626 -0.0188 0.9865
vn 0.1881 -0.0177 0.982
vn 0.1487 -0.0137 0.9888
vn 0.1874 -0.0174 0.9821
vn 0.1697 0.012 0.9854
vn 0.1638 0.1446 0.9758
vn 0.1652 0.068 0.9839
vn 0.0986 -0.0116 0.9951
vn 0.1487 -0.0137 0.9888
vn 0.1472 0.2912 0.9453
vn 0.1537 -0.0489 0.9869
vn 0.1626 -0.0188 0.9865
vn 0.0986 -0.0116 0.9951
vn 0.1502 -0.0791 0.9855
vn -0.1836 0.801 -0.5698
vn 0.1881 -0.0177 0.982
vn 0.1969 0.5693 0.7982
vn 0.1873 -0.0182 0.9821
vn 0.1626 -0.0188 0.9865
vn 0.1874 -0.0174 0.9821
vn 0.1873 -0.0182 0.9821
vn 0.1881 -0.0177 0.982
vn 0.9449 -0.0702 0.3198
vn 0.7407 -0.2096 0.6383
vn 0.1743 0.0007 0.9847
vn 0.1735 0.0004 0.9848
vn 0.1787 0.0032 0.9839
vn 0.7149 0.1189 0.6891
vn 0.1743 0.0007 0.9847
vn 0.9449 -0.0702 0.3198
vn 0.5776 0.0143 -0.8162
vn 0.8064 0.3914 0.4433
vn 0.7149 0.1189 0.6891
vn 0.1899 0.013 0.9817
vn 0.1787 0.0032 0.9839
vn -0.2733 -0.3985 0.8755
vn -0.6264 -0.3499 -0.6966
vn 0.1998 0.0442 0.9788
vn 0.1653 -0.0039 0.9862
vn 0.0331 0.0193 0.9993
vn -0.318 -0.7896 0.5248
vn -0.2733 -0.3985 0.8755
vn 0.1474 -0.0444 0.9881
vn 0.1858 0.0377 0.9819
vn 0.1998 0.0442 0.9788
vn 0.1524 0.1144 0.9817
vn 0.1474 -0.0444 0.9881
vn 0.1597 -0.0442 0.9862
vn 0.1524 0.1144 0.9817
vn 0.1858 0.0377 0.9819
vn 0.1524 0.1144 0.9817
vn 0.152 -0.011 0.9883
vn 0.397 0.1108 0.9111
vn 0.1759 -0.0432 0.9835
vn 0.1597 -0.0442 0.9862
vn 0.1383 0.0319 0.9899
vn 0.397 0.1108 0.9111
vn 0.1324 -0.0198 0.991
vn 0.1498 0.0031 0.9887
vn 0.1324 -0.0198 0.991
vn 0.3065 -0.4931 -0.8142
vn 0.6346 -0.3786 0.6738
vn 0.3982 -0.4352 0.8075
vn 0.1383 0.0319 0.9899
vn 0.1638 0.1446 0.9758
vn 0.1472 0.2912 0.9453
vn 0.0916 0.0507 0.9945
vn 0.1653 -0.0039 0.9862
vn 0.0331 0.0193 0.9993
vn 0.1308 0.0089 0.9914
vn 0.1572 0.1851 0.9701
vn 0.1407 0.0024 0.99
vn 0.2599 -0.0542 0.9641
vn 0.2121 0.0489 0.976
vn 0.5377 0.4244 0.7285
vn 0.4718 0.7723 0.4254
vn 0.1471 0.0149 0.989
vn 0.1505 -0.0071 0.9886
vn 0.2121 0.0489 0.976
vn 0.5377 0.4244 0.7285
vn 0.1899 0.013 0.9817
vn 0.8064 0.3914 0.4433
vn 0.4179 0.3792 -0.8256
vn -0.0099 -0.7369 -0.676
vn 0.152 -0.011 0.9883
vn 0.1759 -0.0432 0.9835
vn 0.2487 -0.8991 0.3603
vn 0.0569 -0.6238 0.7795
vn 0.2599 -0.0542 0.9641
vn -0.6264 -0.3499 -0.6966
vn 0.0331 0.0193 0.9993
vn -0.6191 -0.1461 0.7716
vn -0.7592 0.2494 0.6012
vn -0.7857 0.0399 0.6174
vn -0.7398 0.1141 -0.6631
vn 0.1308 0.0089 0.9914
vn 0.1407 0.0024 0.99
vn 0.1787 0.0032 0.9839
vn 0.2121 0.0489 0.976
vn 0.1471 0.0149 0.989
vn 0.1735 0.0004 0.9848
vn 0.1899 0.013 0.9817
vn 0.1562 -0.0037 0.9877
vn 0.1572 0.1851 0.9701
vn 0.1743 0.0007 0.9847
vn -0.3766 -0.6459 -0.6641
vn -0.318 -0.7896 0.5248
vn -0.2733 -0.3985 0.8755
vn -0.6264 -0.3499 -0.6966
vn -0.3766 -0.6459 -0.6641
vn 0.1597 -0.0442 0.9862
vn 0.152 -0.011 0.9883
vn 0.1474 -0.0444 0.9881
vn 0.0569 -0.6238 0.7795
vn -0.318 -0.7896 0.5248
vn -0.0099 -0.7369 -0.676
vn -0.3766 -0.6459 -0.6641
vn 0.0569 -0.6238 0.7795
vn 0.1759 -0.0432 0.9835
vn 0.397 0.1108 0.9111
vn 0.3982 -0.4352 0.8075
vn 0.1383 0.0319 0.9899
vn 0.2487 -0.8991 0.3603
vn 0.2487 -0.8991 0.3603
vn 0.3065 -0.4931 -0.8142
vn -0.0099 -0.7369 -0.676
vn 0.3982 -0.4352 0.8075
vn 0.8524 -0.4308 -0.2965
vn 0.1498 0.0031 0.9887
vn 0.7407 -0.2096 0.6383
vn 0.6346 -0.3786 0.6738
vn 0.1562 -0.0037 0.9877
vn 0.1735 0.0004 0.9848
vn 0.3065 -0.4931 -0.8142
vn 0.6346 -0.3786 0.6738
vn 0.8524 -0.4308 -0.2965
vn 0.9449 -0.0702 0.3198
vn 0.8524 -0.4308 -0.2965
vn 0.7407 -0.2096 0.6383
vn 0.5776 0.0143 -0.8162
vn 0.1308 0.0089 0.9914
vn 0.2599 -0.0542 0.9641
vn -0.7857 0.0399 0.6174
vn -0.6191 -0.1461 0.7716
vn -0.7857 0.0399 0.6174
vn -0.7398 0.1141 -0.6631
vn -0.6191 -0.1461 0.7716
vn 0.1283 0.6253 -0.7697
vn 0.4718 0.7723 0.4254
vn 0.5377 0.4244 0.7285
vn 0.4179 0.3792 -0.8256
vn 0.4718 0.7723 0.4254
vn 0.1283 0.6253 -0.7697
vn 0.1502 -0.0791 0.9855
vn 0.1392 0.0039 0.9903
vn 0.1969 0.5693 0.7982
vn 0.1505 -0.0071 0.9886
vn 0.1283 0.6253 -0.7697
vn -0.1836 0.801 -0.5698
vn 0.1969 0.5693 0.7982
vn 0.1652 0.068 0.9839
vn -0.2204 0.5837 0.7815
vn -0.1836 0.801 -0.5698
vn 0.0986 -0.0116 0.9951
vn -0.7546 0.6065 -0.2504
vn -0.2204 0.5837 0.7815
vn -0.7546 0.6065 -0.2504
vn -0.372 0.3588 0.8561
vn -0.2204 0.5837 0.7815
vn 0.1638 0.1446 0.9758
vn 0.1652 0.068 0.9839
vn 0.0916 0.0507 0.9945
vn -0.7592 0.2494 0.6012
vn 0.1407 0.0024 0.99
vn 0.0916 0.0507 0.9945
vn -0.372 0.3588 0.8561
vn 0.8064 0.3914 0.4433
vn 0.4179 0.3792 -0.8256
vn 0.5776 0.0143 -0.8162
vn 0.7149 0.1189 0.6891
vn -0.7398 0.1141 -0.6631
vn -0.372 0.3588 0.8561
vn -0.7546 0.6065 -0.2504
vn -0.7592 0.2494 0.6012
vn 0.1498 0.0031 0.9887
vn 0.1562 -0.0037 0.9877
vn 0.1324 -0.0198 0.991
vn 0.1858 0.0377 0.9819
vn 0.1998 0.0442 0.9788
vn 0.1653 -0.0039 0.9862
f 11//11 12//12 1//1
f 13//13 22//22 2//2
f 15//15 35//35 38//38
f 39//39 33//33 19//19
f 18//18 36//36 29//29
f 4//4 28//28 9//9
f 20//20 26//26 3//3
f 16//16 37//37 21//21
f 122//122 42//42 46//46
f 115//115 44//44 52//52
f 206//206 55//55 62//62
f 64//64 60//60 130//130
f 68//68 63//63 66//66
f 67//67 205//205 61//61
f 71//71 103//103 136//136
f 137//137 74//74 70//70
f 81//81 73//73 139//139
f 204//204 75//75 77//77
f 84//84 189//189 192//192
f 146//146 202//202 76//76
f 23//23 187//187 82//82
f 24//24 178//178 188//188
f 30//30 181//181 25//25
f 171//171 31//31 17//17
f 172//172 14//14 8//8
f 95//95 174//174 7//7
f 94//94 6//6 117//117
f 98//98 119//119 51//51
f 96//96 91//91 116//116
f 72//72 65//65 128//128
f 69//69 129//129 102//102
f 207//207 85//85 56//56
f 57//57 86//86 108//108
f 106//106 90//90 159//159
f 158//158 87//87 113//113
f 114//114 89//89 191//191
f 88//88 121//121 5//5
f 83//83 10//10 27//27
f 120//120 203//203 149//149
f 118//118 150//150 43//43
f 58//58 124//124 132//132
f 141//141 140//140 104//104
f 80//80 138//138 144//144
f 152//152 148//148 79//79
f 54//54 107//107 126//126
f 147//147 156//156 41//41
f 48//48 157//157 196//196
f 127//127 123//123 134//134
f 135//135 105//105 131//131
f 101//101 133//133 143//143
f 125//125 59//59 53//53
f 78//78 142//142 151//151
f 145//145 153//153 155//155
f 154//154 47//47 40//40
f 109//109 161//161 164//164
f 93//93 166//166 169//169
f 186//186 179//179 183//183
f 199//199 193//193 185//185
f 100//100 195//195 168//168
f 112//112 198//198 163//163
f 160//160 111//111 162//162
f 170//170 165//165 175//175
f 32//32 176//176 180//180
f 99//99 49//49 194//194
f 167//167 92//92 97//97
f 184//184 182//182 200//200
f 177//177 34//34 173//173
f 190//190 201//201 110//110
f 50//50 45//45 197//197
