mtllib material_0.mtl
usemtl material_0
v -0.003367 0.081045 -0.07233
v -0.003367 0.081045 -0.07233
v -0.003367 0.081045 -0.07233
v -0.003367 0.081045 -0.07233
v -0.003367 0.081045 -0.07233
v -0.003367 0.081045 -0.07233
v -0.003367 0.081045 -0.07233
v -0.003915 0.081079 -0.072875
v -0.003915 0.081079 -0.072875
v -0.003915 0.081079 -0.072875
v -0.003915 0.081079 -0.072875
v -0.008513 0.083855 -0.069769
v -0.008513 0.083855 -0.069769
v -0.008513 0.083855 -0.069769
v -0.008513 0.083855 -0.069769
v -0.008513 0.083855 -0.069769
v -0.008513 0.083855 -0.069769
v -0.008513 0.083855 -0.069769
v -0.008513 0.083855 -0.069769
v -0.005045 0.084691 -0.069219
v -0.005045 0.084691 -0.069219
v -0.005045 0.084691 -0.069219
v -0.005045 0.084691 -0.069219
v -0.005045 0.084691 -0.069219
v -0.005045 0.084691 -0.069219
v -0.006985 0.084673 -0.069521
v -0.006985 0.084673 -0.069521
v -0.006985 0.084673 -0.069521
v -0.006985 0.084673 -0.069521
v -0.009975 0.082601 -0.070006
v -0.009975 0.082601 -0.070006
v -0.009975 0.082601 -0.070006
v -0.009975 0.082601 -0.070006
v -0.009975 0.082601 -0.070006
v -0.0115 0.080503 -0.070253
v -0.0115 0.080503 -0.070253
v -0.0115 0.080503 -0.070253
v -0.0115 0.080503 -0.070253
v -0.0115 0.080503 -0.070253
v -0.003977 0.084299 -0.069035
v -0.003977 0.084299 -0.069035
v -0.003977 0.084299 -0.069035
v -0.003977 0.084299 -0.069035
v -0.002641 0.083033 -0.068828
v -0.002641 0.083033 -0.068828
v -0.002641 0.083033 -0.068828
v -0.002641 0.083033 -0.068828
v -0.002641 0.083033 -0.068828
v -0.002641 0.083033 -0.068828
v -0.012698 0.077226 -0.070448
v -0.012698 0.077226 -0.070448
v -0.012698 0.077226 -0.070448
v -0.012698 0.077226 -0.070448
v -0.012698 0.077226 -0.070448
v -0.012698 0.077226 -0.070448
v -0.015147 0.05996 -0.070844
v -0.015147 0.05996 -0.070844
v -0.015147 0.05996 -0.070844
v -0.015147 0.05996 -0.070844
v -0.015147 0.05996 -0.070844
v -0.015147 0.05996 -0.070844
v -0.015147 0.05996 -0.070844
v -0.015147 0.05996 -0.070844
v -0.015147 0.05996 -0.070844
v -0.001998 0.081436 -0.068716
v -0.001998 0.081436 -0.068716
v -0.001998 0.081436 -0.068716
v -0.001998 0.081436 -0.068716
v -0.001998 0.081436 -0.068716
v -0.001998 0.081436 -0.068716
v -0.001998 0.081436 -0.068716
v -0.001998 0.081436 -0.068716
v -0.00962 0.01322 -0.069984
v -0.00962 0.01322 -0.069984
v -0.00962 0.01322 -0.069984
v -0.00962 0.01322 -0.069984
v -0.00962 0.01322 -0.069984
v -0.00962 0.01322 -0.069984
v -0.00962 0.01322 -0.069984
v -0.018836 0.030645 -0.071441
v -0.018836 0.030645 -0.071441
v -0.018836 0.030645 -0.071441
v -0.018836 0.030645 -0.071441
v -0.018836 0.030645 -0.071441
v -0.018836 0.030645 -0.071441
v -0.017587 0.0101 -0.075256
v -0.017587 0.0101 -0.075256
v -0.017587 0.0101 -0.075256
v -0.017587 0.0101 -0.075256
v -0.013723 0.043181 -0.074603
v -0.013723 0.043181 -0.074603
v -0.013723 0.043181 -0.074603
v -0.013723 0.043181 -0.074603
v -0.013723 0.043181 -0.074603
v -0.013723 0.043181 -0.074603
v -0.011855 0.058019 -0.074297
v -0.011855 0.058019 -0.074297
v -0.011855 0.058019 -0.074297
v -0.011855 0.058019 -0.074297
v -0.011855 0.058019 -0.074297
v -0.011855 0.058019 -0.074297
v -0.011855 0.058019 -0.074297
v -0.010927 0.065475 -0.074127
v -0.010927 0.065475 -0.074127
v -0.010927 0.065475 -0.074127
v -0.010927 0.065475 -0.074127
v -0.010927 0.065475 -0.074127
v -0.010927 0.065475 -0.074127
v -0.0099 0.072506 -0.073966
v -0.0099 0.072506 -0.073966
v -0.0099 0.072506 -0.073966
v -0.0099 0.072506 -0.073966
v -0.0099 0.072506 -0.073966
v -0.0099 0.072506 -0.073966
v -0.009108 0.076651 -0.073888
v -0.009108 0.076651 -0.073888
v -0.009108 0.076651 -0.073888
v -0.009108 0.076651 -0.073888
v -0.009108 0.076651 -0.073888
v -0.009108 0.076651 -0.073888
v -0.005377 0.081724 -0.073292
v -0.005377 0.081724 -0.073292
v -0.005377 0.081724 -0.073292
v -0.012824 0.050361 -0.074461
v -0.012824 0.050361 -0.074461
v -0.012824 0.050361 -0.074461
v -0.012824 0.050361 -0.074461
v -0.012824 0.050361 -0.074461
v -0.015357 0.03597 -0.074537
v -0.015357 0.03597 -0.074537
v -0.015357 0.03597 -0.074537
v -0.015357 0.03597 -0.074537
v -0.014745 0.034621 -0.074785
v -0.014745 0.034621 -0.074785
v -0.014745 0.034621 -0.074785
v -0.014745 0.034621 -0.074785
v -0.014745 0.034621 -0.074785
v -0.014745 0.034621 -0.074785
v -0.014444 0.040093 -0.074624
v -0.014444 0.040093 -0.074624
v -0.014444 0.040093 -0.074624
v -0.014444 0.040093 -0.074624
v -0.014444 0.040093 -0.074624
v -0.014292 0.043891 -0.074424
v -0.014292 0.043891 -0.074424
v -0.014292 0.043891 -0.074424
v -0.014292 0.043891 -0.074424
v -0.014292 0.043891 -0.074424
v -0.006082 0.082769 -0.072731
v -0.006082 0.082769 -0.072731
v -0.006082 0.082769 -0.072731
v -0.006082 0.082769 -0.072731
v -0.006082 0.082769 -0.072731
v -0.006082 0.082769 -0.072731
v -0.006082 0.082769 -0.072731
v -0.013552 0.04994 -0.074282
v -0.013552 0.04994 -0.074282
v -0.013552 0.04994 -0.074282
v -0.013552 0.04994 -0.074282
v -0.013552 0.04994 -0.074282
v -0.013552 0.04994 -0.074282
v -0.017776 0.015266 -0.074928
v -0.017776 0.015266 -0.074928
v -0.017776 0.015266 -0.074928
v -0.017077 0.015489 -0.075134
v -0.017077 0.015489 -0.075134
v -0.017077 0.015489 -0.075134
v -0.017077 0.015489 -0.075134
v -0.017077 0.015489 -0.075134
v -0.017077 0.015489 -0.075134
v -0.015902 0.033288 -0.074474
v -0.015902 0.033288 -0.074474
v -0.015902 0.033288 -0.074474
v -0.015902 0.033288 -0.074474
v -0.015902 0.033288 -0.074474
v -0.015902 0.033288 -0.074474
v -0.015902 0.033288 -0.074474
v -0.013277 0.054049 -0.074045
v -0.013277 0.054049 -0.074045
v -0.013277 0.054049 -0.074045
v -0.013277 0.054049 -0.074045
v -0.013277 0.054049 -0.074045
v -0.012351 0.058385 -0.074144
v -0.012351 0.058385 -0.074144
v -0.012351 0.058385 -0.074144
v -0.012351 0.058385 -0.074144
v -0.012351 0.058385 -0.074144
v -0.012351 0.058385 -0.074144
v -0.011606 0.061588 -0.074181
v -0.011606 0.061588 -0.074181
v -0.011606 0.061588 -0.074181
v -0.011606 0.061588 -0.074181
v -0.011606 0.061588 -0.074181
v -0.010609 0.075927 -0.07326
v -0.010609 0.075927 -0.07326
v -0.010609 0.075927 -0.07326
v -0.010609 0.075927 -0.07326
v -0.00994 0.077676 -0.073492
v -0.00994 0.077676 -0.073492
v -0.00994 0.077676 -0.073492
v -0.00994 0.077676 -0.073492
v -0.00994 0.077676 -0.073492
v -0.00994 0.077676 -0.073492
v -0.00994 0.077676 -0.073492
v -0.010709 0.068195 -0.07403
v -0.010709 0.068195 -0.07403
v -0.010709 0.068195 -0.07403
v -0.010709 0.068195 -0.07403
v -0.010709 0.068195 -0.07403
v -0.010376 0.07396 -0.073708
v -0.010376 0.07396 -0.073708
v -0.010376 0.07396 -0.073708
v -0.010376 0.07396 -0.073708
v -0.010376 0.07396 -0.073708
v -0.010376 0.07396 -0.073708
v -0.008589 0.079383 -0.073641
v -0.008589 0.079383 -0.073641
v -0.008589 0.079383 -0.073641
v -0.008589 0.079383 -0.073641
v -0.008589 0.079383 -0.073641
v -0.01511 0.041192 -0.07417
v -0.01511 0.041192 -0.07417
v -0.01511 0.041192 -0.07417
v -0.01511 0.041192 -0.07417
v -0.01511 0.041192 -0.07417
v -0.01511 0.041192 -0.07417
v -0.01511 0.041192 -0.07417
v -0.01413 0.049149 -0.073988
v -0.01413 0.049149 -0.073988
v -0.01413 0.049149 -0.073988
v -0.01413 0.049149 -0.073988
v -0.01413 0.049149 -0.073988
v -0.01413 0.049149 -0.073988
v -0.007148 0.080697 -0.073566
v -0.007148 0.080697 -0.073566
v -0.007148 0.080697 -0.073566
v -0.007148 0.080697 -0.073566
v -0.007148 0.080697 -0.073566
v -0.007148 0.080697 -0.073566
v -0.007148 0.080697 -0.073566
v -0.01267 0.053738 -0.074344
v -0.01267 0.053738 -0.074344
v -0.01267 0.053738 -0.074344
v -0.01267 0.053738 -0.074344
v -0.01267 0.053738 -0.074344
v -0.00532 0.082237 -0.073132
v -0.00532 0.082237 -0.073132
v -0.00532 0.082237 -0.073132
v -0.00532 0.082237 -0.073132
v -0.00532 0.082237 -0.073132
v -0.00532 0.082237 -0.073132
v -0.011607 0.065199 -0.073913
v -0.011607 0.065199 -0.073913
v -0.011607 0.065199 -0.073913
v -0.011607 0.065199 -0.073913
v -0.011607 0.065199 -0.073913
v -0.01059 0.070863 -0.073883
v -0.01059 0.070863 -0.073883
v -0.01059 0.070863 -0.073883
v -0.01059 0.070863 -0.073883
v -0.01817 0.014708 -0.074757
v -0.01817 0.014708 -0.074757
v -0.01817 0.014708 -0.074757
v -0.01817 0.014708 -0.074757
v -0.01817 0.014708 -0.074757
v -0.01817 0.014708 -0.074757
v -0.01817 0.014708 -0.074757
v -0.01817 0.014708 -0.074757
v -0.018439 0.010117 -0.075002
v -0.018439 0.010117 -0.075002
v -0.018439 0.010117 -0.075002
v -0.018439 0.010117 -0.075002
v -0.018439 0.010117 -0.075002
v -0.003936 0.082162 -0.072476
v -0.003936 0.082162 -0.072476
v -0.003936 0.082162 -0.072476
v -0.003936 0.082162 -0.072476
v -0.003936 0.082162 -0.072476
v -0.003936 0.082162 -0.072476
v -0.003936 0.082162 -0.072476
v -0.004485 0.081433 -0.073147
v -0.004485 0.081433 -0.073147
v -0.004485 0.081433 -0.073147
v -0.004485 0.081433 -0.073147
v -0.004485 0.081433 -0.073147
v -0.004485 0.081433 -0.073147
v -0.004485 0.081433 -0.073147
v -0.004485 0.081433 -0.073147
v -0.004485 0.081433 -0.073147
v -0.004485 0.081433 -0.073147
v -0.004734 0.082802 -0.072436
v -0.004734 0.082802 -0.072436
v -0.004734 0.082802 -0.072436
v -0.004734 0.082802 -0.072436
v -0.004734 0.082802 -0.072436
v -0.004734 0.082802 -0.072436
v -0.011116 0.010156 -0.073111
v -0.011116 0.010156 -0.073111
v -0.011116 0.010156 -0.073111
v -0.011116 0.010156 -0.073111
v -0.011116 0.010156 -0.073111
v -0.011116 0.010156 -0.073111
v -0.012203 0.010045 -0.074393
v -0.012203 0.010045 -0.074393
v -0.012203 0.010045 -0.074393
v -0.012203 0.010045 -0.074393
v -0.012203 0.010045 -0.074393
v -0.012203 0.010045 -0.074393
v -0.012203 0.010045 -0.074393
v -0.012203 0.010045 -0.074393
v -0.012203 0.010045 -0.074393
v -0.012203 0.010045 -0.074393
v -0.012203 0.010045 -0.074393
v -0.020393 0.011653 -0.07253
v -0.020393 0.011653 -0.07253
v -0.020393 0.011653 -0.07253
v -0.020778 0.013176 -0.071827
v -0.020778 0.013176 -0.071827
v -0.020778 0.013176 -0.071827
v -0.020778 0.013176 -0.071827
v -0.020778 0.013176 -0.071827
v -0.020778 0.013176 -0.071827
v -0.0196 0.010565 -0.073664
v -0.0196 0.010565 -0.073664
v -0.0196 0.010565 -0.073664
v -0.0196 0.010565 -0.073664
v -0.0196 0.010565 -0.073664
v -0.0196 0.010565 -0.073664
v -0.010199 0.011396 -0.070988
v -0.010199 0.011396 -0.070988
v -0.010199 0.011396 -0.070988
v -0.010199 0.011396 -0.070988
v -0.010199 0.011396 -0.070988
v -0.011389 0.069398 -0.073588
v -0.011389 0.069398 -0.073588
v -0.011389 0.069398 -0.073588
v -0.011389 0.069398 -0.073588
v -0.011389 0.069398 -0.073588
v -0.011389 0.069398 -0.073588
v -0.011389 0.069398 -0.073588
v -0.011389 0.069398 -0.073588
v -0.012177 0.06379 -0.073697
v -0.012177 0.06379 -0.073697
v -0.012177 0.06379 -0.073697
v -0.012177 0.06379 -0.073697
v -0.012177 0.06379 -0.073697
v -0.012177 0.06379 -0.073697
v -0.007869 0.08148 -0.073028
v -0.007869 0.08148 -0.073028
v -0.007869 0.08148 -0.073028
v -0.007869 0.08148 -0.073028
v -0.007869 0.08148 -0.073028
v -0.007869 0.08148 -0.073028
v -0.009244 0.079787 -0.073157
v -0.009244 0.079787 -0.073157
v -0.009244 0.079787 -0.073157
v -0.009244 0.079787 -0.073157
v -0.009244 0.079787 -0.073157
v -0.013053 0.057681 -0.073775
v -0.013053 0.057681 -0.073775
v -0.013053 0.057681 -0.073775
v -0.013053 0.057681 -0.073775
v -0.013053 0.057681 -0.073775
v -0.003961 0.083234 -0.070828
v -0.003961 0.083234 -0.070828
v -0.003961 0.083234 -0.070828
v -0.003961 0.083234 -0.070828
v -0.003961 0.083234 -0.070828
v -0.005742 0.083839 -0.070997
v -0.005742 0.083839 -0.070997
v -0.005742 0.083839 -0.070997
v -0.005742 0.083839 -0.070997
vn 0.8406 0.3773 -0.3885
vn 0.9318 -0.098 -0.3496
vn 0.7018 -0.0667 -0.7093
vn 0.872 0.3256 -0.3656
vn 0.7636 -0.0764 -0.6412
vn 0.6887 0.2623 -0.676
vn 0.9341 -0.098 -0.3434
vn 0.6887 0.2623 -0.676
vn 0.4161 -0.0291 -0.9088
vn 0.7018 -0.0667 -0.7093
vn 0.5555 0.297 -0.7767
vn -0.1573 0.0061 0.9875
vn -0.159 -0.0062 0.9873
vn -0.1536 -0.012 0.9881
vn -0.3241 0.7708 -0.5484
vn -0.4059 0.6986 -0.5892
vn -0.4754 0.6637 -0.5775
vn -0.1597 -0.0004 0.9872
vn -0.1617 0.0223 0.9866
vn 0.0617 0.8905 -0.4509
vn 0.4375 0.7932 -0.4235
vn 0.3743 0.7987 -0.4712
vn -0.1617 0.0223 0.9866
vn 0.1892 0.8546 -0.4836
vn -0.1536 -0.012 0.9881
vn -0.0434 0.8539 -0.5187
vn -0.3241 0.7708 -0.5484
vn -0.1536 -0.012 0.9881
vn 0.0617 0.8905 -0.4509
vn -0.5926 0.5276 -0.6087
vn -0.1597 -0.0004 0.9872
vn -0.1597 -0.0002 0.9872
vn -0.6108 0.5149 -0.6015
vn -0.4754 0.6637 -0.5775
vn -0.1596 -0.0003 0.9872
vn -0.7036 0.3318 -0.6284
vn -0.1597 -0.0002 0.9872
vn -0.6108 0.5149 -0.6015
vn -0.7282 0.3027 -0.6149
vn -0.159 -0.0062 0.9873
vn 0.3743 0.7987 -0.4712
vn 0.6675 0.6428 -0.3759
vn -0.1617 0.0223 0.9866
vn -0.159 -0.0062 0.9873
vn -0.1573 0.0061 0.9875
vn 0.872 0.3256 -0.3656
vn 0.6848 0.6155 -0.3901
vn 0.6675 0.6428 -0.3759
vn 0.8406 0.3773 -0.3885
vn -0.1596 -0.0003 0.9872
vn -0.7685 0.1233 -0.6278
vn -0.7684 0.1234 -0.6279
vn -0.1597 0 0.9872
vn -0.7282 0.3027 -0.6149
vn -0.7408 0.1982 -0.6418
vn -0.1597 0 0.9872
vn -0.765 0.1124 -0.6341
vn -0.7706 0.1097 -0.6278
vn -0.7684 0.1234 -0.6279
vn -0.1568 -0.0004 0.9876
vn -0.7626 0.1173 -0.6362
vn -0.772 0.1094 -0.6261
vn -0.7638 0.1197 -0.6343
vn -0.1588 -0.0006 0.9873
vn -0.1597 -0.0004 0.9872
vn -0.1573 0.0061 0.9875
vn -0.1588 -0.0006 0.9873
vn -0.1596 -0.0003 0.9872
vn -0.1597 -0.0002 0.9872
vn 0.872 0.3256 -0.3656
vn 0.9341 -0.098 -0.3434
vn -0.1597 0 0.9872
vn 0.9318 -0.098 -0.3496
vn 0.9341 -0.098 -0.3434
vn -0.1588 -0.0006 0.9873
vn 0.9342 -0.1092 -0.3397
vn -0.163 -0.0037 0.9866
vn -0.1446 -0.4413 0.8856
vn -0.1568 -0.0004 0.9876
vn -0.163 -0.0037 0.9866
vn -0.7684 0.0994 -0.6322
vn -0.7581 0.1023 -0.644
vn -0.7576 0.1007 -0.6449
vn -0.1568 -0.0004 0.9876
vn -0.7706 0.1097 -0.6278
vn -0.3605 0.0552 -0.9311
vn -0.2837 0.0677 -0.9565
vn -0.0139 -0.9996 0.0231
vn 0.1583 0.0074 -0.9874
vn 0.151 0.0007 -0.9885
vn -0.1266 0.0361 -0.9913
vn -0.2402 0.0521 -0.9693
vn -0.2669 0.0525 -0.9623
vn 0.1645 0.0013 -0.9864
vn -0.2307 0.0603 -0.9712
vn 0.137 0.0055 -0.9906
vn -0.2545 0.0591 -0.9653
vn 0.1514 0.0009 -0.9885
vn -0.1751 0.0442 -0.9835
vn -0.2612 0.0496 -0.964
vn -0.1604 0.0414 -0.9862
vn 0.1607 0.0008 -0.987
vn 0.148 0.001 -0.989
vn -0.1751 0.0442 -0.9835
vn -0.3223 0.0596 -0.9448
vn -0.1908 0.0503 -0.9803
vn 0.137 0.0055 -0.9906
vn -0.3259 0.07 -0.9428
vn -0.2915 0.0737 -0.9537
vn -0.2914 0.0738 -0.9538
vn 0.148 0.001 -0.989
vn 0.1725 -0.0143 -0.9849
vn -0.2717 0.0652 -0.9602
vn -0.1908 0.0503 -0.9803
vn -0.3314 0.0936 -0.9388
vn 0.1541 0.004 -0.988
vn -0.0359 0.0966 -0.9947
vn 0.1725 -0.0143 -0.9849
vn -0.2915 0.0737 -0.9537
vn -0.2806 0.139 -0.9497
vn -0.0274 0.3013 -0.9531
vn 0.2386 0.2662 -0.9339
vn 0.1575 -0.0086 -0.9875
vn 0.1607 0.0008 -0.987
vn -0.1604 0.0414 -0.9862
vn -0.2669 0.0525 -0.9623
vn -0.2631 0.0453 -0.9637
vn 0.151 0.0007 -0.9885
vn -0.4627 0.0838 -0.8826
vn -0.3004 0.0388 -0.953
vn -0.29 0.0441 -0.956
vn -0.5125 0.0842 -0.8545
vn -0.29 0.0441 -0.956
vn 0.15 -0.0002 -0.9887
vn 0.1645 0.0013 -0.9864
vn -0.3004 0.0388 -0.953
vn -0.1266 0.0361 -0.9913
vn -0.3185 0.0561 -0.9463
vn -0.1266 0.0361 -0.9913
vn -0.4627 0.0838 -0.8826
vn -0.29 0.0441 -0.956
vn -0.4859 0.0652 -0.8716
vn -0.2307 0.0603 -0.9712
vn -0.2307 0.0603 -0.9712
vn -0.5432 0.086 -0.8352
vn -0.2402 0.0521 -0.9693
vn -0.5425 0.086 -0.8356
vn -0.4859 0.0652 -0.8716
vn -0.3241 0.7708 -0.5484
vn -0.1741 0.4437 -0.8791
vn 0.1338 0.711 -0.6903
vn -0.0434 0.8539 -0.5187
vn 0.097 0.8383 -0.5366
vn -0.1591 0.4383 -0.8847
vn -0.4059 0.6986 -0.5892
vn -0.541 0.0845 -0.8368
vn -0.2631 0.0453 -0.9637
vn -0.5425 0.086 -0.8356
vn -0.2402 0.0521 -0.9693
vn -0.2669 0.0525 -0.9623
vn -0.4075 0.0797 -0.9097
vn -0.2433 -0.1237 -0.962
vn -0.4821 0.0721 -0.8731
vn -0.2976 0.055 -0.9531
vn 0.1583 0.0074 -0.9874
vn -0.2976 0.055 -0.9531
vn -0.2433 -0.1237 -0.962
vn -0.3605 0.0552 -0.9311
vn 0.15 -0.0002 -0.9887
vn -0.3185 0.0561 -0.9463
vn -0.2976 0.055 -0.9531
vn -0.7581 0.1023 -0.644
vn -0.5125 0.0842 -0.8545
vn -0.7576 0.1007 -0.6449
vn -0.4821 0.0721 -0.8731
vn -0.3004 0.0388 -0.953
vn -0.3185 0.0561 -0.9463
vn -0.413 0.0675 -0.9082
vn -0.541 0.0845 -0.8368
vn -0.5367 0.0955 -0.8383
vn -0.4075 0.0797 -0.9097
vn -0.605 0.0962 -0.7904
vn -0.2545 0.0591 -0.9653
vn -0.2612 0.0496 -0.964
vn -0.4235 0.0881 -0.9016
vn -0.413 0.0675 -0.9082
vn -0.5367 0.0955 -0.8383
vn -0.5305 0.0867 -0.8433
vn -0.1751 0.0442 -0.9835
vn -0.4235 0.0881 -0.9016
vn -0.3259 0.07 -0.9428
vn -0.2612 0.0496 -0.964
vn -0.4878 0.0646 -0.8706
vn -0.7685 0.1233 -0.6278
vn -0.7408 0.1982 -0.6418
vn -0.5943 0.111 -0.7965
vn -0.5801 0.115 -0.8064
vn -0.4513 0.2832 -0.8462
vn -0.2806 0.139 -0.9497
vn -0.7408 0.1982 -0.6418
vn -0.3314 0.0936 -0.9388
vn -0.5801 0.115 -0.8064
vn -0.7036 0.3318 -0.6284
vn -0.7282 0.3027 -0.6149
vn -0.1908 0.0503 -0.9803
vn -0.3223 0.0596 -0.9448
vn -0.4235 0.0916 -0.9013
vn -0.4543 0.0693 -0.8882
vn -0.2717 0.0652 -0.9602
vn -0.2915 0.0737 -0.9537
vn -0.5801 0.115 -0.8064
vn -0.2914 0.0738 -0.9538
vn -0.3314 0.0936 -0.9388
vn -0.5943 0.111 -0.7965
vn -0.4735 0.0821 -0.877
vn -0.2783 0.3565 -0.8919
vn -0.3879 0.3789 -0.8402
vn -0.4513 0.2832 -0.8462
vn -0.2806 0.139 -0.9497
vn -0.0359 0.0966 -0.9947
vn -0.772 0.1094 -0.6261
vn -0.7706 0.1097 -0.6278
vn -0.7576 0.1007 -0.6449
vn -0.4859 0.0652 -0.8716
vn -0.4627 0.0838 -0.8826
vn -0.5432 0.086 -0.8352
vn -0.5125 0.0842 -0.8545
vn -0.605 0.0962 -0.7904
vn -0.541 0.0845 -0.8368
vn -0.5425 0.086 -0.8356
vn -0.5432 0.086 -0.8352
vn -0.772 0.1094 -0.6261
vn -0.765 0.1124 -0.6341
vn -0.0359 0.0966 -0.9947
vn -0.2783 0.3565 -0.8919
vn -0.1591 0.4383 -0.8847
vn 0.1541 0.004 -0.988
vn 0.1575 -0.0086 -0.9875
vn -0.0274 0.3013 -0.9531
vn -0.1741 0.4437 -0.8791
vn -0.413 0.0675 -0.9082
vn -0.2631 0.0453 -0.9637
vn -0.4075 0.0797 -0.9097
vn -0.1604 0.0414 -0.9862
vn -0.2545 0.0591 -0.9653
vn 0.3866 0.5288 -0.7556
vn -0.1591 0.4383 -0.8847
vn 0.4045 0.4359 -0.804
vn -0.0274 0.3013 -0.9531
vn 0.1338 0.711 -0.6903
vn 0.2386 0.2662 -0.9339
vn -0.3223 0.0596 -0.9448
vn -0.4235 0.0916 -0.9013
vn -0.4878 0.0646 -0.8706
vn -0.3259 0.07 -0.9428
vn -0.5435 0.0927 -0.8343
vn -0.4543 0.0693 -0.8882
vn -0.2914 0.0738 -0.9538
vn -0.2717 0.0652 -0.9602
vn -0.4735 0.0821 -0.877
vn -0.3605 0.0552 -0.9311
vn -0.4821 0.0721 -0.8731
vn -0.7682 0.0982 -0.6326
vn -0.7398 0.079 -0.6682
vn -0.7684 0.0994 -0.6322
vn -0.2433 -0.1237 -0.962
vn -0.2837 0.0677 -0.9565
vn -0.7581 0.1023 -0.644
vn -0.7398 0.079 -0.6682
vn -0.0636 -0.9618 0.2663
vn -0.0219 -0.9942 0.1052
vn -0.0139 -0.9996 0.0231
vn -0.2837 0.0677 -0.9565
vn 0.6887 0.2623 -0.676
vn 0.6848 0.6155 -0.3901
vn 0.8406 0.3773 -0.3885
vn 0.5444 0.7068 -0.4517
vn 0.5555 0.297 -0.7767
vn 0.3866 0.5288 -0.7556
vn 0.4045 0.4359 -0.804
vn 0.1541 0.004 -0.988
vn 0.2386 0.2662 -0.9339
vn 0.1514 0.0009 -0.9885
vn 0.4045 0.4359 -0.804
vn 0.1575 -0.0086 -0.9875
vn 0.137 0.0055 -0.9906
vn 0.5555 0.297 -0.7767
vn 0.1725 -0.0143 -0.9849
vn 0.4161 -0.0291 -0.9088
vn 0.148 0.001 -0.989
vn 0.5444 0.7068 -0.4517
vn 0.097 0.8383 -0.5366
vn 0.1338 0.711 -0.6903
vn 0.3866 0.5288 -0.7556
vn 0.1892 0.8546 -0.4836
vn 0.4375 0.7932 -0.4235
vn -0.0636 -0.9618 0.2663
vn -0.0219 -0.9942 0.1052
vn -0.0751 -0.8467 0.5268
vn 0.9342 -0.1092 -0.3397
vn 0.9318 -0.098 -0.3496
vn 0.7636 -0.0764 -0.6412
vn 0.1583 0.0074 -0.9874
vn 0.1645 0.0013 -0.9864
vn 0.151 0.0007 -0.9885
vn 0.4161 -0.0291 -0.9088
vn -0.0219 -0.9942 0.1052
vn 0.7018 -0.0667 -0.7093
vn 0.7636 -0.0764 -0.6412
vn 0.1607 0.0008 -0.987
vn -0.0139 -0.9996 0.0231
vn 0.1514 0.0009 -0.9885
vn 0.15 -0.0002 -0.9887
vn -0.1449 -0.4442 0.8841
vn -0.7695 0.0967 -0.6313
vn -0.1164 -0.7562 0.6439
vn -0.1446 -0.4413 0.8856
vn -0.7682 0.0982 -0.6326
vn -0.7684 0.0994 -0.6322
vn -0.1449 -0.4442 0.8841
vn -0.163 -0.0037 0.9866
vn -0.7695 0.0967 -0.6313
vn -0.7682 0.0982 -0.6326
vn -0.7695 0.0967 -0.6313
vn -0.1164 -0.7562 0.6439
vn -0.0751 -0.8467 0.5268
vn -0.0636 -0.9618 0.2663
vn -0.7398 0.079 -0.6682
vn 0.9342 -0.1092 -0.3397
vn -0.1446 -0.4413 0.8856
vn -0.0751 -0.8467 0.5268
vn -0.1164 -0.7562 0.6439
vn -0.1449 -0.4442 0.8841
vn -0.4543 0.0693 -0.8882
vn -0.4235 0.0916 -0.9013
vn -0.5943 0.111 -0.7965
vn -0.7638 0.1197 -0.6343
vn -0.7684 0.1234 -0.6279
vn -0.4735 0.0821 -0.877
vn -0.5435 0.0927 -0.8343
vn -0.7685 0.1233 -0.6278
vn -0.7626 0.1173 -0.6362
vn -0.4878 0.0646 -0.8706
vn -0.7638 0.1197 -0.6343
vn -0.4235 0.0881 -0.9016
vn -0.5435 0.0927 -0.8343
vn -0.5305 0.0867 -0.8433
vn -0.5926 0.5276 -0.6087
vn -0.1741 0.4437 -0.8791
vn -0.2783 0.3565 -0.8919
vn -0.4059 0.6986 -0.5892
vn -0.3879 0.3789 -0.8402
vn -0.4754 0.6637 -0.5775
vn -0.6108 0.5149 -0.6015
vn -0.3879 0.3789 -0.8402
vn -0.4513 0.2832 -0.8462
vn -0.5926 0.5276 -0.6087
vn -0.7036 0.3318 -0.6284
vn -0.605 0.0962 -0.7904
vn -0.5367 0.0955 -0.8383
vn -0.7626 0.1173 -0.6362
vn -0.5305 0.0867 -0.8433
vn -0.765 0.1124 -0.6341
vn 0.6848 0.6155 -0.3901
vn 0.3743 0.7987 -0.4712
vn 0.6675 0.6428 -0.3759
vn 0.4375 0.7932 -0.4235
vn 0.5444 0.7068 -0.4517
vn -0.0434 0.8539 -0.5187
vn 0.0617 0.8905 -0.4509
vn 0.1892 0.8546 -0.4836
vn 0.097 0.8383 -0.5366
f 14//14 25//25 28//28
f 31//31 65//65 18//18
f 37//37 69//69 32//32
f 50//50 68//68 35//35
f 56//56 72//72 53//53
f 79//79 60//60 84//84
f 75//75 67//67 64//64
f 321//321 77//77 80//80
f 19//19 43//43 23//23
f 12//12 66//66 45//45
f 13//13 44//44 40//40
f 165//165 303//303 89//89
f 134//134 313//313 169//169
f 94//94 304//304 135//135
f 286//286 96//96 107//107
f 290//290 103//103 111//111
f 288//288 112//112 118//118
f 237//237 281//281 116//116
f 238//238 123//123 285//285
f 283//283 312//312 98//98
f 102//102 310//310 124//124
f 128//128 305//305 90//90
f 119//119 109//109 210//210
f 176//176 130//130 136//136
f 137//137 139//139 91//91
f 95//95 143//143 144//144
f 164//164 171//171 166//166
f 262//262 175//175 163//163
f 177//177 138//138 170//170
f 359//359 182//182 228//228
f 229//229 179//179 156//156
f 197//197 202//202 211//211
f 201//201 115//115 213//213
f 256//256 346//346 340//340
f 339//339 215//215 260//260
f 196//196 214//214 336//336
f 356//356 218//218 198//198
f 133//133 131//131 141//141
f 199//199 219//219 120//120
f 129//129 225//225 140//140
f 220//220 234//234 117//117
f 142//142 224//224 148//148
f 158//158 147//147 230//230
f 92//92 146//146 159//159
f 355//355 352//352 217//217
f 350//350 235//235 216//216
f 160//160 126//126 93//93
f 181//181 243//243 161//161
f 157//157 242//242 127//127
f 241//241 178//178 186//186
f 360//360 187//187 180//180
f 247//247 236//236 154//154
f 150//150 240//240 349//349
f 121//121 239//239 249//249
f 227//227 132//132 173//173
f 347//347 188//188 362//362
f 192//192 100//100 184//184
f 231//231 145//145 226//226
f 190//190 185//185 345//345
f 193//193 343//343 254//254
f 125//125 244//244 101//101
f 252//252 206//206 105//105
f 335//335 207//207 253//253
f 208//208 334//334 257//257
f 99//99 189//189 104//104
f 258//258 212//212 110//110
f 245//245 183//183 97//97
f 255//255 108//108 191//191
f 259//259 113//113 209//209
f 106//106 205//205 114//114
f 267//267 87//87 273//273
f 261//261 168//168 86//86
f 162//162 167//167 266//266
f 274//274 6//6 8//8
f 294//294 279//279 246//246
f 251//251 282//282 122//122
f 278//278 11//11 287//287
f 151//151 293//293 250//250
f 280//280 284//284 248//248
f 5//5 302//302 309//309
f 10//10 3//3 308//308
f 289//289 9//9 306//306
f 320//320 314//314 333//333
f 317//317 330//330 78//78
f 272//272 88//88 311//311
f 271//271 307//307 298//298
f 327//327 270//270 297//297
f 326//326 299//299 331//331
f 316//316 325//325 332//332
f 39//39 204//204 54//54
f 221//221 62//62 232//232
f 58//58 222//222 85//85
f 83//83 223//223 174//174
f 268//268 82//82 172//172
f 200//200 195//195 55//55
f 81//81 265//265 319//319
f 322//322 324//324 315//315
f 263//263 323//323 318//318
f 269//269 328//328 264//264
f 52//52 338//338 59//59
f 194//194 341//341 51//51
f 337//337 344//344 63//63
f 155//155 351//351 16//16
f 17//17 353//353 34//34
f 342//342 361//361 61//61
f 33//33 354//354 38//38
f 348//348 357//357 30//30
f 358//358 203//203 36//36
f 363//363 233//233 57//57
f 364//364 47//47 275//275
f 368//368 277//277 291//291
f 370//370 29//29 20//20
f 152//152 26//26 369//369
f 21//21 367//367 296//296
f 366//366 42//42 48//48
f 22//22 41//41 365//365
f 372//372 292//292 153//153
f 371//371 24//24 295//295
f 49//49 1//1 276//276
f 46//46 70//70 4//4
f 149//149 15//15 27//27
f 74//74 7//7 71//71
f 301//301 2//2 73//73
f 329//329 300//300 76//76
