mtllib material_0.mtl
usemtl material_0
v -0.113081 -0.000754 0.071805
v -0.113081 -0.000754 0.071805
v -0.113738 -0.0004 0.071404
v -0.113738 -0.0004 0.071404
v -0.113738 -0.0004 0.071404
v -0.113738 -0.0004 0.071404
v -0.113319 -0.001126 0.071657
v -0.113319 -0.001126 0.071657
v -0.113319 -0.001126 0.071657
v -0.113885 -0.000608 0.07131
v -0.113885 -0.000608 0.07131
v -0.113885 -0.000608 0.07131
v -0.115198 8.6E-05 0.070446
v -0.115198 8.6E-05 0.070446
v -0.115198 8.6E-05 0.070446
v -0.115198 8.6E-05 0.070446
v -0.115915 -0.000241 0.069942
v -0.115915 -0.000241 0.069942
v -0.115915 -0.000241 0.069942
v -0.11518 -0.000203 0.070459
v -0.11518 -0.000203 0.070459
v -0.11518 -0.000203 0.070459
v -0.115753 -0.000771 0.070054
v -0.115753 -0.000771 0.070054
v -0.115753 -0.000771 0.070054
v -0.115068 -0.000482 0.070534
v -0.115068 -0.000482 0.070534
v -0.115068 -0.000482 0.070534
v -0.115497 -0.001159 0.070232
v -0.115497 -0.001159 0.070232
v -0.115497 -0.001159 0.070232
v -0.114854 -0.000714 0.070678
v -0.114854 -0.000714 0.070678
v -0.114854 -0.000714 0.070678
v -0.114854 -0.000714 0.070678
v -0.115228 -0.001394 0.070416
v -0.115228 -0.001394 0.070416
v -0.114829 -0.001601 0.070685
v -0.114829 -0.001601 0.070685
v -0.114829 -0.001601 0.070685
v -0.114561 -0.000842 0.070872
v -0.114561 -0.000842 0.070872
v -0.114561 -0.000842 0.070872
v -0.11428 -0.001647 0.071047
v -0.11428 -0.001647 0.071047
v -0.11428 -0.001647 0.071047
v -0.11428 -0.001647 0.071047
v -0.114317 -0.000841 0.071032
v -0.114317 -0.000841 0.071032
v -0.114079 -0.000765 0.071186
v -0.114079 -0.000765 0.071186
v -0.114079 -0.000765 0.071186
v -0.112922 -0.000223 0.071902
v -0.112922 -0.000223 0.071902
v -0.112922 -0.000223 0.071902
v -0.113652 -8.8E-05 0.071458
v -0.113652 -8.8E-05 0.071458
v -0.113652 -8.8E-05 0.071458
v -0.11375 -0.001488 0.071386
v -0.11375 -0.001488 0.071386
v -0.11375 -0.001488 0.071386
v -0.114146 0.000797 0.071143
v -0.114146 0.000797 0.071143
v -0.114146 0.000797 0.071143
v -0.11352 0.001324 0.071532
v -0.11352 0.001324 0.071532
v -0.11352 0.001324 0.071532
v -0.114008 0.001597 0.071222
v -0.114008 0.001597 0.071222
v -0.114008 0.001597 0.071222
v -0.113826 0.000554 0.071347
v -0.113826 0.000554 0.071347
v -0.113826 0.000554 0.071347
v -0.113826 0.000554 0.071347
v -0.113283 0.001076 0.07168
v -0.113283 0.001076 0.07168
v -0.113094 0.000783 0.071796
v -0.113094 0.000783 0.071796
v -0.113094 0.000783 0.071796
v -0.113671 0.000203 0.071446
v -0.113671 0.000203 0.071446
v -0.113671 0.000203 0.071446
v -0.112946 0.00034 0.071887
v -0.112946 0.00034 0.071887
v -0.112946 0.00034 0.071887
v -0.114913 0.000667 0.070639
v -0.114913 0.000667 0.070639
v -0.114913 0.000667 0.070639
v -0.114913 0.000667 0.070639
v -0.115319 0.00133 0.070355
v -0.115319 0.00133 0.070355
v -0.115616 0.001007 0.07015
v -0.115616 0.001007 0.07015
v -0.115616 0.001007 0.07015
v -0.115115 0.000396 0.070503
v -0.115115 0.000396 0.070503
v -0.115115 0.000396 0.070503
v -0.11496 0.001545 0.070597
v -0.11496 0.001545 0.070597
v -0.11496 0.001545 0.070597
v -0.115817 0.000617 0.070009
v -0.115817 0.000617 0.070009
v -0.115817 0.000617 0.070009
v -0.114625 0.000826 0.07083
v -0.114625 0.000826 0.07083
v -0.114625 0.000826 0.07083
v -0.114558 0.001648 0.070865
v -0.114558 0.001648 0.070865
v -0.114558 0.001648 0.070865
v -0.115909 0.000233 0.069946
v -0.115909 0.000233 0.069946
v -0.114384 0.000849 0.070989
v -0.114384 0.000849 0.070989
v -0.114384 0.000849 0.070989
vn -0.5211 -0.0002 0.8535
vn -0.5228 -0.0047 0.8524
vn -0.5202 -0.0059 0.854
vn -0.5211 -0.0002 0.8535
vn -0.5228 -0.0047 0.8524
vn -0.5272 -0.0082 0.8497
vn -0.5272 -0.0082 0.8497
vn -0.5269 -0.0077 0.8499
vn -0.5228 -0.0047 0.8524
vn -0.5272 -0.0082 0.8497
vn -0.534 -0.0092 0.8455
vn -0.5269 -0.0077 0.8499
vn -0.5759 0.0006 0.8175
vn -0.5759 0.0011 0.8176
vn -0.5733 0.0056 0.8194
vn -0.5753 -0.0015 0.818
vn -0.5753 -0.0019 0.818
vn -0.5753 -0.0015 0.818
vn -0.5759 0.0006 0.8175
vn -0.5718 -0.0071 0.8204
vn -0.5753 -0.0019 0.818
vn -0.5753 -0.0015 0.818
vn -0.5732 -0.0021 0.8194
vn -0.5753 -0.0019 0.818
vn -0.5718 -0.0071 0.8204
vn -0.5732 -0.0021 0.8194
vn -0.5651 -0.0098 0.825
vn -0.5718 -0.0071 0.8204
vn -0.5675 -0.0046 0.8233
vn -0.5651 -0.0098 0.825
vn -0.5732 -0.0021 0.8194
vn -0.562 -0.0091 0.8271
vn -0.555 -0.0088 0.8318
vn -0.5675 -0.0046 0.8233
vn -0.5651 -0.0098 0.825
vn -0.5675 -0.0046 0.8233
vn -0.562 -0.0091 0.8271
vn -0.562 -0.0091 0.8271
vn -0.555 -0.0088 0.8318
vn -0.5507 -0.011 0.8346
vn -0.5483 -0.0099 0.8362
vn -0.555 -0.0088 0.8318
vn -0.5507 -0.011 0.8346
vn -0.5369 -0.011 0.8436
vn -0.5414 -0.0095 0.8407
vn -0.5507 -0.011 0.8346
vn -0.5483 -0.0099 0.8362
vn -0.5483 -0.0099 0.8362
vn -0.5414 -0.0095 0.8407
vn -0.5414 -0.0095 0.8407
vn -0.5369 -0.011 0.8436
vn -0.534 -0.0092 0.8455
vn -0.5202 -0.0059 0.854
vn -0.5211 -0.0002 0.8535
vn -0.5193 0.0005 0.8546
vn -0.5193 0.0005 0.8546
vn -0.5197 0.0012 0.8544
vn -0.5202 -0.0059 0.854
vn -0.534 -0.0092 0.8455
vn -0.5269 -0.0077 0.8499
vn -0.5369 -0.011 0.8436
vn -0.5336 0.0097 0.8457
vn -0.5433 0.0108 0.8395
vn -0.5328 0.0083 0.8462
vn -0.5336 0.0097 0.8457
vn -0.5251 0.0049 0.851
vn -0.5328 0.0083 0.8462
vn -0.5438 0.0111 0.8391
vn -0.5328 0.0083 0.8462
vn -0.5433 0.0108 0.8395
vn -0.5251 0.0049 0.851
vn -0.5231 0.002 0.8523
vn -0.5336 0.0097 0.8457
vn -0.5243 0.0074 0.8515
vn -0.5231 0.002 0.8523
vn -0.5251 0.0049 0.851
vn -0.5196 0.001 0.8544
vn -0.5243 0.0074 0.8515
vn -0.5231 0.002 0.8523
vn -0.5196 0.001 0.8544
vn -0.5197 0.0012 0.8544
vn -0.5243 0.0074 0.8515
vn -0.5196 0.001 0.8544
vn -0.5193 0.0005 0.8546
vn -0.5197 0.0012 0.8544
vn -0.5632 0.0083 0.8263
vn -0.5672 0.0097 0.8235
vn -0.5575 0.0089 0.8301
vn -0.5696 0.0025 0.8219
vn -0.5632 0.0083 0.8263
vn -0.5696 0.0025 0.8219
vn -0.5672 0.0097 0.8235
vn -0.5742 0.0013 0.8187
vn -0.5696 0.0025 0.8219
vn -0.5742 0.0013 0.8187
vn -0.5733 0.0056 0.8194
vn -0.5672 0.0097 0.8235
vn -0.556 0.0098 0.8311
vn -0.5575 0.0089 0.8301
vn -0.5632 0.0083 0.8263
vn -0.5742 0.0013 0.8187
vn -0.5733 0.0056 0.8194
vn -0.5759 0.0011 0.8176
vn -0.5499 0.0092 0.8352
vn -0.556 0.0098 0.8311
vn -0.5575 0.0089 0.8301
vn -0.5438 0.0111 0.8391
vn -0.5499 0.0092 0.8352
vn -0.556 0.0098 0.8311
vn -0.5759 0.0011 0.8176
vn -0.5759 0.0006 0.8175
vn -0.5438 0.0111 0.8391
vn -0.5499 0.0092 0.8352
vn -0.5433 0.0108 0.8395
f 8//8 12//12 60//60
f 9//9 2//2 5//5
f 7//7 6//6 10//10
f 22//22 16//16 18//18
f 21//21 17//17 24//24
f 28//28 20//20 25//25
f 31//31 26//26 23//23
f 35//35 27//27 30//30
f 36//36 34//34 29//29
f 38//38 32//32 37//37
f 39//39 42//42 33//33
f 47//47 48//48 41//41
f 46//46 43//43 40//40
f 45//45 50//50 49//49
f 61//61 51//51 44//44
f 53//53 58//58 3//3
f 1//1 54//54 4//4
f 59//59 11//11 52//52
f 64//64 67//67 69//69
f 73//73 65//65 62//62
f 76//76 66//66 71//71
f 79//79 75//75 72//72
f 78//78 74//74 82//82
f 83//83 77//77 80//80
f 85//85 81//81 57//57
f 55//55 84//84 56//56
f 89//89 91//91 94//94
f 97//97 87//87 92//92
f 86//86 100//100 90//90
f 95//95 93//93 101//101
f 105//105 109//109 98//98
f 106//106 99//99 88//88
f 14//14 103//103 110//110
f 15//15 96//96 102//102
f 13//13 111//111 19//19
f 112//112 68//68 107//107
f 113//113 108//108 104//104
f 63//63 70//70 114//114
