mtllib material_0.mtl
usemtl material_0
v -0.081098 -0.034034 0.073796
v -0.081098 -0.034034 0.073796
v -0.102323 -0.031108 0.069633
v -0.102323 -0.031108 0.069633
v -0.085901 -0.034575 0.072864
v -0.085901 -0.034575 0.072864
v -0.091242 -0.034404 0.071823
v -0.091242 -0.034404 0.071823
v -0.107334 -0.027927 0.06863
v -0.107334 -0.027927 0.06863
v -0.111189 -0.024508 0.068027
v -0.111189 -0.024508 0.068027
v -0.111189 -0.024508 0.068027
v -0.061418 -0.022321 0.077559
v -0.061418 -0.022321 0.077559
v -0.065191 -0.026222 0.076842
v -0.065191 -0.026222 0.076842
v -0.06906 -0.029154 0.076107
v -0.06906 -0.029154 0.076107
v -0.07443 -0.032081 0.075079
v -0.07443 -0.032081 0.075079
v -0.053592 -1E-06 0.079162
v -0.053592 -1E-06 0.079162
v -0.053592 -1E-06 0.079162
v -0.053592 -1E-06 0.079162
v -0.053592 -1E-06 0.079162
v -0.053592 -1E-06 0.079162
v -0.053592 -1E-06 0.079162
v -0.053592 -1E-06 0.079162
v -0.053592 -1E-06 0.079162
v -0.053592 -1E-06 0.079162
v -0.053592 -1E-06 0.079162
v -0.053592 -1E-06 0.079162
v -0.053592 -1E-06 0.079162
v -0.053592 -1E-06 0.079162
v -0.053592 -1E-06 0.079162
v -0.096594 -0.033297 0.070774
v -0.096594 -0.033297 0.070774
v -0.058602 -0.018376 0.078095
v -0.058602 -0.018376 0.078095
v -0.056 -0.013329 0.078598
v -0.056 -0.013329 0.078598
v -0.054223 -0.007587 0.078937
v -0.054223 -0.007587 0.078937
v -0.053578 -0.003406 0.079063
v -0.114804 0 0.066793
v -0.114804 0 0.066793
v -0.114804 0 0.066793
v -0.114804 0 0.066793
v -0.118293 -0.017174 0.064907
v -0.118293 -0.017174 0.064907
v -0.122156 -0.011141 0.062151
v -0.122156 -0.011141 0.062151
v -0.123854 -1E-06 0.060933
v -0.123854 -1E-06 0.060933
v -0.123854 -1E-06 0.060933
v -0.123854 -1E-06 0.060933
v -0.123854 -1E-06 0.060933
v -0.120613 -0.014124 0.063185
v -0.120613 -0.014124 0.063185
v -0.120613 -0.014124 0.063185
v -0.123525 -0.004217 0.061287
v -0.123525 -0.004217 0.061287
v -0.123132 -0.007021 0.061523
v -0.123132 -0.007021 0.061523
v -0.123615 -0.004093 0.061148
v -0.053537 -1E-06 0.07862
v -0.053537 -1E-06 0.07862
v -0.053537 -1E-06 0.07862
v -0.053537 -1E-06 0.07862
v -0.053537 -1E-06 0.07862
v -0.053537 -1E-06 0.07862
v -0.053537 -1E-06 0.07862
v -0.053537 -1E-06 0.07862
v -0.053537 -1E-06 0.07862
v -0.062104 0.023317 0.077302
v -0.062104 0.023317 0.077302
v -0.075219 0.03236 0.07478
v -0.075219 0.03236 0.07478
v -0.05712 0.016042 0.078293
v -0.05712 0.016042 0.078293
v -0.054461 0.008963 0.078798
v -0.054461 0.008963 0.078798
v -0.053603 0.004321 0.078974
v -0.070743 0.030215 0.075654
v -0.070743 0.030215 0.075654
v -0.088647 0.034636 0.072255
v -0.088647 0.034636 0.072255
v -0.088647 0.034636 0.072255
v -0.081142 0.034067 0.073617
v -0.081142 0.034067 0.073617
v -0.066992 0.027744 0.076382
v -0.066992 0.027744 0.076382
v -0.109866 0.025919 0.068005
v -0.109866 0.025919 0.068005
v -0.10517 0.029434 0.068969
v -0.10517 0.029434 0.068969
v -0.101277 0.031548 0.069739
v -0.101277 0.031548 0.069739
v -0.096058 0.033469 0.070784
v -0.096058 0.033469 0.070784
v -0.123858 0 0.060833
v -0.123858 0 0.060833
v -0.123858 0 0.060833
v -0.121998 0.012003 0.062179
v -0.121998 0.012003 0.062179
v -0.121998 0.012003 0.062179
v -0.113795 0.02181 0.067093
v -0.113795 0.02181 0.067093
v -0.119386 0.01602 0.063981
v -0.119386 0.01602 0.063981
v -0.114984 0 0.066652
v -0.114984 0 0.066652
v -0.114984 0 0.066652
v -0.114984 0 0.066652
v -0.114984 0 0.066652
v -0.114984 0 0.066652
v -0.114984 0 0.066652
v -0.114984 0 0.066652
v -0.114984 0 0.066652
v -0.123661 0.003531 0.060972
v -0.123066 0.008015 0.061483
v -0.123066 0.008015 0.061483
vn -0.1904 -0.0009 0.9817
vn -0.1882 -0.0027 0.9821
vn -0.194 0.0034 0.981
vn -0.1941 0.0036 0.981
vn -0.1912 -0.0001 0.9816
vn -0.1904 -0.0009 0.9817
vn -0.1912 -0.0001 0.9816
vn -0.1922 0.001 0.9814
vn -0.1941 0.0036 0.981
vn -0.1784 -0.0277 0.9836
vn -0.4155 -0.0155 0.9095
vn -0.1784 -0.0277 0.9836
vn -0.198 0.0201 0.98
vn -0.1734 -0.0099 0.9848
vn -0.1787 -0.008 0.9839
vn -0.182 -0.0065 0.9833
vn -0.1787 -0.008 0.9839
vn -0.1857 -0.0045 0.9826
vn -0.182 -0.0065 0.9833
vn -0.1882 -0.0027 0.9821
vn -0.1857 -0.0045 0.9826
vn -0.1734 -0.0099 0.9848
vn -0.1904 -0.0009 0.9817
vn -0.1687 -0.0112 0.9856
vn -0.129 -0.0187 0.9915
vn -0.0079 -0.029 0.9995
vn -0.194 0.0034 0.981
vn -0.198 0.0201 0.98
vn -0.1941 0.0036 0.981
vn -0.1912 -0.0001 0.9816
vn -0.1857 -0.0045 0.9826
vn -0.1784 -0.0277 0.9836
vn -0.1882 -0.0027 0.9821
vn -0.182 -0.0065 0.9833
vn -0.1922 0.001 0.9814
vn -0.1787 -0.008 0.9839
vn -0.194 0.0034 0.981
vn -0.1922 0.001 0.9814
vn -0.1734 -0.0099 0.9848
vn -0.1687 -0.0112 0.9856
vn -0.1687 -0.0112 0.9856
vn -0.129 -0.0187 0.9915
vn -0.0079 -0.029 0.9995
vn -0.129 -0.0187 0.9915
vn -0.0079 -0.029 0.9995
vn -0.198 0.0201 0.98
vn -0.4155 -0.0155 0.9095
vn -0.5435 0.0091 0.8393
vn -0.5732 0.0265 0.819
vn -0.4155 -0.0155 0.9095
vn -0.5732 0.0265 0.819
vn -0.4553 0.0279 0.8899
vn -0.545 0.0086 0.8384
vn -0.8454 -0.0213 0.5336
vn -0.0057 0.0831 0.9965
vn -0.4553 0.0279 0.8899
vn -0.545 0.0086 0.8384
vn -0.5435 0.0091 0.8393
vn -0.5732 0.0265 0.819
vn -0.5435 0.0091 0.8393
vn -0.545 0.0086 0.8384
vn -0.0057 0.0831 0.9965
vn -0.8454 -0.0213 0.5336
vn -0.0057 0.0831 0.9965
vn -0.4553 0.0279 0.8899
vn -0.8454 -0.0213 0.5336
vn -0.2434 -0.0346 0.9693
vn -0.1786 -0.0002 0.9839
vn -0.5757 -0.0755 0.8142
vn -0.2026 -0.0193 0.9791
vn -0.197 -0.0157 0.9803
vn -0.2011 -0.0185 0.9794
vn -0.1996 -0.0175 0.9797
vn -0.3163 -0.0514 0.9473
vn -0.1912 -0.0134 0.9815
vn -0.2434 -0.0346 0.9693
vn -0.2011 -0.0185 0.9794
vn -0.197 -0.0157 0.9803
vn -0.1996 -0.0175 0.9797
vn -0.3163 -0.0514 0.9473
vn -0.2434 -0.0346 0.9693
vn -0.5757 -0.0755 0.8142
vn -0.3163 -0.0514 0.9473
vn -0.5757 -0.0755 0.8142
vn -0.2026 -0.0193 0.9791
vn -0.1996 -0.0175 0.9797
vn -0.1786 -0.0002 0.9839
vn -0.1929 -0.012 0.9811
vn -0.1912 -0.0134 0.9815
vn -0.1786 -0.0002 0.9839
vn -0.197 -0.0157 0.9803
vn -0.2026 -0.0193 0.9791
vn -0.2011 -0.0185 0.9794
vn -0.2182 -0.0078 0.9759
vn -0.1917 -0.0134 0.9814
vn -0.1859 -0.0154 0.9825
vn -0.1917 -0.0134 0.9814
vn -0.1918 -0.0127 0.9814
vn -0.1859 -0.0154 0.9825
vn -0.1929 -0.012 0.9811
vn -0.1918 -0.0127 0.9814
vn -0.5484 -0.0088 0.8362
vn -0.6961 0.0106 0.7178
vn -0.4835 -0.0232 0.8751
vn -0.4835 -0.0232 0.8751
vn -0.5539 -0.0134 0.8325
vn -0.5484 -0.0088 0.8362
vn -0.2182 -0.0078 0.9759
vn -0.4937 0.0094 0.8696
vn -0.5539 -0.0134 0.8325
vn -0.4937 0.0094 0.8696
vn -0.2182 -0.0078 0.9759
vn -0.5484 -0.0088 0.8362
vn -0.1917 -0.0134 0.9814
vn -0.4937 0.0094 0.8696
vn -0.5539 -0.0134 0.8325
vn -0.1929 -0.012 0.9811
vn -0.1918 -0.0127 0.9814
vn -0.1859 -0.0154 0.9825
vn -0.1912 -0.0134 0.9815
vn -0.6961 0.0106 0.7178
vn -0.4835 -0.0232 0.8751
vn -0.6961 0.0106 0.7178
f 37//37 27//27 3//3
f 13//13 28//28 46//46
f 36//36 17//17 15//15
f 8//8 35//35 38//38
f 19//19 16//16 34//34
f 33//33 2//2 20//20
f 12//12 10//10 32//32
f 21//21 18//18 31//31
f 5//5 30//30 7//7
f 4//4 29//29 9//9
f 1//1 23//23 6//6
f 39//39 22//22 14//14
f 41//41 24//24 40//40
f 25//25 42//42 44//44
f 43//43 45//45 26//26
f 47//47 50//50 11//11
f 58//58 60//60 48//48
f 57//57 53//53 61//61
f 49//49 59//59 51//51
f 55//55 62//62 64//64
f 56//56 65//65 52//52
f 63//63 54//54 66//66
f 80//80 74//74 83//83
f 93//93 72//72 77//77
f 71//71 78//78 91//91
f 92//92 85//85 70//70
f 68//68 90//90 87//87
f 79//79 73//73 86//86
f 67//67 81//81 76//76
f 82//82 69//69 84//84
f 101//101 98//98 118//118
f 96//96 119//119 99//99
f 95//95 114//114 97//97
f 89//89 120//120 75//75
f 100//100 117//117 88//88
f 106//106 116//116 110//110
f 115//115 109//109 111//111
f 107//107 102//102 113//113
f 108//108 112//112 94//94
f 122//122 104//104 105//105
f 103//103 123//123 121//121
