mtllib material_0.mtl
usemtl material_0
v -0.089107 -0.009464 0.07708
v -0.089107 -0.009464 0.07708
v -0.088962 -0.009198 0.077413
v -0.088962 -0.009198 0.077413
v -0.088962 -0.009198 0.077413
v -0.088962 -0.009198 0.077413
v -0.088962 -0.009198 0.077413
v -0.088962 -0.009198 0.077413
v -0.088962 -0.009198 0.077413
v -0.088962 -0.009198 0.077413
v -0.089169 -0.011949 0.077402
v -0.089169 -0.011949 0.077402
v -0.089169 -0.011949 0.077402
v -0.088969 -0.012075 0.077814
v -0.088969 -0.012075 0.077814
v -0.088969 -0.012075 0.077814
v -0.088969 -0.012075 0.077814
v -0.088969 -0.012075 0.077814
v -0.088969 -0.012075 0.077814
v -0.087188 -0.011971 0.077754
v -0.087188 -0.011971 0.077754
v -0.087188 -0.011971 0.077754
v -0.088236 -0.012386 0.078119
v -0.088236 -0.012386 0.078119
v -0.088236 -0.012386 0.078119
v -0.088236 -0.012386 0.078119
v -0.088236 -0.012386 0.078119
v -0.088236 -0.012386 0.078119
v -0.088115 -0.011881 0.078235
v -0.088115 -0.011881 0.078235
v -0.088115 -0.011881 0.078235
v -0.088115 -0.011881 0.078235
v -0.088115 -0.011881 0.078235
v -0.088115 -0.011881 0.078235
v -0.087687 -0.012267 0.078106
v -0.087687 -0.012267 0.078106
v -0.087687 -0.012267 0.078106
v -0.087687 -0.012267 0.078106
v -0.087687 -0.012267 0.078106
v -0.087687 -0.012267 0.078106
v -0.087687 -0.012267 0.078106
v -0.087687 -0.012267 0.078106
v -0.08789 -0.012776 0.077747
v -0.08789 -0.012776 0.077747
v -0.08789 -0.012776 0.077747
v -0.087601 -0.0126 0.077763
v -0.087601 -0.0126 0.077763
v -0.087337 -0.012321 0.077771
v -0.087337 -0.012321 0.077771
v -0.089016 -0.012353 0.077478
v -0.089016 -0.012353 0.077478
v -0.089016 -0.012353 0.077478
v -0.088671 -0.012678 0.077586
v -0.088671 -0.012678 0.077586
v -0.088708 -0.012387 0.077922
v -0.088708 -0.012387 0.077922
v -0.088708 -0.012387 0.077922
v -0.088708 -0.012387 0.077922
v -0.088708 -0.012387 0.077922
v -0.088708 -0.012387 0.077922
v -0.088334 -0.012807 0.07767
v -0.088334 -0.012807 0.07767
v -0.088334 -0.012807 0.07767
v -0.088536 -0.011947 0.07815
v -0.088536 -0.011947 0.07815
v -0.088536 -0.011947 0.07815
v -0.088536 -0.011947 0.07815
v -0.088536 -0.011947 0.07815
v -0.087845 -0.011814 0.0782
v -0.087845 -0.011814 0.0782
v -0.087845 -0.011814 0.0782
v -0.087845 -0.011814 0.0782
v -0.087845 -0.011814 0.0782
v -0.087143 -0.010686 0.077589
v -0.087143 -0.010686 0.077589
v -0.087143 -0.010686 0.077589
v -0.087531 -0.011792 0.078076
v -0.087531 -0.011792 0.078076
v -0.087531 -0.011792 0.078076
v -0.087531 -0.011792 0.078076
v -0.087531 -0.011792 0.078076
v -0.087531 -0.011792 0.078076
v -0.087334 -0.009162 0.077618
v -0.087334 -0.009162 0.077618
v -0.087334 -0.009162 0.077618
v -0.087334 -0.009162 0.077618
v -0.087334 -0.009162 0.077618
v -0.087334 -0.009162 0.077618
v -0.087144 -0.00927 0.077411
v -0.087144 -0.00927 0.077411
v -0.087692 -0.009126 0.077828
v -0.087692 -0.009126 0.077828
v -0.087692 -0.009126 0.077828
v -0.087692 -0.009126 0.077828
v -0.087692 -0.009126 0.077828
v -0.087692 -0.009126 0.077828
v -0.087692 -0.009126 0.077828
v -0.088032 -0.009247 0.077902
v -0.088032 -0.009247 0.077902
v -0.088032 -0.009247 0.077902
v -0.088032 -0.009247 0.077902
v -0.088032 -0.009247 0.077902
v -0.088032 -0.009247 0.077902
v -0.088717 -0.009312 0.077699
v -0.088717 -0.009312 0.077699
v -0.088717 -0.009312 0.077699
v -0.088717 -0.009312 0.077699
v -0.088717 -0.009312 0.077699
v -0.088717 -0.009312 0.077699
v -0.088717 -0.009312 0.077699
v -0.088401 -0.009257 0.07785
v -0.088401 -0.009257 0.07785
v -0.088401 -0.009257 0.07785
v -0.087356 -0.008859 0.077323
v -0.087356 -0.008859 0.077323
v -0.087655 -0.00858 0.07725
v -0.087655 -0.00858 0.07725
v -0.087655 -0.00858 0.07725
v -0.087655 -0.00858 0.07725
v -0.088011 -0.008737 0.077614
v -0.088011 -0.008737 0.077614
v -0.088011 -0.008737 0.077614
v -0.088011 -0.008737 0.077614
v -0.088011 -0.008737 0.077614
v -0.08853 -0.00868 0.077358
v -0.08853 -0.00868 0.077358
v -0.08853 -0.00868 0.077358
v -0.08853 -0.00868 0.077358
v -0.08853 -0.00868 0.077358
v -0.08853 -0.00868 0.077358
v -0.088445 -0.008957 0.077716
v -0.088445 -0.008957 0.077716
v -0.088445 -0.008957 0.077716
v -0.088445 -0.008957 0.077716
v -0.088445 -0.008957 0.077716
v -0.088445 -0.008957 0.077716
v -0.088445 -0.008957 0.077716
v -0.088022 -0.008484 0.077174
v -0.088022 -0.008484 0.077174
v -0.088022 -0.008484 0.077174
v -0.088401 -0.008539 0.077105
v -0.088401 -0.008539 0.077105
v -0.088735 -0.008727 0.077067
v -0.088735 -0.008727 0.077067
v -0.088735 -0.008727 0.077067
v -0.08897 -0.009004 0.077057
v -0.08897 -0.009004 0.077057
vn -0.9408 0.2877 0.1791
vn -0.9341 0.0689 0.3504
vn -0.5969 0.5578 0.5766
vn -0.9408 0.2877 0.1791
vn -0.9341 0.0689 0.3504
vn -0.8893 0.0651 0.4527
vn -0.5962 0.4257 0.6807
vn -0.7206 0.6014 0.3451
vn -0.7368 0.0949 0.6694
vn -0.6895 0.6145 0.3833
vn -0.9341 0.0689 0.3504
vn -0.8893 0.0651 0.4527
vn -0.8951 -0.2743 0.3516
vn -0.8951 -0.2743 0.3516
vn -0.7474 -0.4573 0.482
vn -0.6273 0.0893 0.7737
vn -0.8893 0.0651 0.4527
vn -0.7368 0.0949 0.6694
vn -0.5653 -0.1934 0.8019
vn 0.651 -0.2413 0.7197
vn 0.7018 0.0664 0.7093
vn 0.6308 -0.1599 0.7593
vn 0.0748 -0.2397 0.968
vn 0.1502 -0.6099 0.7781
vn -0.3659 -0.3108 0.8772
vn -0.0693 -0.7206 0.6898
vn -0.1674 -0.1818 0.969
vn -0.2859 -0.6678 0.6873
vn 0.0748 -0.2397 0.968
vn -0.218 0.1501 0.9643
vn 0.0981 0.1218 0.9877
vn -0.2928 0.1291 0.9474
vn 0.1629 -0.1447 0.976
vn -0.1674 -0.1818 0.969
vn 0.1502 -0.6099 0.7781
vn 0.0748 -0.2397 0.968
vn 0.3445 -0.6295 0.6965
vn 0.3693 -0.0629 0.9272
vn 0.651 -0.2413 0.7197
vn 0.6308 -0.1599 0.7593
vn 0.541 -0.5318 0.6515
vn 0.1629 -0.1447 0.976
vn 0.1502 -0.6099 0.7781
vn 0.3445 -0.6295 0.6965
vn -0.0693 -0.7206 0.6898
vn 0.541 -0.5318 0.6515
vn 0.3445 -0.6295 0.6965
vn 0.651 -0.2413 0.7197
vn 0.541 -0.5318 0.6515
vn -0.7474 -0.4573 0.482
vn -0.687 -0.5855 0.4304
vn -0.8951 -0.2743 0.3516
vn -0.4134 -0.7106 0.5693
vn -0.687 -0.5855 0.4304
vn -0.2859 -0.6678 0.6873
vn -0.5653 -0.1934 0.8019
vn -0.3659 -0.3108 0.8772
vn -0.4134 -0.7106 0.5693
vn -0.7474 -0.4573 0.482
vn -0.687 -0.5855 0.4304
vn -0.0693 -0.7206 0.6898
vn -0.4134 -0.7106 0.5693
vn -0.2859 -0.6678 0.6873
vn -0.3659 -0.3108 0.8772
vn -0.1674 -0.1818 0.969
vn -0.5653 -0.1934 0.8019
vn -0.218 0.1501 0.9643
vn -0.6273 0.0893 0.7737
vn 0.3574 0.1082 0.9277
vn 0.1691 0.1258 0.9775
vn 0.0981 0.1218 0.9877
vn 0.3693 -0.0629 0.9272
vn 0.1629 -0.1447 0.976
vn 0.7558 0.0822 0.6497
vn 0.7018 0.0664 0.7093
vn 0.6929 0.073 0.7173
vn 0.6308 -0.1599 0.7593
vn 0.7018 0.0664 0.7093
vn 0.3574 0.1082 0.9277
vn 0.5092 0.1105 0.8535
vn 0.6929 0.073 0.7173
vn 0.3693 -0.0629 0.9272
vn 0.7561 0.4848 0.4396
vn 0.446 0.6416 0.6241
vn 0.6929 0.073 0.7173
vn 0.4337 0.6408 0.6335
vn 0.5092 0.1105 0.8535
vn 0.7558 0.0822 0.6497
vn 0.7561 0.4848 0.4396
vn 0.7558 0.0822 0.6497
vn 0.1691 0.1258 0.9775
vn -0.0281 0.4625 0.8862
vn 0.3574 0.1082 0.9277
vn 0.374 0.6619 0.6496
vn 0.4337 0.6408 0.6335
vn 0.5092 0.1105 0.8535
vn -0.0056 0.5351 0.8447
vn -0.1378 0.3892 0.9108
vn -0.0056 0.5351 0.8447
vn -0.0303 -0.9171 0.3976
vn 0.0981 0.1218 0.9877
vn -0.2928 0.1291 0.9474
vn 0.1691 0.1258 0.9775
vn -0.218 0.1501 0.9643
vn -0.7368 0.0949 0.6694
vn -0.2928 0.1291 0.9474
vn -0.6273 0.0893 0.7737
vn -0.4542 0.3095 0.8354
vn -0.0303 -0.9171 0.3976
vn -0.5962 0.4257 0.6807
vn -0.1378 0.3892 0.9108
vn -0.0303 -0.9171 0.3976
vn -0.4542 0.3095 0.8354
vn 0.446 0.6416 0.6241
vn 0.7561 0.4848 0.4396
vn 0.1253 0.8614 0.4923
vn 0.4337 0.6408 0.6335
vn 0.374 0.6619 0.6496
vn 0.446 0.6416 0.6241
vn -0.0281 0.4625 0.8862
vn -0.2296 0.7412 0.6308
vn 0.1253 0.8614 0.4923
vn -0.1504 0.8555 0.4954
vn 0.374 0.6619 0.6496
vn -0.1504 0.8555 0.4954
vn -0.5969 0.5578 0.5766
vn -0.4971 0.8416 0.2111
vn -0.2296 0.7412 0.6308
vn -0.6895 0.6145 0.3833
vn -0.2036 0.897 0.3923
vn -0.5962 0.4257 0.6807
vn -0.4542 0.3095 0.8354
vn -0.1378 0.3892 0.9108
vn -0.0056 0.5351 0.8447
vn -0.2296 0.7412 0.6308
vn -0.0281 0.4625 0.8862
vn -0.5969 0.5578 0.5766
vn 0.1253 0.8614 0.4923
vn -0.1504 0.8555 0.4954
vn -0.2036 0.897 0.3923
vn -0.2036 0.897 0.3923
vn -0.4971 0.8416 0.2111
vn -0.4971 0.8416 0.2111
vn -0.7206 0.6014 0.3451
vn -0.6895 0.6145 0.3833
vn -0.7206 0.6014 0.3451
vn -0.9408 0.2877 0.1791
f 112//112 109//109 100//100
f 2//2 11//11 5//5
f 17//17 6//6 12//12
f 68//68 107//107 16//16
f 18//18 105//105 9//9
f 30//30 104//104 67//67
f 102//102 106//106 32//32
f 27//27 34//34 65//65
f 42//42 73//73 33//33
f 47//47 37//37 44//44
f 43//43 35//35 24//24
f 49//49 41//41 46//46
f 52//52 14//14 13//13
f 20//20 39//39 48//48
f 54//54 60//60 51//51
f 50//50 59//59 15//15
f 53//53 62//62 58//58
f 22//22 77//77 40//40
f 36//36 29//29 23//23
f 82//82 72//72 38//38
f 56//56 66//66 19//19
f 63//63 28//28 55//55
f 45//45 26//26 61//61
f 57//57 25//25 64//64
f 31//31 71//71 101//101
f 75//75 78//78 21//21
f 88//88 74//74 90//90
f 96//96 80//80 87//87
f 85//85 81//81 76//76
f 103//103 70//70 91//91
f 93//93 69//69 79//79
f 7//7 110//110 131//131
f 115//115 83//83 89//89
f 86//86 117//117 95//95
f 94//94 118//118 124//124
f 139//139 125//125 123//123
f 92//92 120//120 136//136
f 128//128 135//135 121//121
f 134//134 99//99 97//97
f 111//111 98//98 133//133
f 114//114 119//119 84//84
f 113//113 132//132 108//108
f 138//138 122//122 116//116
f 141//141 130//130 140//140
f 143//143 127//127 142//142
f 146//146 8//8 144//144
f 145//145 10//10 129//129
f 1//1 4//4 147//147
f 3//3 137//137 126//126
