mtllib material_0.mtl
usemtl material_0
v -0.087385 -0.026197 0.077346
v -0.087385 -0.026197 0.077346
v -0.087385 -0.026197 0.077346
v -0.088156 -0.026124 0.077226
v -0.088156 -0.026124 0.077226
v -0.088156 -0.026124 0.077226
v -0.088156 -0.026124 0.077226
v -0.087716 -0.02655 0.077189
v -0.089416 -0.024223 0.077433
v -0.089416 -0.024223 0.077433
v -0.089416 -0.024223 0.077433
v -0.089745 -0.024571 0.077296
v -0.089169 -0.025136 0.077282
v -0.089169 -0.025136 0.077282
v -0.089169 -0.025136 0.077282
v -0.089169 -0.025136 0.077282
v -0.087391 -0.025514 0.077521
v -0.087391 -0.025514 0.077521
v -0.087391 -0.025514 0.077521
v -0.087053 -0.025843 0.077497
v -0.087733 -0.02518 0.07754
v -0.087733 -0.02518 0.07754
v -0.087733 -0.02518 0.07754
v -0.088602 -0.025689 0.077255
v -0.088602 -0.025689 0.077255
v -0.088602 -0.025689 0.077255
v -0.088079 -0.024842 0.077554
v -0.088079 -0.024842 0.077554
v -0.088079 -0.024842 0.077554
v -0.088428 -0.0245 0.077563
v -0.088428 -0.0245 0.077563
v -0.088428 -0.0245 0.077563
v -0.088428 -0.0245 0.077563
v -0.088428 -0.0245 0.077563
v -0.089083 -0.023871 0.077566
v -0.089083 -0.023871 0.077566
v -0.088744 -0.023516 0.077694
v -0.088744 -0.023516 0.077694
v -0.088744 -0.023516 0.077694
v -0.088744 -0.023516 0.077694
v -0.088093 -0.024147 0.077697
v -0.088093 -0.024147 0.077697
v -0.088093 -0.024147 0.077697
v -0.088076 -0.023478 0.077824
v -0.088076 -0.023478 0.077824
v -0.088076 -0.023478 0.077824
v -0.088402 -0.023156 0.077818
v -0.087757 -0.023793 0.077825
vn -0.1729 -0.2609 0.9497
vn -0.1725 -0.2459 0.9538
vn -0.1721 -0.2459 0.9539
vn -0.1729 -0.2609 0.9497
vn -0.1791 -0.2376 0.9547
vn -0.1716 -0.2411 0.9552
vn -0.1721 -0.2459 0.9539
vn -0.1729 -0.2609 0.9497
vn -0.1814 -0.1921 0.9645
vn -0.1857 -0.2094 0.96
vn -0.1805 -0.2082 0.9613
vn -0.1805 -0.2082 0.9613
vn -0.1781 -0.2276 0.9573
vn -0.1805 -0.2082 0.9613
vn -0.1857 -0.2094 0.96
vn -0.1827 -0.2127 0.9599
vn -0.1725 -0.2459 0.9538
vn -0.1721 -0.2459 0.9539
vn -0.1791 -0.2376 0.9547
vn -0.1725 -0.2459 0.9538
vn -0.1791 -0.2376 0.9547
vn -0.1813 -0.2255 0.9572
vn -0.1716 -0.2411 0.9552
vn -0.1781 -0.2276 0.9573
vn -0.1813 -0.2255 0.9572
vn -0.1716 -0.2411 0.9552
vn -0.1827 -0.2127 0.9599
vn -0.1813 -0.2255 0.9572
vn -0.1781 -0.2276 0.9573
vn -0.1814 -0.1921 0.9645
vn -0.1857 -0.2094 0.96
vn -0.1827 -0.2127 0.9599
vn -0.1738 -0.1842 0.9674
vn -0.1865 -0.1878 0.9643
vn -0.1738 -0.1842 0.9674
vn -0.1814 -0.1921 0.9645
vn -0.1777 -0.1788 0.9677
vn -0.179 -0.1644 0.97
vn -0.1865 -0.1878 0.9643
vn -0.1738 -0.1842 0.9674
vn -0.1777 -0.1788 0.9677
vn -0.1802 -0.1786 0.9673
vn -0.1865 -0.1878 0.9643
vn -0.179 -0.1644 0.97
vn -0.1802 -0.1786 0.9673
vn -0.1777 -0.1788 0.9677
vn -0.179 -0.1644 0.97
vn -0.1802 -0.1786 0.9673
f 1//1 4//4 8//8
f 11//11 12//12 14//14
f 17//17 2//2 20//20
f 18//18 7//7 3//3
f 23//23 26//26 6//6
f 21//21 5//5 19//19
f 29//29 13//13 24//24
f 28//28 25//25 22//22
f 30//30 36//36 9//9
f 31//31 10//10 15//15
f 32//32 16//16 27//27
f 40//40 35//35 33//33
f 43//43 39//39 34//34
f 44//44 47//47 38//38
f 46//46 37//37 41//41
f 48//48 45//45 42//42
