mtllib material_0.mtl
usemtl material_0
v -0.076565 -0.000268 0.080266
v -0.076565 -0.000268 0.080266
v -0.076565 -0.000268 0.080266
v -0.076565 -0.000268 0.080266
v -0.076565 -0.000268 0.080266
v -0.076565 -0.000268 0.080266
v -0.077819 -0.000497 0.079787
v -0.077819 -0.000497 0.079787
v -0.077819 -0.000497 0.079787
v -0.077819 -0.000497 0.079787
v -0.077819 -0.000497 0.079787
v -0.076328 -0.0009860001 0.079672
v -0.076328 -0.0009860001 0.079672
v -0.076328 -0.0009860001 0.079672
v -0.078725 -0.001001 0.07892
v -0.078725 -0.001001 0.07892
v -0.078998 -0.000859 0.07911
v -0.078998 -0.000859 0.07911
v -0.078998 -0.000859 0.07911
v -0.078998 -0.000859 0.07911
v -0.078998 -0.000859 0.07911
v -0.078998 -0.000859 0.07911
v -0.078998 -0.000859 0.07911
v -0.079084 -0.000592 0.079344
v -0.079084 -0.000592 0.079344
v -0.079084 -0.000592 0.079344
v -0.079084 -0.000592 0.079344
v -0.079084 -0.000592 0.079344
v -0.078788 0.001001 0.078901
v -0.078788 0.001001 0.078901
v -0.078788 0.001001 0.078901
v -0.078788 0.001001 0.078901
v -0.079125 0.00078 0.079167
v -0.079125 0.00078 0.079167
v -0.079125 0.00078 0.079167
v -0.079125 0.00078 0.079167
v -0.079125 0.00078 0.079167
v -0.079125 0.00078 0.079167
v -0.079125 0.00078 0.079167
v -0.07935 -0.000313 0.079303
v -0.07935 -0.000313 0.079303
v -0.07935 -0.000313 0.079303
v -0.07935 -0.000313 0.079303
v -0.07935 -0.000313 0.079303
v -0.079071 -0.00018 0.079501
v -0.079071 -0.00018 0.079501
v -0.079071 -0.00018 0.079501
v -0.079071 -0.00018 0.079501
v -0.079071 -0.00018 0.079501
v -0.079071 -0.00018 0.079501
v -0.079071 -0.00018 0.079501
v -0.079503 0.000684 0.078706
v -0.079503 0.000684 0.078706
v -0.079503 0.000684 0.078706
v -0.079234 0.000234 0.079426
v -0.079234 0.000234 0.079426
v -0.079234 0.000234 0.079426
v -0.079234 0.000234 0.079426
v -0.079234 0.000234 0.079426
v -0.079234 0.000234 0.079426
v -0.07963 0.000111 0.079059
v -0.07963 0.000111 0.079059
v -0.07963 0.000111 0.079059
v -0.07963 0.000111 0.079059
v -0.07963 0.000111 0.079059
v -0.07963 0.000111 0.079059
v -0.07963 0.000111 0.079059
v -0.079226 0.00089 0.078778
v -0.079226 0.00089 0.078778
v -0.079692 0.000315 0.078641
v -0.079692 0.000315 0.078641
v -0.079721 -0.000205 0.078631
v -0.079721 -0.000205 0.078631
v -0.079721 -0.000205 0.078631
v -0.079515 -0.000535 0.078984
v -0.079515 -0.000535 0.078984
v -0.079515 -0.000535 0.078984
v -0.079515 -0.000535 0.078984
v -0.079515 -0.000535 0.078984
v -0.079515 -0.000535 0.078984
v -0.079515 -0.000535 0.078984
v -0.079477 -0.000686 0.078702
v -0.079477 -0.000686 0.078702
v -0.079115 -0.000938 0.078811
v -0.079115 -0.000938 0.078811
v -0.079115 -0.000938 0.078811
v -0.076523 0.000169 0.080282
v -0.076523 0.000169 0.080282
v -0.076523 0.000169 0.080282
v -0.076523 0.000169 0.080282
v -0.076523 0.000169 0.080282
v -0.076523 0.000169 0.080282
v -0.077879 0.000469 0.079779
v -0.077879 0.000469 0.079779
v -0.077879 0.000469 0.079779
v -0.077879 0.000469 0.079779
v -0.077879 0.000469 0.079779
v -0.077879 0.000469 0.079779
v -0.077879 0.000469 0.079779
v -0.077879 0.000847 0.07947
v -0.077879 0.000847 0.07947
v -0.077879 0.000847 0.07947
v -0.077879 0.000847 0.07947
v -0.077879 0.000847 0.07947
v -0.079021 0.000566 0.079382
v -0.079021 0.000566 0.079382
v -0.079021 0.000566 0.079382
v -0.079021 0.000566 0.079382
v -0.076706 0.000534 0.080115
v -0.076706 0.000534 0.080115
v -0.076706 0.000534 0.080115
v -0.076706 0.000534 0.080115
v -0.076402 0.000995 0.079648
v -0.076402 0.000995 0.079648
v -0.076513 0.000848 0.079904
v -0.076513 0.000848 0.079904
v -0.076513 0.000848 0.079904
v -0.076513 0.000848 0.079904
v -0.076513 0.000848 0.079904
v -0.076513 0.000848 0.079904
v -0.076513 0.000848 0.079904
v -0.076395 -0.000777 0.080013
v -0.076395 -0.000777 0.080013
v -0.076395 -0.000777 0.080013
v -0.076395 -0.000777 0.080013
v -0.076395 -0.000777 0.080013
v -0.076395 -0.000777 0.080013
v -0.076053 -0.000463 0.080154
v -0.076053 -0.000463 0.080154
v -0.076053 -0.000463 0.080154
v -0.076053 -0.000463 0.080154
v -0.076053 -0.000463 0.080154
v -0.07605 0.000121 0.080255
v -0.07605 0.000121 0.080255
v -0.07605 0.000121 0.080255
v -0.07605 0.000121 0.080255
v -0.07605 0.000121 0.080255
v -0.07605 0.000121 0.080255
v -0.076204 0.000624 0.080105
v -0.076204 0.000624 0.080105
v -0.076204 0.000624 0.080105
v -0.076204 0.000624 0.080105
v -0.076204 0.000624 0.080105
v -0.076204 0.000624 0.080105
v -0.075799 -0.000658 0.079842
v -0.075799 -0.000658 0.079842
v -0.075799 -0.000658 0.079842
v -0.075584 -0.000136 0.079918
v -0.075584 -0.000136 0.079918
v -0.075584 -0.000136 0.079918
v -0.075629 0.000351 0.079903
v -0.075629 0.000351 0.079903
v -0.075629 0.000351 0.079903
v -0.075969 0.000814 0.079788
v -0.075969 0.000814 0.079788
v -0.075969 0.000814 0.079788
vn 0.0516 -0.0421 0.9978
vn 0.1476 -0.1699 0.9743
vn -0.2868 -0.318 0.9037
vn 0.0298 -0.4364 0.8993
vn -0.292 -0.0081 0.9564
vn -0.2301 -0.4931 0.839
vn -0.2868 -0.318 0.9037
vn -0.2403 -0.6178 0.7488
vn -0.2301 -0.4931 0.839
vn -0.2894 -0.3342 0.897
vn -0.1964 -0.6805 0.7059
vn -0.1383 -0.8782 0.4579
vn 0.3114 -0.782 0.54
vn -0.1453 -0.8559 0.4964
vn -0.2418 -0.9109 0.3343
vn -0.1383 -0.8782 0.4579
vn -0.1964 -0.6805 0.7059
vn -0.5542 -0.7257 0.4077
vn -0.2403 -0.6178 0.7488
vn -0.1453 -0.8559 0.4964
vn -0.1383 -0.8782 0.4579
vn -0.2418 -0.9109 0.3343
vn -0.5372 -0.6467 0.5415
vn -0.2894 -0.3342 0.897
vn -0.5372 -0.6467 0.5415
vn -0.1964 -0.6805 0.7059
vn -0.45 -0.307 0.8386
vn -0.599 -0.478 0.6424
vn -0.1669 0.8516 0.497
vn -0.152 0.8656 0.4771
vn -0.1378 0.8835 0.4476
vn -0.3185 0.8872 0.3339
vn -0.3185 0.8872 0.3339
vn -0.5462 0.4462 0.7089
vn -0.2143 0.6388 0.7389
vn -0.6837 0.4204 0.5965
vn -0.7283 0.4699 0.4987
vn -0.1669 0.8516 0.497
vn -0.6154 0.7021 0.3582
vn -0.599 -0.478 0.6424
vn -0.8022 -0.2085 0.5595
vn -0.45 -0.307 0.8386
vn -0.6759 -0.0234 0.7366
vn -0.5556 -0.0696 0.8285
vn -0.2868 -0.318 0.9037
vn -0.292 -0.0081 0.9564
vn -0.3098 0.1674 0.9359
vn -0.2894 -0.3342 0.897
vn -0.45 -0.307 0.8386
vn -0.5556 -0.0696 0.8285
vn -0.2629 0.07 0.9623
vn -0.7283 0.4699 0.4987
vn -0.6154 0.7021 0.3582
vn -0.8655 0.3882 0.3165
vn -0.2629 0.07 0.9623
vn -0.6759 -0.0234 0.7366
vn -0.2895 0.3071 0.9066
vn -0.5556 -0.0696 0.8285
vn -0.5462 0.4462 0.7089
vn -0.6837 0.4204 0.5965
vn -0.9163 -0.204 0.3446
vn -0.7283 0.4699 0.4987
vn -0.9841 0.0518 0.1699
vn -0.6759 -0.0234 0.7366
vn -0.6837 0.4204 0.5965
vn -0.8022 -0.2085 0.5595
vn -0.8655 0.3882 0.3165
vn -0.3185 0.8872 0.3339
vn -0.6154 0.7021 0.3582
vn -0.9841 0.0518 0.1699
vn -0.8655 0.3882 0.3165
vn -0.8922 -0.4374 0.1128
vn -0.9841 0.0518 0.1699
vn -0.9163 -0.204 0.3446
vn -0.9163 -0.204 0.3446
vn -0.5372 -0.6467 0.5415
vn -0.8022 -0.2085 0.5595
vn -0.5542 -0.7257 0.4077
vn -0.6045 -0.7337 0.3101
vn -0.8922 -0.4374 0.1128
vn -0.599 -0.478 0.6424
vn -0.6045 -0.7337 0.3101
vn -0.8922 -0.4374 0.1128
vn -0.5542 -0.7257 0.4077
vn -0.6045 -0.7337 0.3101
vn -0.2418 -0.9109 0.3343
vn 0.0516 -0.0421 0.9978
vn -0.0521 0.3945 0.9174
vn 0.0847 0.3099 0.947
vn -0.2779 0.2822 0.9182
vn -0.292 -0.0081 0.9564
vn -0.3098 0.1674 0.9359
vn -0.2108 0.6193 0.7563
vn -0.2629 0.07 0.9623
vn -0.3098 0.1674 0.9359
vn -0.2895 0.3071 0.9066
vn -0.239 0.6152 0.7513
vn -0.2437 0.6395 0.7291
vn -0.2779 0.2822 0.9182
vn -0.152 0.8656 0.4771
vn -0.2108 0.6193 0.7563
vn -0.1669 0.8516 0.497
vn -0.2143 0.6388 0.7389
vn -0.239 0.6152 0.7513
vn -0.2143 0.6388 0.7389
vn -0.2108 0.6193 0.7563
vn -0.2895 0.3071 0.9066
vn -0.5462 0.4462 0.7089
vn -0.2779 0.2822 0.9182
vn -0.0899 0.5928 0.8003
vn -0.2437 0.6395 0.7291
vn -0.0521 0.3945 0.9174
vn 0.1672 0.8219 0.5446
vn -0.1378 0.8835 0.4476
vn -0.152 0.8656 0.4771
vn -0.2437 0.6395 0.7291
vn 0.1672 0.8219 0.5446
vn -0.1378 0.8835 0.4476
vn -0.0899 0.5928 0.8003
vn 0.1762 0.7808 0.5994
vn -0.239 0.6152 0.7513
vn 0.0298 -0.4364 0.8993
vn -0.1453 -0.8559 0.4964
vn 0.3261 -0.6592 0.6776
vn 0.3114 -0.782 0.54
vn -0.2403 -0.6178 0.7488
vn -0.2301 -0.4931 0.839
vn 0.0298 -0.4364 0.8993
vn 0.5254 -0.1478 0.8379
vn 0.1476 -0.1699 0.9743
vn 0.6056 -0.3524 0.7135
vn 0.3261 -0.6592 0.6776
vn 0.0516 -0.0421 0.9978
vn 0.6133 0.0801 0.7858
vn 0.4615 0.3812 0.801
vn 0.5254 -0.1478 0.8379
vn 0.1476 -0.1699 0.9743
vn 0.0847 0.3099 0.947
vn -0.0521 0.3945 0.9174
vn 0.1762 0.7808 0.5994
vn 0.0847 0.3099 0.947
vn 0.4938 0.5336 0.6867
vn 0.4615 0.3812 0.801
vn -0.0899 0.5928 0.8003
vn 0.6056 -0.3524 0.7135
vn 0.3114 -0.782 0.54
vn 0.3261 -0.6592 0.6776
vn 0.6056 -0.3524 0.7135
vn 0.6133 0.0801 0.7858
vn 0.5254 -0.1478 0.8379
vn 0.4938 0.5336 0.6867
vn 0.6133 0.0801 0.7858
vn 0.4615 0.3812 0.801
vn 0.4938 0.5336 0.6867
vn 0.1672 0.8219 0.5446
vn 0.1762 0.7808 0.5994
f 12//12 21//21 16//16
f 123//123 20//20 14//14
f 19//19 126//126 8//8
f 10//10 48//48 24//24
f 26//26 17//17 11//11
f 6//6 9//9 127//127
f 7//7 3//3 45//45
f 81//81 28//28 40//40
f 23//23 25//25 76//76
f 108//108 34//34 59//59
f 68//68 33//33 32//32
f 56//56 64//64 43//43
f 69//69 53//53 39//39
f 50//50 58//58 44//44
f 42//42 27//27 49//49
f 71//71 67//67 54//54
f 52//52 62//62 37//37
f 73//73 63//63 70//70
f 65//65 60//60 36//36
f 74//74 75//75 61//61
f 83//83 80//80 72//72
f 85//85 79//79 82//82
f 84//84 18//18 78//78
f 77//77 41//41 66//66
f 15//15 22//22 86//86
f 35//35 105//105 103//103
f 30//30 100//100 115//115
f 121//121 104//104 97//97
f 92//92 95//95 47//47
f 101//101 106//106 93//93
f 31//31 118//118 114//114
f 94//94 55//55 51//51
f 38//38 102//102 29//29
f 107//107 57//57 96//96
f 111//111 116//116 98//98
f 90//90 109//109 99//99
f 141//141 89//89 138//138
f 119//119 110//110 144//144
f 139//139 112//112 88//88
f 128//128 4//4 122//122
f 150//150 136//136 129//129
f 152//152 134//134 149//149
f 153//153 143//143 135//135
f 130//130 137//137 2//2
f 1//1 133//133 87//87
f 146//146 125//125 13//13
f 147//147 132//132 124//124
f 145//145 148//148 131//131
f 154//154 142//142 151//151
f 113//113 117//117 155//155
f 156//156 120//120 140//140
f 5//5 91//91 46//46
