mtllib material_0.mtl
usemtl material_0
v -0.087731 0.009316 0.077876
v -0.087731 0.009316 0.077876
v -0.087731 0.009316 0.077876
v -0.087731 0.009316 0.077876
v -0.087731 0.009316 0.077876
v -0.087141 0.010614 0.07758
v -0.087141 0.010614 0.07758
v -0.087141 0.010614 0.07758
v -0.087138 0.009363 0.077422
v -0.087138 0.009363 0.077422
v -0.088024 0.009218 0.0779
v -0.088024 0.009218 0.0779
v -0.088024 0.009218 0.0779
v -0.088024 0.009218 0.0779
v -0.088024 0.009218 0.0779
v -0.088024 0.009218 0.0779
v -0.08744 0.012085 0.078019
v -0.08744 0.012085 0.078019
v -0.08744 0.012085 0.078019
v -0.08744 0.012085 0.078019
v -0.08744 0.012085 0.078019
v -0.08744 0.012085 0.078019
v -0.087205 0.012031 0.077754
v -0.087205 0.012031 0.077754
v -0.087765 0.011885 0.078192
v -0.087765 0.011885 0.078192
v -0.087765 0.011885 0.078192
v -0.087765 0.011885 0.078192
v -0.087765 0.011885 0.078192
v -0.087765 0.011885 0.078192
v -0.088373 0.009218 0.07785
v -0.088373 0.009218 0.07785
v -0.088373 0.009218 0.07785
v -0.088373 0.009218 0.07785
v -0.088373 0.009218 0.07785
v -0.088142 0.008818 0.077692
v -0.088142 0.008818 0.077692
v -0.088142 0.008818 0.077692
v -0.088142 0.008818 0.077692
v -0.088142 0.008818 0.077692
v -0.087405 0.009242 0.077715
v -0.087405 0.009242 0.077715
v -0.087405 0.009242 0.077715
v -0.087405 0.009242 0.077715
v -0.087405 0.009242 0.077715
v -0.087405 0.009242 0.077715
v -0.087405 0.009242 0.077715
v -0.088909 0.009258 0.077519
v -0.088909 0.009258 0.077519
v -0.088909 0.009258 0.077519
v -0.088909 0.009258 0.077519
v -0.088909 0.009258 0.077519
v -0.088909 0.009258 0.077519
v -0.088909 0.009258 0.077519
v -0.088684 0.008856 0.077477
v -0.088684 0.008856 0.077477
v -0.088684 0.008856 0.077477
v -0.088684 0.008856 0.077477
v -0.088684 0.008856 0.077477
v -0.088684 0.008856 0.077477
v -0.088684 0.008856 0.077477
v -0.088185 0.008472 0.077148
v -0.088185 0.008472 0.077148
v -0.088185 0.008472 0.077148
v -0.088185 0.008472 0.077148
v -0.089095 0.009254 0.077069
v -0.089095 0.009254 0.077069
v -0.089095 0.009254 0.077069
v -0.087709 0.008819 0.077639
v -0.087709 0.008819 0.077639
v -0.087709 0.008819 0.077639
v -0.087709 0.008819 0.077639
v -0.087709 0.008819 0.077639
v -0.087709 0.008819 0.077639
v -0.087709 0.008819 0.077639
v -0.088876 0.008867 0.077058
v -0.088876 0.008867 0.077058
v -0.088534 0.008583 0.077089
v -0.088534 0.008583 0.077089
v -0.087806 0.008539 0.07721
v -0.087806 0.008539 0.07721
v -0.08734 0.008854 0.077325
v -0.08734 0.008854 0.077325
v -0.08734 0.008854 0.077325
v -0.08916 0.011862 0.077378
v -0.08916 0.011862 0.077378
v -0.08916 0.011862 0.077378
v -0.089066 0.011933 0.077673
v -0.089066 0.011933 0.077673
v -0.089066 0.011933 0.077673
v -0.089066 0.011933 0.077673
v -0.089066 0.011933 0.077673
v -0.088882 0.011901 0.07793
v -0.088882 0.011901 0.07793
v -0.088882 0.011901 0.07793
v -0.088882 0.011901 0.07793
v -0.087435 0.012443 0.077768
v -0.087435 0.012443 0.077768
v -0.087435 0.012443 0.077768
v -0.087848 0.012395 0.078093
v -0.087848 0.012395 0.078093
v -0.087848 0.012395 0.078093
v -0.087848 0.012395 0.078093
v -0.087848 0.012395 0.078093
v -0.087848 0.012395 0.078093
v -0.088351 0.012801 0.077661
v -0.088351 0.012801 0.077661
v -0.088351 0.012801 0.077661
v -0.088201 0.012696 0.07786
v -0.088201 0.012696 0.07786
v -0.088201 0.012696 0.07786
v -0.088201 0.012696 0.07786
v -0.088201 0.012696 0.07786
v -0.088273 0.01228 0.078162
v -0.088273 0.01228 0.078162
v -0.088273 0.01228 0.078162
v -0.088273 0.01228 0.078162
v -0.088273 0.01228 0.078162
v -0.088273 0.01228 0.078162
v -0.088733 0.012476 0.077845
v -0.088733 0.012476 0.077845
v -0.088733 0.012476 0.077845
v -0.088733 0.012476 0.077845
v -0.088733 0.012476 0.077845
v -0.088733 0.012476 0.077845
v -0.088733 0.012476 0.077845
v -0.088733 0.012476 0.077845
v -0.088772 0.01262 0.077562
v -0.088772 0.01262 0.077562
v -0.088657 0.011941 0.078091
v -0.088657 0.011941 0.078091
v -0.088657 0.011941 0.078091
v -0.088657 0.011941 0.078091
v -0.088657 0.011941 0.078091
v -0.088657 0.011941 0.078091
v -0.088657 0.011941 0.078091
v -0.087791 0.012725 0.077748
v -0.087791 0.012725 0.077748
v -0.087791 0.012725 0.077748
v -0.088206 0.011864 0.078223
v -0.088206 0.011864 0.078223
v -0.088206 0.011864 0.078223
v -0.088206 0.011864 0.078223
v -0.088206 0.011864 0.078223
v -0.08903 0.01231 0.077468
v -0.08903 0.01231 0.077468
v -0.08903 0.01231 0.077468
vn 0.2113 -0.4132 0.8858
vn 0.1192 -0.1121 0.9865
vn 0.4198 -0.1055 0.9015
vn 0.3324 -0.3941 0.8569
vn 0.0739 -0.121 0.9899
vn 0.7423 -0.0489 0.6683
vn 0.7535 -0.0804 0.6526
vn 0.7074 -0.0665 0.7036
vn 0.7535 -0.0804 0.6526
vn 0.7541 -0.3994 0.5214
vn -0.1418 -0.1019 0.9846
vn 0.2113 -0.4132 0.8858
vn -0.1287 -0.4274 0.8948
vn 0.1192 -0.1121 0.9865
vn -0.2989 -0.1356 0.9446
vn 0.1079 -0.4837 0.8686
vn 0.7074 -0.0665 0.7036
vn 0.5029 0.4923 0.7105
vn 0.3416 0.2322 0.9107
vn 0.5087 -0.0854 0.8567
vn 0.7423 -0.0489 0.6683
vn 0.7276 0.3875 0.5661
vn 0.7276 0.3875 0.5661
vn 0.7423 -0.0489 0.6683
vn 0.0605 0.1536 0.9863
vn 0.5087 -0.0854 0.8567
vn 0.3416 0.2322 0.9107
vn 0.1014 0.2054 0.9734
vn 0.4198 -0.1055 0.9015
vn 0.0739 -0.121 0.9899
vn -0.1287 -0.4274 0.8948
vn -0.5078 -0.3667 0.7795
vn -0.5271 -0.1294 0.8399
vn -0.3479 -0.5111 0.786
vn -0.1418 -0.1019 0.9846
vn 0.0671 -0.8443 0.5316
vn -0.2672 -0.8036 0.5318
vn -0.1287 -0.4274 0.8948
vn -0.3479 -0.5111 0.786
vn 0.1079 -0.4837 0.8686
vn 0.5786 -0.5289 0.6208
vn 0.7541 -0.3994 0.5214
vn 0.7535 -0.0804 0.6526
vn 0.7074 -0.0665 0.7036
vn 0.3324 -0.3941 0.8569
vn 0.4198 -0.1055 0.9015
vn 0.5087 -0.0854 0.8567
vn -0.5645 -0.1209 0.8166
vn -0.5271 -0.1294 0.8399
vn -0.5078 -0.3667 0.7795
vn -0.806 -0.4871 0.3364
vn -0.9223 -0.068 0.3805
vn -0.9449 -0.0735 0.3189
vn -0.8152 -0.0806 0.5736
vn -0.3479 -0.5111 0.786
vn -0.6298 -0.7286 0.2693
vn -0.3379 -0.8262 0.4508
vn -0.2672 -0.8036 0.5318
vn -0.5078 -0.3667 0.7795
vn -0.8083 -0.468 0.3574
vn -0.806 -0.4871 0.3364
vn 0.0599 -0.8416 0.5367
vn -0.2672 -0.8036 0.5318
vn -0.3379 -0.8262 0.4508
vn 0.0671 -0.8443 0.5316
vn -0.9223 -0.068 0.3805
vn -0.806 -0.4871 0.3364
vn -0.8083 -0.468 0.3574
vn 0.0671 -0.8443 0.5316
vn 0.1079 -0.4837 0.8686
vn 0.3324 -0.3941 0.8569
vn 0.4348 -0.7955 0.4221
vn 0.2113 -0.4132 0.8858
vn 0.5786 -0.5289 0.6208
vn 0.0599 -0.8416 0.5367
vn -0.6298 -0.7286 0.2693
vn -0.8083 -0.468 0.3574
vn -0.3379 -0.8262 0.4508
vn -0.6298 -0.7286 0.2693
vn 0.0599 -0.8416 0.5367
vn 0.4348 -0.7955 0.4221
vn 0.4348 -0.7955 0.4221
vn 0.7541 -0.3994 0.5214
vn 0.5786 -0.5289 0.6208
vn -0.9449 -0.0735 0.3189
vn -0.9223 -0.068 0.3805
vn -0.9428 0.2231 0.2476
vn -0.7631 0.284 0.5806
vn -0.8054 0.3398 0.4857
vn -0.9428 0.2231 0.2476
vn -0.9449 -0.0735 0.3189
vn -0.8152 -0.0806 0.5736
vn -0.8152 -0.0806 0.5736
vn -0.5919 0.2663 0.7607
vn -0.5645 -0.1209 0.8166
vn -0.7631 0.284 0.5806
vn 0.5029 0.4923 0.7105
vn 0.4451 0.6112 0.6545
vn 0.7276 0.3875 0.5661
vn 0.3416 0.2322 0.9107
vn -0.0303 0.5908 0.8062
vn 0.5029 0.4923 0.7105
vn 0.1014 0.2054 0.9734
vn 0.4451 0.6112 0.6545
vn 0.141 0.7054 0.6946
vn -0.4398 0.7744 0.4549
vn 0.0558 0.8997 0.4329
vn -0.3159 0.7204 0.6174
vn 0.0558 0.8997 0.4329
vn -0.2683 0.596 0.7568
vn -0.3159 0.7204 0.6174
vn -0.0303 0.5908 0.8062
vn 0.141 0.7054 0.6946
vn -0.2638 0.0971 0.9597
vn 0.0605 0.1536 0.9863
vn -0.4406 0.323 0.8376
vn -0.0303 0.5908 0.8062
vn 0.1014 0.2054 0.9734
vn -0.2683 0.596 0.7568
vn -0.4406 0.323 0.8376
vn -0.8054 0.3398 0.4857
vn -0.7653 0.525 0.3724
vn -0.3159 0.7204 0.6174
vn -0.2683 0.596 0.7568
vn -0.4398 0.7744 0.4549
vn -0.5919 0.2663 0.7607
vn -0.7631 0.284 0.5806
vn -0.7653 0.525 0.3724
vn -0.4398 0.7744 0.4549
vn -0.2989 -0.1356 0.9446
vn -0.4406 0.323 0.8376
vn -0.5919 0.2663 0.7607
vn -0.1418 -0.1019 0.9846
vn -0.2638 0.0971 0.9597
vn -0.5645 -0.1209 0.8166
vn -0.5271 -0.1294 0.8399
vn 0.0558 0.8997 0.4329
vn 0.141 0.7054 0.6946
vn 0.4451 0.6112 0.6545
vn -0.2989 -0.1356 0.9446
vn 0.1192 -0.1121 0.9865
vn 0.0605 0.1536 0.9863
vn 0.0739 -0.121 0.9899
vn -0.2638 0.0971 0.9597
vn -0.7653 0.525 0.3724
vn -0.8054 0.3398 0.4857
vn -0.9428 0.2231 0.2476
f 21//21 6//6 24//24
f 26//26 47//47 20//20
f 17//17 44//44 8//8
f 143//143 5//5 30//30
f 29//29 3//3 46//46
f 141//141 14//14 2//2
f 9//9 7//7 43//43
f 70//70 16//16 40//40
f 45//45 4//4 71//71
f 73//73 1//1 12//12
f 67//67 61//61 51//51
f 64//64 57//57 78//78
f 59//59 32//32 50//50
f 77//77 60//60 68//68
f 79//79 56//56 76//76
f 38//38 13//13 31//31
f 58//58 63//63 37//37
f 65//65 69//69 36//36
f 82//82 72//72 81//81
f 80//80 75//75 62//62
f 55//55 39//39 34//34
f 10//10 42//42 83//83
f 84//84 41//41 74//74
f 140//140 130//130 15//15
f 66//66 52//52 86//86
f 85//85 53//53 91//91
f 54//54 93//93 92//92
f 33//33 136//136 49//49
f 48//48 135//135 95//95
f 11//11 133//133 35//35
f 99//99 22//22 23//23
f 101//101 112//112 117//117
f 19//19 100//100 27//27
f 129//129 125//125 106//106
f 119//119 110//110 124//124
f 25//25 115//115 142//142
f 103//103 118//118 28//28
f 120//120 131//131 116//116
f 139//139 104//104 98//98
f 94//94 132//132 126//126
f 97//97 102//102 18//18
f 134//134 144//144 114//114
f 111//111 108//108 123//123
f 109//109 137//137 107//107
f 105//105 138//138 113//113
f 145//145 122//122 128//128
f 87//87 90//90 147//147
f 146//146 89//89 121//121
f 88//88 96//96 127//127
