mtllib material_0.mtl
usemtl material_0
v -0.002727 0.053383 -0.008026
v -0.002727 0.053383 -0.008026
v -0.002727 0.053383 -0.008026
v -0.001095 0.05323 -0.004737
v -0.001095 0.05323 -0.004737
v -0.001095 0.05323 -0.004737
v -0.001095 0.05323 -0.004737
v -0.001095 0.05323 -0.004737
v -0.001095 0.05323 -0.004737
v -0.001095 0.05323 -0.004737
v 0.000392 0.053081 -0.006975
v 0.000392 0.053081 -0.006975
v 0.000392 0.053081 -0.006975
v 0.000392 0.053081 -0.006975
v 0.003509 0.052745 -0.005926
v 0.003509 0.052745 -0.005926
v 0.003509 0.052745 -0.005926
v 0.003509 0.052745 -0.005926
v 0.003509 0.052745 -0.005926
v 0.003509 0.052745 -0.005926
v 0.000586 0.053061 -0.001346
v 0.000586 0.053061 -0.001346
v 0.000586 0.053061 -0.001346
v 0.000586 0.053061 -0.001346
v 0.002467 0.052861 -0.00226
v 0.002467 0.052861 -0.00226
v 0.002467 0.052861 -0.00226
v 0.002467 0.052861 -0.00226
v 0.002467 0.052861 -0.00226
v 0.002467 0.052861 -0.00226
v 0.004347 0.052649 -0.003173
v 0.004347 0.052649 -0.003173
v 0.004347 0.052649 -0.003173
v 0.004347 0.052649 -0.003173
v 0.004347 0.052649 -0.003173
v 0.004347 0.052649 -0.003173
v 0.005431 0.05252 -0.005278
v 0.005431 0.05252 -0.005278
v 0.005431 0.05252 -0.005278
v 0.005431 0.05252 -0.005278
v 0.005431 0.05252 -0.005278
v 0.00585 0.05247 -0.003903
v 0.00585 0.05247 -0.003903
v 0.00585 0.05247 -0.003903
v 0.00585 0.05247 -0.003903
v 0.00585 0.05247 -0.003903
v 0.007353 0.052282 -0.004632
v 0.007353 0.052282 -0.004632
v 0.007353 0.052282 -0.004632
v 0.007353 0.052282 -0.004632
v 0.007367 0.05198 -0.004633
v 0.007367 0.05198 -0.004633
v 0.007367 0.05198 -0.004633
v 0.004354 0.052348 -0.00317
v 0.004354 0.052348 -0.00317
v 0.004354 0.052348 -0.00317
v 0.002469 0.052561 -0.002255
v 0.002469 0.052561 -0.002255
v 0.002469 0.052561 -0.002255
v 0.000584 0.052762 -0.001339
v 0.000584 0.052762 -0.001339
v 0.000584 0.052762 -0.001339
v -0.001102 0.052931 -0.004738
v -0.001102 0.052931 -0.004738
v -0.001102 0.052931 -0.004738
v -0.002738 0.053084 -0.008035
v -0.002738 0.053084 -0.008035
v -0.002738 0.053084 -0.008035
v -0.002738 0.053084 -0.008035
v 0.000381 0.052783 -0.006984
v 0.000381 0.052783 -0.006984
v 0.003496 0.052446 -0.005935
v 0.003496 0.052446 -0.005935
v 0.005432 0.05222 -0.005284
v 0.005432 0.05222 -0.005284
v -0.003836 0.053481 -0.012861
v -0.003836 0.053481 -0.012861
v -0.003836 0.053481 -0.012861
v -0.001395 0.053259 -0.008002
v -0.001395 0.053259 -0.008002
v -0.001395 0.053259 -0.008002
v -0.001395 0.053259 -0.008002
v -0.001395 0.053259 -0.008002
v -0.002035 0.05332 -0.012263
v -0.002035 0.05332 -0.012263
v -0.002035 0.05332 -0.012263
v -0.002035 0.05332 -0.012263
v -0.002035 0.05332 -0.012263
v -0.000169 0.053138 -0.011645
v -0.000169 0.053138 -0.011645
v -0.000169 0.053138 -0.011645
v -0.000169 0.053138 -0.011645
v -0.000169 0.053138 -0.011645
v -0.003846 0.053182 -0.012869
v -0.003846 0.053182 -0.012869
v -0.003846 0.053182 -0.012869
v -0.003846 0.053182 -0.012869
v -0.002037 0.05302 -0.012269
v -0.002037 0.05302 -0.012269
v -0.002037 0.05302 -0.012269
v -0.000162 0.052838 -0.011648
v -0.000162 0.052838 -0.011648
v -0.001394 0.052959 -0.007988
v -0.001394 0.052959 -0.007988
v -0.001394 0.052959 -0.007988
v 0.005935 0.052459 -0.003265
v 0.005935 0.052459 -0.003265
v 0.005935 0.052459 -0.003265
v 0.007942 0.052206 -0.002613
v 0.007942 0.052206 -0.002613
v 0.007942 0.052206 -0.002613
v 0.007942 0.052206 -0.002613
v 0.0082 0.052172 -0.004375
v 0.0082 0.052172 -0.004375
v 0.0082 0.052172 -0.004375
v 0.0082 0.052172 -0.004375
v 0.0082 0.052172 -0.004375
v 0.009775 0.051956 -0.002017
v 0.009775 0.051956 -0.002017
v 0.009775 0.051956 -0.002017
v 0.009775 0.051956 -0.002017
v 0.009775 0.051956 -0.002017
v 0.009775 0.051956 -0.002017
v 0.009614 0.051979 -0.005069
v 0.009614 0.051979 -0.005069
v 0.009614 0.051979 -0.005069
v 0.009614 0.051979 -0.005069
v 0.009614 0.051979 -0.005069
v 0.011027 0.051773 -0.005762
v 0.011027 0.051773 -0.005762
v 0.011027 0.051773 -0.005762
v 0.011027 0.051773 -0.005762
v 0.011027 0.051773 -0.005762
v 0.007937 0.051906 -0.002609
v 0.007937 0.051906 -0.002609
v 0.007937 0.051906 -0.002609
v 0.009779 0.051655 -0.00201
v 0.009779 0.051655 -0.00201
v 0.009779 0.051655 -0.00201
v 0.005921 0.052161 -0.003264
v 0.005921 0.052161 -0.003264
v 0.005921 0.052161 -0.003264
v 0.011036 0.051471 -0.005772
v 0.011036 0.051471 -0.005772
v 0.008197 0.051872 -0.004379
v 0.008197 0.051872 -0.004379
v 0.009617 0.051678 -0.005076
v 0.009617 0.051678 -0.005076
v 0.009617 0.051678 -0.005076
v -0.007158 0.05374 0.003419
v -0.007158 0.05374 0.003419
v -0.007158 0.05374 0.003419
v -0.005198 0.053594 0.00408
v -0.005198 0.053594 0.00408
v -0.005198 0.053594 0.00408
v -0.005198 0.053594 0.00408
v -0.004364 0.053526 0.002034
v -0.004364 0.053526 0.002034
v -0.004364 0.053526 0.002034
v -0.004364 0.053526 0.002034
v -0.004364 0.053526 0.002034
v -0.004364 0.053526 0.002034
v -0.00324 0.053429 0.004741
v -0.00324 0.053429 0.004741
v -0.00324 0.053429 0.004741
v -0.00324 0.053429 0.004741
v -0.00324 0.053429 0.004741
v -0.001572 0.053276 0.000651
v -0.001572 0.053276 0.000651
v -0.001572 0.053276 0.000651
v -0.001572 0.053276 0.000651
v -0.001572 0.053276 0.000651
v -0.001572 0.053276 0.000651
v -0.000109 0.053132 0.005799
v -0.000109 0.053132 0.005799
v -0.000109 0.053132 0.005799
v -0.000109 0.053132 0.005799
v -0.000109 0.053132 0.005799
v -0.000109 0.053132 0.005799
v 0.000382 0.053083 -0.000318
v 0.000382 0.053083 -0.000318
v 0.000382 0.053083 -0.000318
v 0.000382 0.053083 -0.000318
v 0.000382 0.053083 -0.000318
v 0.002336 0.052875 -0.001287
v 0.002336 0.052875 -0.001287
v 0.002336 0.052875 -0.001287
v 0.002336 0.052875 -0.001287
v 0.002336 0.052875 -0.001287
v -0.003244 0.053129 0.004745
v -0.003244 0.053129 0.004745
v -0.000105 0.052832 0.005806
v -0.000105 0.052832 0.005806
v -0.000105 0.052832 0.005806
v -0.005207 0.053294 0.004083
v -0.005207 0.053294 0.004083
v -0.007172 0.053441 0.00342
v -0.007172 0.053441 0.00342
v -0.007172 0.053441 0.00342
v -0.007172 0.053441 0.00342
v 0.002345 0.052574 -0.001297
v 0.002345 0.052574 -0.001297
v -0.004378 0.053227 0.002035
v -0.004378 0.053227 0.002035
v -0.004378 0.053227 0.002035
v -0.001586 0.052978 0.000652
v -0.001586 0.052978 0.000652
v -0.001586 0.052978 0.000652
v 0.00038 0.052783 -0.000323
v 0.00038 0.052783 -0.000323
v 0.00038 0.052783 -0.000323
v -0.011444 0.054 0.003639
v -0.011444 0.054 0.003639
v -0.011444 0.054 0.003639
v -0.009358 0.053883 0.004342
v -0.009358 0.053883 0.004342
v -0.009358 0.053883 0.004342
v -0.009358 0.053883 0.004342
v -0.008744 0.053845 0.002239
v -0.008744 0.053845 0.002239
v -0.008744 0.053845 0.002239
v -0.008744 0.053845 0.002239
v -0.008744 0.053845 0.002239
v -0.007371 0.053755 0.005012
v -0.007371 0.053755 0.005012
v -0.007371 0.053755 0.005012
v -0.007371 0.053755 0.005012
v -0.007371 0.053755 0.005012
v -0.009359 0.053583 0.004347
v -0.009359 0.053583 0.004347
v -0.007361 0.053454 0.005021
v -0.007361 0.053454 0.005021
v -0.011458 0.053701 0.00364
v -0.011458 0.053701 0.00364
v -0.011458 0.053701 0.00364
v -0.011458 0.053701 0.00364
v -0.008741 0.053545 0.002232
v -0.008741 0.053545 0.002232
v -0.008741 0.053545 0.002232
v -0.005876 0.053647 0.007795
v -0.005876 0.053647 0.007795
v -0.005876 0.053647 0.007795
v -0.0039 0.053487 0.01168
v -0.0039 0.053487 0.01168
v -0.0039 0.053487 0.01168
v -0.0039 0.053487 0.01168
v -0.0039 0.053487 0.01168
v -0.003968 0.053492 0.00682
v -0.003968 0.053492 0.00682
v -0.003968 0.053492 0.00682
v -0.003968 0.053492 0.00682
v -0.003968 0.053492 0.00682
v -0.00199 0.053315 0.010709
v -0.00199 0.053315 0.010709
v -0.00199 0.053315 0.010709
v -0.00199 0.053315 0.010709
v -0.00199 0.053315 0.010709
v -0.001993 0.053316 0.00581
v -0.001993 0.053316 0.00581
v -0.001993 0.053316 0.00581
v -0.001993 0.053316 0.00581
v -0.001993 0.053316 0.00581
v -6E-06 0.053122 0.009703
v -6E-06 0.053122 0.009703
v -6E-06 0.053122 0.009703
v -6E-06 0.053122 0.009703
v -0.001987 0.053015 0.010714
v 1E-06 0.052821 0.009705
v 1E-06 0.052821 0.009705
v -0.003902 0.053187 0.011687
v -0.003902 0.053187 0.011687
v -0.003902 0.053187 0.011687
v -0.005883 0.053347 0.007793
v -0.005883 0.053347 0.007793
v -0.005883 0.053347 0.007793
v -0.005883 0.053347 0.007793
v -0.00397 0.053193 0.006815
v -0.00397 0.053193 0.006815
v -0.001991 0.053016 0.005803
v -0.001991 0.053016 0.005803
v -0.001991 0.053016 0.005803
v -0.00125 0.053245 0.010983
v -0.00125 0.053245 0.010983
v -0.00125 0.053245 0.010983
v 0.001332 0.052983 0.011922
v 0.001332 0.052983 0.011922
v 0.001332 0.052983 0.011922
v 0.001332 0.052983 0.011922
v 0.001332 0.052983 0.011922
v 0.000725 0.053047 0.009999
v 0.000725 0.053047 0.009999
v 0.000725 0.053047 0.009999
v 0.000725 0.053047 0.009999
v 0.000725 0.053047 0.009999
v 0.003364 0.052761 0.01091
v 0.003364 0.052761 0.01091
v 0.003364 0.052761 0.01091
v 0.003364 0.052761 0.01091
v 0.003364 0.052761 0.01091
v 0.003364 0.052761 0.01091
v 0.002741 0.052831 0.008994
v 0.002741 0.052831 0.008994
v 0.002741 0.052831 0.008994
v 0.002741 0.052831 0.008994
v 0.002741 0.052831 0.008994
v 0.005389 0.052525 0.009902
v 0.005389 0.052525 0.009902
v 0.005389 0.052525 0.009902
v 0.005389 0.052525 0.009902
v 0.005389 0.052525 0.009902
v 0.003371 0.05246 0.010912
v 0.003371 0.05246 0.010912
v 0.003371 0.05246 0.010912
v 0.005402 0.052224 0.009901
v 0.005402 0.052224 0.009901
v 0.001333 0.052683 0.011927
v 0.001333 0.052683 0.011927
v 0.001333 0.052683 0.011927
v -0.001264 0.052946 0.010984
v -0.001264 0.052946 0.010984
v -0.001264 0.052946 0.010984
v -0.001264 0.052946 0.010984
v 0.000718 0.052748 0.009996
v 0.000718 0.052748 0.009996
v 0.002741 0.052531 0.008988
v 0.002741 0.052531 0.008988
v 0.002741 0.052531 0.008988
vn 0.0969 0.9953 -0.0017
vn 0.3208 0.0174 -0.947
vn -0.8954 0.0177 0.445
vn 0.0969 0.9953 -0.0017
vn 0.106 0.9944 0.0044
vn 0.1046 0.9945 -0.0024
vn 0.1043 0.9945 -0.002
vn -0.8954 0.0176 0.445
vn -0.8954 0.0177 0.445
vn -0.8954 0.0176 0.4449
vn 0.0969 0.9953 -0.0017
vn 0.106 0.9944 0.0044
vn 0.3208 0.0174 -0.947
vn 0.3208 0.0176 -0.947
vn 0.3208 0.0177 -0.947
vn 0.3208 0.0176 -0.947
vn 0.1123 0.9937 0.0003
vn 0.106 0.9944 0.0044
vn 0.1043 0.9945 -0.002
vn 0.1162 0.9932 -0.0008
vn -0.8954 0.0176 0.4449
vn -0.8954 0.0174 0.4449
vn 0.1046 0.9945 -0.0024
vn 0.4384 0.0173 0.8986
vn 0.1123 0.9937 0.0003
vn 0.4384 0.0176 0.8986
vn 0.4383 0.0176 0.8987
vn 0.4384 0.0173 0.8986
vn 0.1046 0.9945 -0.0024
vn 0.1043 0.9945 -0.002
vn 0.1162 0.9932 -0.0008
vn 0.4384 0.0173 0.8986
vn 0.4383 0.0176 0.8987
vn 0.4383 0.0173 0.8986
vn 0.1185 0.9929 0.0004
vn 0.1123 0.9937 0.0003
vn 0.1162 0.9932 -0.0008
vn 0.3208 0.0177 -0.947
vn 0.3208 0.0173 -0.947
vn 0.1235 0.9923 -0.0011
vn 0.1185 0.9929 0.0004
vn 0.4384 0.0174 0.8986
vn 0.4384 0.0173 0.8986
vn 0.1185 0.9929 0.0004
vn 0.1235 0.9923 -0.0011
vn 0.4383 0.0172 0.8987
vn 0.3208 0.0176 -0.947
vn 0.3208 0.0173 -0.947
vn 0.1235 0.9923 -0.0011
vn 0.4383 0.0172 0.8987
vn 0.4384 0.0174 0.8986
vn 0.3208 0.0176 -0.947
vn 0.4383 0.0172 0.8987
vn 0.4384 0.0173 0.8986
vn 0.4383 0.0173 0.8986
vn 0.4384 0.0174 0.8986
vn 0.4383 0.0176 0.8987
vn 0.4384 0.0176 0.8986
vn 0.4383 0.0173 0.8986
vn 0.4384 0.0173 0.8986
vn -0.8954 0.0174 0.4449
vn 0.4384 0.0176 0.8986
vn -0.8954 0.0174 0.4449
vn -0.8954 0.0176 0.445
vn -0.8954 0.0176 0.4449
vn -0.8954 0.0176 0.445
vn 0.3208 0.0176 -0.947
vn -0.8954 0.0177 0.445
vn 0.3208 0.0174 -0.947
vn 0.3208 0.0176 -0.947
vn 0.3208 0.0177 -0.947
vn 0.3208 0.0177 -0.947
vn 0.3208 0.0173 -0.947
vn 0.3208 0.0176 -0.947
vn 0.3208 0.0173 -0.947
vn -0.8932 0.0179 0.4494
vn 0.3163 0.0163 -0.9485
vn 0.0891 0.996 0.0008
vn 0.0968 0.9953 -0.0004
vn -0.8932 0.0175 0.4494
vn -0.8932 0.0179 0.4494
vn 0.9478 0.0174 0.3185
vn 0.0891 0.996 0.0008
vn 0.0891 0.996 0.0008
vn 0.0968 0.9953 -0.0004
vn 0.3163 0.0163 -0.9485
vn 0.3162 0.0174 -0.9485
vn 0.316 0.0174 -0.9486
vn 0.9477 0.0177 0.3185
vn 0.316 0.0166 -0.9486
vn 0.316 0.0174 -0.9486
vn 0.0968 0.9953 -0.0004
vn 0.9478 0.0174 0.3185
vn 0.3162 0.0174 -0.9485
vn -0.8932 0.0179 0.4494
vn 0.3163 0.0163 -0.9485
vn -0.8932 0.0175 0.4494
vn 0.316 0.0166 -0.9486
vn 0.3162 0.0174 -0.9485
vn 0.316 0.0174 -0.9486
vn 0.9477 0.0177 0.3185
vn 0.316 0.0166 -0.9486
vn -0.8932 0.0175 0.4494
vn 0.9478 0.0174 0.3185
vn 0.9477 0.0177 0.3185
vn 0.1255 0.9921 -0.0007
vn -0.4384 0.0177 -0.8986
vn -0.307 0.0171 0.9516
vn -0.3069 0.0171 0.9516
vn 0.1348 0.9909 0.0007
vn -0.307 0.0171 0.9516
vn 0.1255 0.9921 -0.0007
vn -0.4384 0.0172 -0.8986
vn 0.1354 0.9908 0.0003
vn 0.1348 0.9909 0.0007
vn 0.1255 0.9921 -0.0007
vn -0.4384 0.0177 -0.8986
vn 0.1442 0.9895 -0.0002
vn 0.1354 0.9908 0.0003
vn 0.1348 0.9909 0.0007
vn -0.3069 0.0171 0.9516
vn -0.307 0.0175 0.9516
vn 0.9486 0.0175 0.3161
vn -0.4384 0.0172 -0.8986
vn -0.4384 0.0177 -0.8986
vn -0.4385 0.0177 -0.8986
vn 0.1354 0.9908 0.0003
vn 0.1442 0.9895 -0.0002
vn 0.9486 0.0175 0.3161
vn 0.9486 0.0177 0.3161
vn -0.4384 0.0171 -0.8986
vn 0.1442 0.9895 -0.0002
vn -0.4385 0.0177 -0.8986
vn -0.307 0.0171 0.9516
vn -0.307 0.0175 0.9516
vn -0.3069 0.0171 0.9516
vn -0.307 0.0175 0.9516
vn 0.9486 0.0175 0.3161
vn 0.9486 0.0177 0.3161
vn -0.4384 0.0172 -0.8986
vn -0.307 0.0171 0.9516
vn -0.4384 0.0177 -0.8986
vn 0.9486 0.0177 0.3161
vn -0.4384 0.0171 -0.8986
vn -0.4384 0.0172 -0.8986
vn -0.4384 0.0177 -0.8986
vn -0.4384 0.0171 -0.8986
vn -0.4385 0.0177 -0.8986
vn -0.4384 0.0177 -0.8986
vn -0.3185 0.0174 0.9478
vn -0.4428 0.0175 -0.8965
vn 0.0753 0.9972 -0.0023
vn 0.0834 0.9965 0.001
vn -0.3185 0.0173 0.9478
vn -0.3185 0.0174 0.9478
vn 0.0753 0.9972 -0.0023
vn -0.4427 0.0173 -0.8965
vn -0.4428 0.0173 -0.8965
vn -0.4428 0.0175 -0.8965
vn 0.0753 0.9972 -0.0023
vn 0.0834 0.9965 0.001
vn 0.0885 0.9961 -0.0012
vn 0.0885 0.9961 -0.0012
vn 0.094 0.9956 0.0011
vn -0.3185 0.0175 0.9478
vn -0.3185 0.0173 0.9478
vn 0.0834 0.9965 0.001
vn 0.094 0.9956 0.0011
vn -0.4428 0.0173 -0.8965
vn 0.0985 0.9951 -0.0002
vn 0.0885 0.9961 -0.0012
vn -0.4427 0.0172 -0.8965
vn -0.4428 0.0172 -0.8965
vn 0.9454 0.0174 0.3255
vn -0.3185 0.0175 0.9478
vn 0.0985 0.9951 -0.0002
vn 0.094 0.9956 0.0011
vn 0.1057 0.9944 0.0004
vn -0.3185 0.0174 0.9478
vn -0.4428 0.0172 -0.8965
vn -0.4427 0.0175 -0.8965
vn 0.1057 0.9944 0.0004
vn -0.4428 0.0175 -0.8965
vn 0.0985 0.9951 -0.0002
vn -0.4428 0.0173 -0.8965
vn -0.4427 0.0175 -0.8965
vn 0.1057 0.9944 0.0004
vn 0.9454 0.0175 0.3255
vn 0.9454 0.0174 0.3255
vn -0.3185 0.0175 0.9478
vn -0.3185 0.0174 0.9478
vn 0.9454 0.0175 0.3255
vn 0.9454 0.0174 0.3255
vn -0.3185 0.0174 0.9478
vn -0.3185 0.0175 0.9478
vn -0.3185 0.0173 0.9478
vn -0.4428 0.0175 -0.8965
vn -0.4427 0.0173 -0.8965
vn -0.3185 0.0173 0.9478
vn -0.3185 0.0174 0.9478
vn 0.9454 0.0175 0.3255
vn -0.4428 0.0173 -0.8965
vn -0.4427 0.0172 -0.8965
vn -0.4428 0.0173 -0.8965
vn -0.4427 0.0173 -0.8965
vn -0.4427 0.0172 -0.8965
vn -0.4428 0.0172 -0.8965
vn -0.4428 0.0175 -0.8965
vn -0.4428 0.0175 -0.8965
vn -0.4427 0.0175 -0.8965
vn -0.4428 0.0173 -0.8965
vn 0.0566 0.9984 -0.0014
vn -0.4594 0.0179 -0.8881
vn -0.3183 0.0177 0.9478
vn 0.064 0.9979 0.0007
vn 0.0566 0.9984 -0.0014
vn -0.3183 0.0176 0.9478
vn -0.3183 0.0177 0.9478
vn -0.4594 0.0179 -0.8881
vn 0.8963 0.0174 -0.4431
vn -0.4593 0.0174 -0.8881
vn 0.064 0.9979 0.0007
vn 0.0566 0.9984 -0.0014
vn 0.8963 0.0173 -0.4431
vn 0.8963 0.0174 -0.4431
vn -0.3183 0.0175 0.9478
vn 0.064 0.9979 0.0007
vn -0.3183 0.0176 0.9478
vn -0.3183 0.0175 0.9478
vn -0.3183 0.0176 0.9478
vn -0.3183 0.0175 0.9478
vn 0.8963 0.0173 -0.4431
vn -0.4594 0.0179 -0.8881
vn -0.4593 0.0174 -0.8881
vn -0.3183 0.0176 0.9478
vn -0.3183 0.0177 0.9478
vn 0.8963 0.0173 -0.4431
vn -0.4593 0.0174 -0.8881
vn 0.8963 0.0174 -0.4431
vn -0.8909 0.0176 0.4539
vn -0.4539 0.0177 -0.8909
vn 0.0805 0.9968 0.0001
vn -0.8909 0.0176 0.4539
vn -0.8909 0.0174 0.4539
vn 0.0893 0.996 -0.0001
vn 0.4539 0.0175 0.8909
vn 0.0805 0.9968 0.0001
vn -0.4539 0.0174 -0.8909
vn -0.4539 0.0177 -0.8909
vn 0.0805 0.9968 0.0001
vn 0.0892 0.996 0
vn 0.0893 0.996 -0.0001
vn 0.0892 0.996 0
vn 0.4539 0.0175 0.8909
vn 0.0893 0.996 -0.0001
vn 0.0971 0.9953 0
vn 0.4539 0.0174 0.8909
vn 0.0892 0.996 0
vn 0.8909 0.0177 -0.4539
vn -0.4539 0.0173 -0.8909
vn -0.4539 0.0174 -0.8909
vn 0.0971 0.9953 0
vn 0.8909 0.0177 -0.4539
vn 0.4539 0.0174 0.8909
vn 0.0971 0.9953 0
vn 0.8909 0.0175 -0.4539
vn 0.4539 0.0174 0.8909
vn 0.8909 0.0175 -0.4539
vn 0.4539 0.0174 0.8909
vn 0.4539 0.0175 0.8909
vn 0.4539 0.0174 0.8909
vn -0.8909 0.0174 0.4539
vn -0.8909 0.0174 0.4539
vn -0.8909 0.0176 0.4539
vn -0.4539 0.0177 -0.8909
vn -0.4539 0.0174 -0.8909
vn -0.4539 0.0174 -0.8909
vn -0.4539 0.0173 -0.8909
vn 0.8909 0.0175 -0.4539
vn -0.4539 0.0173 -0.8909
vn 0.8909 0.0177 -0.4539
vn -0.3399 0.0179 0.9403
vn 0.1004 0.9949 0.0013
vn -0.4445 0.0171 -0.8956
vn 0.1004 0.9949 0.0013
vn 0.447 0.0162 0.8944
vn 0.1082 0.9941 -0.0012
vn -0.3399 0.0179 0.9403
vn -0.3399 0.0163 0.9403
vn 0.1004 0.9949 0.0013
vn 0.1073 0.9942 0.0012
vn 0.1082 0.9941 -0.0012
vn -0.4445 0.0171 -0.8956
vn -0.4445 0.0174 -0.8956
vn 0.447 0.0162 0.8944
vn 0.447 0.0171 0.8944
vn 0.115 0.9934 -0.0013
vn 0.1082 0.9941 -0.0012
vn 0.1073 0.9942 0.0012
vn 0.4471 0.0171 0.8943
vn -0.4445 0.0174 -0.8956
vn 0.3263 0.0173 -0.9451
vn -0.4445 0.0176 -0.8956
vn 0.1073 0.9942 0.0012
vn 0.115 0.9934 -0.0013
vn 0.115 0.9934 -0.0013
vn 0.3263 0.0175 -0.9451
vn 0.3263 0.0173 -0.9451
vn 0.4471 0.0175 0.8943
vn 0.4471 0.0171 0.8943
vn 0.4471 0.0175 0.8943
vn 0.4471 0.0171 0.8943
vn 0.447 0.0171 0.8944
vn 0.4471 0.0175 0.8943
vn 0.3263 0.0175 -0.9451
vn 0.447 0.0171 0.8944
vn -0.3399 0.0163 0.9403
vn 0.447 0.0162 0.8944
vn -0.4445 0.0174 -0.8956
vn -0.3399 0.0163 0.9403
vn -0.3399 0.0179 0.9403
vn -0.4445 0.0171 -0.8956
vn -0.4445 0.0174 -0.8956
vn -0.4445 0.0176 -0.8956
vn -0.4445 0.0176 -0.8956
vn 0.3263 0.0173 -0.9451
vn 0.3263 0.0175 -0.9451
f 1//1 4//4 11//11
f 5//5 18//18 12//12
f 23//23 29//29 6//6
f 7//7 30//30 19//19
f 20//20 31//31 37//37
f 25//25 36//36 17//17
f 35//35 44//44 41//41
f 45//45 49//49 40//40
f 46//46 53//53 50//50
f 54//54 43//43 32//32
f 57//57 33//33 27//27
f 59//59 55//55 34//34
f 60//60 28//28 24//24
f 62//62 58//58 26//26
f 56//56 51//51 42//42
f 65//65 21//21 10//10
f 63//63 61//61 22//22
f 68//68 9//9 3//3
f 66//66 64//64 8//8
f 13//13 69//69 2//2
f 70//70 67//67 14//14
f 16//16 70//70 14//14
f 72//72 71//71 15//15
f 38//38 72//72 15//15
f 75//75 73//73 39//39
f 48//48 75//75 39//39
f 52//52 74//74 47//47
f 78//78 83//83 84//84
f 85//85 79//79 92//92
f 86//86 96//96 77//77
f 99//99 94//94 87//87
f 91//91 100//100 88//88
f 102//102 98//98 90//90
f 95//95 81//81 76//76
f 97//97 103//103 80//80
f 104//104 93//93 82//82
f 105//105 101//101 89//89
f 106//106 112//112 116//116
f 114//114 119//119 127//127
f 128//128 118//118 132//132
f 110//110 120//120 115//115
f 136//136 121//121 109//109
f 135//135 137//137 122//122
f 141//141 111//111 108//108
f 141//141 134//134 111//111
f 138//138 129//129 123//123
f 139//139 143//143 130//130
f 117//117 142//142 107//107
f 145//145 140//140 113//113
f 124//124 145//145 113//113
f 149//149 146//146 125//125
f 133//133 148//148 126//126
f 144//144 147//147 131//131
f 152//152 156//156 160//160
f 162//162 163//163 171//171
f 153//153 167//167 161//161
f 170//170 176//176 184//184
f 182//182 178//178 187//187
f 164//164 177//177 168//168
f 190//190 175//175 165//165
f 191//191 194//194 179//179
f 196//196 166//166 154//154
f 195//195 190//190 165//165
f 200//200 155//155 150//150
f 199//199 196//196 154//154
f 193//193 189//189 174//174
f 192//192 201//201 188//188
f 159//159 197//197 151//151
f 205//205 198//198 157//157
f 169//169 204//204 158//158
f 206//206 203//203 172//172
f 180//180 207//207 173//173
f 209//209 208//208 183//183
f 186//186 210//210 181//181
f 202//202 211//211 185//185
f 212//212 216//216 223//223
f 215//215 227//227 222//222
f 230//230 228//228 217//217
f 229//229 231//231 226//226
f 236//236 218//218 214//214
f 235//235 230//230 217//217
f 219//219 233//233 213//213
f 238//238 234//234 221//221
f 225//225 239//239 220//220
f 232//232 237//237 224//224
f 242//242 247//247 250//250
f 251//251 253//253 258//258
f 245//245 255//255 252//252
f 256//256 265//265 262//262
f 267//267 264//264 257//257
f 267//267 269//269 264//264
f 270//270 254//254 246//246
f 271//271 267//267 257//257
f 274//274 243//243 240//240
f 273//273 272//272 244//244
f 249//249 275//275 241//241
f 277//277 276//276 248//248
f 261//261 277//277 248//248
f 280//280 278//278 260//260
f 263//263 281//281 259//259
f 268//268 279//279 266//266
f 283//283 285//285 290//290
f 291//291 299//299 304//304
f 287//287 298//298 292//292
f 297//297 306//306 305//305
f 312//312 310//310 300//300
f 311//311 314//314 309//309
f 318//318 295//295 286//286
f 316//316 313//313 296//296
f 321//321 288//288 282//282
f 320//320 317//317 289//289
f 293//293 322//322 284//284
f 323//323 319//319 294//294
f 301//301 323//323 294//294
f 325//325 324//324 303//303
f 308//308 326//326 302//302
f 315//315 327//327 307//307
