mtllib material_0.mtl
usemtl material_0
v -0.004431 0.081533 0.073146
v -0.004431 0.081533 0.073146
v -0.004431 0.081533 0.073146
v -0.004431 0.081533 0.073146
v -0.004431 0.081533 0.073146
v -0.004431 0.081533 0.073146
v -0.004431 0.081533 0.073146
v -0.004431 0.081533 0.073146
v -0.004527 0.082511 0.072665
v -0.004527 0.082511 0.072665
v -0.004527 0.082511 0.072665
v -0.004527 0.082511 0.072665
v -0.004527 0.082511 0.072665
v -0.004527 0.082511 0.072665
v -0.004527 0.082511 0.072665
v -0.003935 0.081323 0.072909
v -0.003935 0.081323 0.072909
v -0.003935 0.081323 0.072909
v -0.003935 0.081323 0.072909
v -0.003935 0.081323 0.072909
v -0.003935 0.081323 0.072909
v -0.003635 0.081997 0.072187
v -0.003635 0.081997 0.072187
v -0.003635 0.081997 0.072187
v -0.003635 0.081997 0.072187
v -0.003635 0.081997 0.072187
v -0.005401 0.082981 0.072448
v -0.005401 0.082981 0.072448
v -0.005401 0.082981 0.072448
v -0.005401 0.082981 0.072448
v -0.005401 0.082981 0.072448
v -0.005711 0.082229 0.073157
v -0.005711 0.082229 0.073157
v -0.005711 0.082229 0.073157
v -0.005711 0.082229 0.073157
v -0.005711 0.082229 0.073157
v -0.005711 0.082229 0.073157
v -0.006985 0.084673 0.069521
v -0.006985 0.084673 0.069521
v -0.006985 0.084673 0.069521
v -0.006985 0.084673 0.069521
v -0.006985 0.084673 0.069521
v -0.004718 0.084623 0.069164
v -0.004718 0.084623 0.069164
v -0.004718 0.084623 0.069164
v -0.004718 0.084623 0.069164
v -0.004718 0.084623 0.069164
v -0.004718 0.084623 0.069164
v -0.010945 0.081424 0.070163
v -0.010945 0.081424 0.070163
v -0.010945 0.081424 0.070163
v -0.010945 0.081424 0.070163
v -0.010945 0.081424 0.070163
v -0.008985 0.083524 0.069846
v -0.008985 0.083524 0.069846
v -0.008985 0.083524 0.069846
v -0.008985 0.083524 0.069846
v -0.008985 0.083524 0.069846
v -0.008985 0.083524 0.069846
v -0.017664 0.040439 0.071251
v -0.017664 0.040439 0.071251
v -0.017664 0.040439 0.071251
v -0.017664 0.040439 0.071251
v -0.017664 0.040439 0.071251
v -0.017664 0.040439 0.071251
v -0.017664 0.040439 0.071251
v -0.00962 0.01322 0.069984
v -0.00962 0.01322 0.069984
v -0.00962 0.01322 0.069984
v -0.00962 0.01322 0.069984
v -0.00962 0.01322 0.069984
v -0.00962 0.01322 0.069984
v -0.012905 0.076095 0.07048
v -0.012905 0.076095 0.07048
v -0.012905 0.076095 0.07048
v -0.012905 0.076095 0.07048
v -0.012905 0.076095 0.07048
v -0.012905 0.076095 0.07048
v -0.012905 0.076095 0.07048
v -0.012905 0.076095 0.07048
v -0.001971 0.08134 0.068709
v -0.001971 0.08134 0.068709
v -0.001971 0.08134 0.068709
v -0.001971 0.08134 0.068709
v -0.001971 0.08134 0.068709
v -0.001971 0.08134 0.068709
v -0.001971 0.08134 0.068709
v -0.001971 0.08134 0.068709
v -0.001971 0.08134 0.068709
v -0.001971 0.08134 0.068709
v -0.002657 0.083055 0.068821
v -0.002657 0.083055 0.068821
v -0.002657 0.083055 0.068821
v -0.002657 0.083055 0.068821
v -0.002657 0.083055 0.068821
v -0.003604 0.084033 0.068982
v -0.003604 0.084033 0.068982
v -0.003604 0.084033 0.068982
v -0.003604 0.084033 0.068982
v -0.012107 0.0791 0.070351
v -0.012107 0.0791 0.070351
v -0.012107 0.0791 0.070351
v -0.012107 0.0791 0.070351
v -0.010199 0.011396 0.070988
v -0.010199 0.011396 0.070988
v -0.010199 0.011396 0.070988
v -0.010199 0.011396 0.070988
v -0.011116 0.010156 0.073111
v -0.011116 0.010156 0.073111
v -0.011116 0.010156 0.073111
v -0.011116 0.010156 0.073111
v -0.011116 0.010156 0.073111
v -0.011116 0.010156 0.073111
v -0.011116 0.010156 0.073111
v -0.006166 0.082825 0.072596
v -0.006166 0.082825 0.072596
v -0.006166 0.082825 0.072596
v -0.006166 0.082825 0.072596
v -0.006166 0.082825 0.072596
v -0.014146 0.049934 0.073857
v -0.014146 0.049934 0.073857
v -0.014146 0.049934 0.073857
v -0.014146 0.049934 0.073857
v -0.012911 0.05861 0.073778
v -0.012911 0.05861 0.073778
v -0.012911 0.05861 0.073778
v -0.012911 0.05861 0.073778
v -0.012911 0.05861 0.073778
v -0.012911 0.05861 0.073778
v -0.010242 0.076454 0.073544
v -0.010242 0.076454 0.073544
v -0.010242 0.076454 0.073544
v -0.010242 0.076454 0.073544
v -0.010242 0.076454 0.073544
v -0.010242 0.076454 0.073544
v -0.011042 0.073624 0.07319
v -0.011042 0.073624 0.07319
v -0.011042 0.073624 0.07319
v -0.011042 0.073624 0.07319
v -0.011042 0.073624 0.07319
v -0.020778 0.013176 0.071827
v -0.020778 0.013176 0.071827
v -0.020778 0.013176 0.071827
v -0.020778 0.013176 0.071827
v -0.020778 0.013176 0.071827
v -0.020019 0.010882 0.073104
v -0.020019 0.010882 0.073104
v -0.020019 0.010882 0.073104
v -0.020019 0.010882 0.073104
v -0.011902 0.065557 0.073705
v -0.011902 0.065557 0.073705
v -0.011902 0.065557 0.073705
v -0.011902 0.065557 0.073705
v -0.011902 0.065557 0.073705
v -0.011902 0.065557 0.073705
v -0.007577 0.081591 0.073148
v -0.007577 0.081591 0.073148
v -0.007577 0.081591 0.073148
v -0.007577 0.081591 0.073148
v -0.007577 0.081591 0.073148
v -0.007577 0.081591 0.073148
v -0.007577 0.081591 0.073148
v -0.00843 0.080981 0.07301
v -0.00843 0.080981 0.07301
v -0.00843 0.080981 0.07301
v -0.00843 0.080981 0.07301
v -0.018701 0.010147 0.07484
v -0.018701 0.010147 0.07484
v -0.018701 0.010147 0.07484
v -0.018701 0.010147 0.07484
v -0.018701 0.010147 0.07484
v -0.018701 0.010147 0.07484
v -0.018701 0.010147 0.07484
v -0.018701 0.010147 0.07484
v -0.012206 0.010044 0.074395
v -0.012206 0.010044 0.074395
v -0.012206 0.010044 0.074395
v -0.012206 0.010044 0.074395
v -0.012206 0.010044 0.074395
v -0.012206 0.010044 0.074395
v -0.012206 0.010044 0.074395
v -0.012206 0.010044 0.074395
v -0.012206 0.010044 0.074395
v -0.012206 0.010044 0.074395
v -0.012206 0.010044 0.074395
v -0.017628 0.010097 0.075258
v -0.017628 0.010097 0.075258
v -0.017628 0.010097 0.075258
v -0.017628 0.010097 0.075258
v -0.017628 0.010097 0.075258
v -0.003311 0.081087 0.072208
v -0.003311 0.081087 0.072208
v -0.003311 0.081087 0.072208
v -0.003311 0.081087 0.072208
v -0.003311 0.081087 0.072208
v -0.003311 0.081087 0.072208
v -0.008912 0.078688 0.073707
v -0.008912 0.078688 0.073707
v -0.008912 0.078688 0.073707
v -0.008912 0.078688 0.073707
v -0.008912 0.078688 0.073707
v -0.0098 0.078732 0.073233
v -0.0098 0.078732 0.073233
v -0.0098 0.078732 0.073233
v -0.0098 0.078732 0.073233
v -0.0098 0.078732 0.073233
v -0.0098 0.078732 0.073233
v -0.0098 0.078732 0.073233
v -0.009884 0.071533 0.073997
v -0.009884 0.071533 0.073997
v -0.009884 0.071533 0.073997
v -0.009884 0.071533 0.073997
v -0.009884 0.071533 0.073997
v -0.010671 0.072179 0.073726
v -0.010671 0.072179 0.073726
v -0.010671 0.072179 0.073726
v -0.010671 0.072179 0.073726
v -0.010671 0.072179 0.073726
v -0.009405 0.074698 0.073931
v -0.009405 0.074698 0.073931
v -0.009405 0.074698 0.073931
v -0.009405 0.074698 0.073931
v -0.009405 0.074698 0.073931
v -0.009405 0.074698 0.073931
v -0.012957 0.049815 0.07446
v -0.012957 0.049815 0.07446
v -0.012957 0.049815 0.07446
v -0.012957 0.049815 0.07446
v -0.011938 0.057203 0.074315
v -0.011938 0.057203 0.074315
v -0.011938 0.057203 0.074315
v -0.011938 0.057203 0.074315
v -0.011938 0.057203 0.074315
v -0.01121 0.067024 0.073941
v -0.01121 0.067024 0.073941
v -0.01121 0.067024 0.073941
v -0.01121 0.067024 0.073941
v -0.01121 0.067024 0.073941
v -0.011025 0.064684 0.074153
v -0.011025 0.064684 0.074153
v -0.011025 0.064684 0.074153
v -0.011025 0.064684 0.074153
v -0.011025 0.064684 0.074153
v -0.011025 0.064684 0.074153
v -0.011025 0.064684 0.074153
v -0.007303 0.080359 0.073611
v -0.007303 0.080359 0.073611
v -0.007303 0.080359 0.073611
v -0.007303 0.080359 0.073611
v -0.007303 0.080359 0.073611
v -0.013655 0.04941 0.074283
v -0.013655 0.04941 0.074283
v -0.013655 0.04941 0.074283
v -0.013655 0.04941 0.074283
v -0.013655 0.04941 0.074283
v -0.013655 0.04941 0.074283
v -0.013655 0.04941 0.074283
v -0.013655 0.04941 0.074283
v -0.013655 0.04941 0.074283
v -0.015694 0.024869 0.074969
v -0.015694 0.024869 0.074969
v -0.015694 0.024869 0.074969
v -0.014898 0.03299 0.074811
v -0.014898 0.03299 0.074811
v -0.014898 0.03299 0.074811
v -0.014898 0.03299 0.074811
v -0.014898 0.03299 0.074811
v -0.013936 0.041035 0.074651
v -0.013936 0.041035 0.074651
v -0.013936 0.041035 0.074651
v -0.013936 0.041035 0.074651
v -0.012303 0.058998 0.074112
v -0.012303 0.058998 0.074112
v -0.012303 0.058998 0.074112
v -0.012303 0.058998 0.074112
v -0.012303 0.058998 0.074112
vn 0.2503 0.4465 0.8591
vn 0.4202 -0.0298 0.907
vn 0.0947 0.1584 0.9828
vn 0.1618 -0.0044 0.9868
vn 0.1611 -0.0038 0.9869
vn 0.1624 -0.0045 0.9867
vn 0.1482 0.0012 0.989
vn 0.529 0.4155 0.74
vn 0.4762 0.7641 0.4352
vn 0.3218 0.8183 0.4763
vn 0.529 0.4155 0.74
vn 0.6073 0.4387 0.6624
vn 0.6119 0.6649 0.4283
vn 0.2503 0.4465 0.8591
vn 0.1588 0.6417 0.7503
vn 0.6073 0.4387 0.6624
vn 0.529 0.4155 0.74
vn 0.4202 -0.0298 0.907
vn 0.7613 0.2848 0.5826
vn 0.7633 -0.0752 0.6416
vn 0.7326 -0.072 0.6768
vn 0.8777 0.321 0.3559
vn 0.7613 0.2848 0.5826
vn 0.6119 0.6649 0.4283
vn 0.6923 0.6061 0.3916
vn 0.6073 0.4387 0.6624
vn -0.0704 0.8466 0.5276
vn 0.3218 0.8183 0.4763
vn 0.1588 0.6417 0.7503
vn 0.0012 0.6856 0.728
vn 0.0919 0.8828 0.4607
vn -0.2034 0.5839 0.7859
vn -0.1161 0.327 0.9379
vn 0.0012 0.6856 0.728
vn 0.2503 0.4465 0.8591
vn 0.0947 0.1584 0.9828
vn 0.1588 0.6417 0.7503
vn -0.3475 0.7599 0.5493
vn -0.1556 0.0065 -0.9878
vn -0.16 -0.0003 -0.9871
vn -0.0704 0.8466 0.5276
vn 0.0919 0.8828 0.4607
vn -0.1556 0.0065 -0.9878
vn 0.3218 0.8183 0.4763
vn 0.0919 0.8828 0.4607
vn -0.1542 0.0131 -0.988
vn -0.1653 -0.0018 -0.9862
vn 0.4762 0.7641 0.4352
vn -0.5502 0.6012 0.5796
vn -0.6919 0.395 0.6043
vn -0.1599 0 -0.9871
vn -0.634 0.4487 0.6299
vn -0.1599 0.0001 -0.9871
vn -0.5317 0.6122 0.5852
vn -0.16 -0.0003 -0.9871
vn -0.5502 0.6012 0.5796
vn -0.1599 0 -0.9871
vn -0.3475 0.7599 0.5493
vn -0.3932 0.7105 0.5836
vn -0.7767 0.117 0.6189
vn -0.7558 0.1025 0.6467
vn -0.7686 0.1012 0.6317
vn -0.163 -0.0022 -0.9866
vn -0.7738 0.1158 0.6227
vn -0.1598 0 -0.9871
vn -0.158 -0.0007 -0.9874
vn 0.9317 -0.0981 0.3496
vn -0.163 -0.0022 -0.9866
vn -0.1446 -0.4413 -0.8856
vn -0.158 -0.0007 -0.9874
vn 0.9318 -0.0981 0.3495
vn 0.9342 -0.1092 0.3397
vn -0.7627 0.1218 0.6352
vn -0.7478 0.2301 0.6228
vn -0.7558 0.1334 0.6411
vn -0.7767 0.117 0.6189
vn -0.7465 0.2248 0.6263
vn -0.16 0.0003 -0.9871
vn -0.7701 0.1185 0.6268
vn -0.1598 0 -0.9871
vn -0.1598 0 -0.9871
vn -0.16 0.0003 -0.9871
vn 0.9317 -0.0981 0.3496
vn 0.8747 0.3263 0.3584
vn -0.158 -0.0007 -0.9874
vn -0.1599 0.0001 -0.9871
vn -0.1653 -0.0018 -0.9862
vn -0.16 -0.0003 -0.9871
vn -0.1556 0.0065 -0.9878
vn -0.1599 0 -0.9871
vn 0.6923 0.6061 0.3916
vn -0.1542 0.0131 -0.988
vn -0.1653 -0.0018 -0.9862
vn 0.8777 0.321 0.3559
vn 0.8747 0.3263 0.3584
vn 0.6119 0.6649 0.4283
vn 0.4762 0.7641 0.4352
vn -0.1542 0.0131 -0.988
vn 0.6923 0.6061 0.3916
vn -0.16 0.0003 -0.9871
vn -0.1599 0.0001 -0.9871
vn -0.7465 0.2248 0.6263
vn -0.6919 0.395 0.6043
vn -0.0687 -0.8483 -0.525
vn -0.1541 -0.5189 -0.8408
vn 0.9342 -0.1092 0.3397
vn -0.1446 -0.4413 -0.8856
vn 0.9342 -0.1092 0.3397
vn 0.9318 -0.0981 0.3495
vn -0.023 -0.9941 -0.1063
vn 0.7633 -0.0752 0.6416
vn -0.0762 -0.9377 -0.3391
vn -0.0687 -0.8483 -0.525
vn 0.7326 -0.072 0.6768
vn -0.2034 0.5839 0.7859
vn 0.0012 0.6856 0.728
vn -0.3475 0.7599 0.5493
vn -0.0704 0.8466 0.5276
vn -0.3932 0.7105 0.5836
vn -0.5979 0.0881 0.7967
vn -0.7558 0.1025 0.6467
vn -0.5952 0.0919 0.7983
vn -0.7738 0.1158 0.6227
vn -0.5952 0.0919 0.7983
vn -0.7701 0.1185 0.6268
vn -0.5197 0.0845 0.8501
vn -0.7738 0.1158 0.6227
vn -0.7767 0.117 0.6189
vn -0.5215 0.0887 0.8486
vn -0.7558 0.1334 0.6411
vn -0.6739 0.0988 0.7322
vn -0.2629 0.0864 0.961
vn -0.7478 0.2301 0.6228
vn -0.4529 0.2063 0.8674
vn -0.2935 0.0701 0.9534
vn -0.6739 0.0988 0.7322
vn -0.7558 0.1334 0.6411
vn -0.7627 0.1218 0.6352
vn -0.6706 0.1007 0.735
vn -0.5218 0.1096 0.846
vn -0.1446 -0.4413 -0.8856
vn -0.1541 -0.5189 -0.8408
vn -0.7738 0.0926 0.6267
vn -0.7686 0.1012 0.6317
vn -0.163 -0.0022 -0.9866
vn -0.0687 -0.8483 -0.525
vn -0.0762 -0.9377 -0.3391
vn -0.1541 -0.5189 -0.8408
vn -0.7738 0.0926 0.6267
vn -0.7627 0.1218 0.6352
vn -0.4155 0.0494 0.9083
vn -0.7701 0.1185 0.6268
vn -0.5197 0.0845 0.8501
vn -0.3891 0.0807 0.9176
vn -0.5218 0.1096 0.846
vn -0.4262 0.3563 0.8315
vn -0.2034 0.5839 0.7859
vn -0.1161 0.327 0.9379
vn -0.5317 0.6122 0.5852
vn -0.3617 0.3075 0.8801
vn -0.3932 0.7105 0.5836
vn -0.2484 0.2922 0.9235
vn -0.634 0.4487 0.6299
vn -0.5502 0.6012 0.5796
vn -0.5317 0.6122 0.5852
vn -0.3617 0.3075 0.8801
vn -0.5979 0.0881 0.7967
vn -0.7686 0.1012 0.6317
vn -0.023 -0.9941 -0.1063
vn -0.3599 0.0595 0.9311
vn -0.0762 -0.9377 -0.3391
vn -0.7738 0.0926 0.6267
vn -0.0205 -0.9974 -0.0685
vn -0.7558 0.1025 0.6467
vn 0.1573 -0.0013 0.9876
vn 0.1585 0.0007 0.9874
vn 0.1345 0.0009 0.9909
vn 0.172 0.0023 0.9851
vn 0.1482 0.0012 0.989
vn 0.1685 0.0007 0.9857
vn -0.0205 -0.9974 -0.0685
vn 0.4202 -0.0298 0.907
vn -0.023 -0.9941 -0.1063
vn 0.7633 -0.0752 0.6416
vn 0.1766 0.0017 0.9843
vn -0.3599 0.0595 0.9311
vn -0.0205 -0.9974 -0.0685
vn -0.2781 0.0519 0.9591
vn 0.0038 0.0191 0.9998
vn 0.1573 -0.0013 0.9876
vn 0.9317 -0.0981 0.3496
vn 0.8777 0.321 0.3559
vn 0.8747 0.3263 0.3584
vn 0.7326 -0.072 0.6768
vn 0.7613 0.2848 0.5826
vn 0.9318 -0.0981 0.3495
vn -0.4529 0.2063 0.8674
vn -0.2629 0.0864 0.961
vn -0.2484 0.2922 0.9235
vn 0.0017 0.0558 0.9984
vn -0.4262 0.3563 0.8315
vn -0.7465 0.2248 0.6263
vn -0.7478 0.2301 0.6228
vn -0.4529 0.2063 0.8674
vn -0.6919 0.395 0.6043
vn -0.634 0.4487 0.6299
vn -0.4262 0.3563 0.8315
vn -0.3617 0.3075 0.8801
vn -0.2786 0.0621 0.9584
vn -0.2654 0.0662 0.9619
vn 0.1624 -0.0045 0.9867
vn 0.1611 -0.0038 0.9869
vn -0.2736 0.0686 0.9594
vn -0.6706 0.1007 0.735
vn -0.6739 0.0988 0.7322
vn -0.2935 0.0701 0.9534
vn -0.2786 0.0621 0.9584
vn -0.2736 0.0686 0.9594
vn -0.2786 0.0621 0.9584
vn 0.0017 0.0558 0.9984
vn 0.1611 -0.0038 0.9869
vn -0.2629 0.0864 0.961
vn -0.2935 0.0701 0.9534
vn 0.1618 -0.0044 0.9868
vn 0.1766 0.0017 0.9843
vn -0.2761 0.0569 0.9594
vn -0.2732 0.0513 0.9606
vn 0.1345 0.0009 0.9909
vn 0.1345 0.0009 0.9909
vn -0.2706 0.0538 0.9612
vn 0.1685 0.0007 0.9857
vn -0.2664 0.0548 0.9623
vn -0.2761 0.0569 0.9594
vn -0.2654 0.0662 0.9619
vn -0.5218 0.1096 0.846
vn -0.2736 0.0686 0.9594
vn -0.6706 0.1007 0.735
vn -0.4155 0.0494 0.9083
vn 0.1482 0.0012 0.989
vn -0.4155 0.0494 0.9083
vn -0.2706 0.0538 0.9612
vn -0.2654 0.0662 0.9619
vn 0.1685 0.0007 0.9857
vn 0.1624 -0.0045 0.9867
vn -0.3891 0.0807 0.9176
vn 0.0947 0.1584 0.9828
vn -0.2484 0.2922 0.9235
vn 0.1618 -0.0044 0.9868
vn -0.1161 0.327 0.9379
vn 0.0017 0.0558 0.9984
vn -0.2664 0.0548 0.9623
vn -0.3599 0.0595 0.9311
vn -0.2781 0.0519 0.9591
vn -0.5215 0.0887 0.8486
vn -0.2761 0.0569 0.9594
vn -0.5952 0.0919 0.7983
vn -0.5979 0.0881 0.7967
vn -0.2732 0.0513 0.9606
vn -0.2684 0.0512 0.9619
vn 0.1573 -0.0013 0.9876
vn 0.172 0.0023 0.9851
vn 0.0038 0.0191 0.9998
vn -0.2781 0.0519 0.9591
vn 0.172 0.0023 0.9851
vn 0.1585 0.0007 0.9874
vn 0.0038 0.0191 0.9998
vn -0.2684 0.0512 0.9619
vn 0.1766 0.0017 0.9843
vn -0.2732 0.0513 0.9606
vn 0.1585 0.0007 0.9874
vn -0.2684 0.0512 0.9619
vn -0.3891 0.0807 0.9176
vn -0.2664 0.0548 0.9623
vn -0.5215 0.0887 0.8486
vn -0.2706 0.0538 0.9612
vn -0.5197 0.0845 0.8501
f 14//14 35//35 1//1
f 30//30 116//116 34//34
f 195//195 23//23 19//19
f 29//29 37//37 15//15
f 26//26 12//12 16//16
f 11//11 8//8 17//17
f 39//39 43//43 89//89
f 55//55 40//40 88//88
f 63//63 68//68 145//145
f 81//81 65//65 80//80
f 57//57 90//90 51//51
f 85//85 70//70 66//66
f 46//46 98//98 92//92
f 47//47 93//93 87//87
f 100//100 82//82 78//78
f 53//53 86//86 101//101
f 72//72 108//108 106//106
f 196//196 109//109 71//71
f 83//83 191//191 67//67
f 117//117 38//38 58//58
f 44//44 28//28 10//10
f 27//27 41//41 118//118
f 45//45 42//42 31//31
f 96//96 13//13 24//24
f 97//97 48//48 9//9
f 25//25 91//91 99//99
f 192//192 94//94 22//22
f 193//193 84//84 95//95
f 133//133 203//203 74//74
f 61//61 174//174 121//121
f 168//168 62//62 144//144
f 137//137 130//130 75//75
f 149//149 172//172 143//143
f 161//161 119//119 59//59
f 150//150 138//138 73//73
f 165//165 159//159 54//54
f 164//164 56//56 49//49
f 125//125 152//152 79//79
f 128//128 76//76 60//60
f 206//206 163//163 52//52
f 205//205 50//50 103//103
f 123//123 127//127 64//64
f 202//202 102//102 77//77
f 169//169 110//110 183//183
f 187//187 173//173 181//181
f 141//141 69//69 107//107
f 148//148 142//142 105//105
f 146//146 104//104 113//113
f 171//171 147//147 112//112
f 18//18 2//2 182//182
f 20//20 184//184 111//111
f 194//194 21//21 114//114
f 250//250 200//200 220//220
f 156//156 207//207 201//201
f 160//160 166//166 208//208
f 238//238 151//151 240//240
f 247//247 162//162 199//199
f 217//217 209//209 219//219
f 157//157 32//32 115//115
f 252//252 170//170 186//186
f 249//249 33//33 158//158
f 246//246 3//3 36//36
f 263//263 253//253 188//188
f 266//266 189//189 262//262
f 257//257 120//120 167//167
f 271//271 259//259 267//267
f 227//227 258//258 269//269
f 256//256 124//124 122//122
f 255//255 226//226 233//233
f 251//251 232//232 273//273
f 129//129 254//254 274//274
f 131//131 136//136 215//215
f 275//275 230//230 241//241
f 276//276 153//153 126//126
f 223//223 135//135 216//216
f 272//272 245//245 154//154
f 198//198 132//132 222//222
f 234//234 242//242 210//210
f 235//235 140//140 155//155
f 197//197 204//204 134//134
f 236//236 213//213 218//218
f 214//214 139//139 237//237
f 224//224 4//4 248//248
f 212//212 5//5 221//221
f 244//244 6//6 211//211
f 178//178 264//264 261//261
f 176//176 270//270 265//265
f 190//190 175//175 260//260
f 179//179 7//7 239//239
f 180//180 243//243 231//231
f 177//177 229//229 228//228
f 185//185 225//225 268//268
