mtllib material_0.mtl
usemtl material_0
v -0.097401 -0.000581 0.076129
v -0.097401 -0.000581 0.076129
v -0.097401 -0.000581 0.076129
v -0.097401 -0.000581 0.076129
v -0.098517 -0.000862 0.075814
v -0.098517 -0.000862 0.075814
v -0.098517 -0.000862 0.075814
v -0.098517 -0.000862 0.075814
v -0.098517 -0.000862 0.075814
v -0.098517 -0.000862 0.075814
v -0.097444 -0.001001 0.075611
v -0.097444 -0.001001 0.075611
v -0.097444 -0.001001 0.075611
v -0.098683 -0.000497 0.076111
v -0.098683 -0.000497 0.076111
v -0.098683 -0.000497 0.076111
v -0.098683 -0.000497 0.076111
v -0.098683 -0.000497 0.076111
v -0.099984 -0.000728 0.075905
v -0.099984 -0.000728 0.075905
v -0.099984 -0.000728 0.075905
v -0.099984 -0.000728 0.075905
v -0.099984 -0.000728 0.075905
v -0.099984 -0.000728 0.075905
v -0.099984 -0.000728 0.075905
v -0.099956 -0.000992 0.075495
v -0.099956 -0.000992 0.075495
v -0.099956 -0.000992 0.075495
v -0.097252 0.001 0.075634
v -0.097252 0.001 0.075634
v -0.097252 0.001 0.075634
v -0.09735 0.000107 0.076275
v -0.09735 0.000107 0.076275
v -0.09735 0.000107 0.076275
v -0.09735 0.000107 0.076275
v -0.09735 0.000107 0.076275
v -0.096983 -0.000147 0.076195
v -0.096983 -0.000147 0.076195
v -0.096983 -0.000147 0.076195
v -0.096983 -0.000147 0.076195
v -0.096983 -0.000147 0.076195
v -0.096983 -0.000147 0.076195
v -0.097274 0.000556 0.076148
v -0.097274 0.000556 0.076148
v -0.097274 0.000556 0.076148
v -0.097274 0.000556 0.076148
v -0.097274 0.000556 0.076148
v -0.097274 0.000556 0.076148
v -0.097274 0.000556 0.076148
v -0.097274 0.000556 0.076148
v -0.097157 -0.000775 0.075953
v -0.097157 -0.000775 0.075953
v -0.097157 -0.000775 0.075953
v -0.097157 -0.000775 0.075953
v -0.097157 -0.000775 0.075953
v -0.097157 -0.000775 0.075953
v -0.097157 -0.000775 0.075953
v -0.097157 -0.000775 0.075953
v -0.097288 -0.000311 0.076241
v -0.097288 -0.000311 0.076241
v -0.097288 -0.000311 0.076241
v -0.097288 -0.000311 0.076241
v -0.097288 -0.000311 0.076241
v -0.097288 -0.000311 0.076241
v -0.0967 -0.000322 0.075948
v -0.0967 -0.000322 0.075948
v -0.0967 -0.000322 0.075948
v -0.0967 -0.000322 0.075948
v -0.0967 -0.000322 0.075948
v -0.096988 -0.000893 0.075651
v -0.096988 -0.000893 0.075651
v -0.096701 -0.000653 0.075666
v -0.096701 -0.000653 0.075666
v -0.096701 -0.000653 0.075666
v -0.096794 0.000386 0.076025
v -0.096794 0.000386 0.076025
v -0.096794 0.000386 0.076025
v -0.096794 0.000386 0.076025
v -0.096794 0.000386 0.076025
v -0.096794 0.000386 0.076025
v -0.096469 -0.000201 0.075682
v -0.096469 -0.000201 0.075682
v -0.096469 -0.000201 0.075682
v -0.096502 0.0003 0.07568
v -0.096502 0.0003 0.07568
v -0.09677 0.000751 0.075666
v -0.09677 0.000751 0.075666
v -0.09677 0.000751 0.075666
v -0.098685 0.000398 0.076144
v -0.098685 0.000398 0.076144
v -0.098685 0.000398 0.076144
v -0.098685 0.000398 0.076144
v -0.098685 0.000398 0.076144
v -0.098697 0.000841 0.075831
v -0.098697 0.000841 0.075831
v -0.098697 0.000841 0.075831
v -0.098697 0.000841 0.075831
v -0.098697 0.000841 0.075831
v -0.099939 0.000569 0.076014
v -0.099939 0.000569 0.076014
v -0.099939 0.000569 0.076014
v -0.099939 0.000569 0.076014
v -0.099939 0.000569 0.076014
v -0.100037 0.000994 0.075496
v -0.100037 0.000994 0.075496
v -0.098635 0.000998 0.075547
v -0.098635 0.000998 0.075547
v -0.098635 0.000998 0.075547
v -0.100121 0.000861 0.075723
v -0.100121 0.000861 0.075723
v -0.100121 0.000861 0.075723
v -0.100121 0.000861 0.075723
v -0.100121 0.000861 0.075723
v -0.100121 0.000861 0.075723
v -0.100121 0.000861 0.075723
v -0.100104 0.000342 0.076095
v -0.100104 0.000342 0.076095
v -0.100104 0.000342 0.076095
v -0.100104 0.000342 0.076095
v -0.100104 0.000342 0.076095
v -0.100104 0.000342 0.076095
v -0.100104 0.000342 0.076095
v -0.10044 0.000765 0.075475
v -0.10044 0.000765 0.075475
v -0.10044 0.000765 0.075475
v -0.100551 0.000456 0.07573
v -0.100551 0.000456 0.07573
v -0.100551 0.000456 0.07573
v -0.100551 0.000456 0.07573
v -0.100551 0.000456 0.07573
v -0.100804 -0.000155 0.075465
v -0.100804 -0.000155 0.075465
v -0.100804 -0.000155 0.075465
v -0.100622 4E-05 0.075831
v -0.100622 4E-05 0.075831
v -0.100622 4E-05 0.075831
v -0.100622 4E-05 0.075831
v -0.100622 4E-05 0.075831
v -0.100622 4E-05 0.075831
v -0.100613 -0.000589 0.075471
v -0.100613 -0.000589 0.075471
v -0.100613 -0.000589 0.075471
v -0.100594 -0.00032 0.075767
v -0.100594 -0.00032 0.075767
v -0.100594 -0.00032 0.075767
v -0.100594 -0.00032 0.075767
v -0.100594 -0.00032 0.075767
v -0.100215 -0.000271 0.076067
v -0.100215 -0.000271 0.076067
v -0.100215 -0.000271 0.076067
v -0.100215 -0.000271 0.076067
v -0.100215 -0.000271 0.076067
v -0.100215 -0.000271 0.076067
v -0.100416 -0.000597 0.075775
v -0.100416 -0.000597 0.075775
v -0.100416 -0.000597 0.075775
v -0.100416 -0.000597 0.075775
v -0.100416 -0.000597 0.075775
v -0.100725 0.00041 0.075467
v -0.100725 0.00041 0.075467
v -0.100725 0.00041 0.075467
v -0.09991 -0.000192 0.076146
v -0.09991 -0.000192 0.076146
v -0.09991 -0.000192 0.076146
v -0.09991 -0.000192 0.076146
v -0.09991 -0.000192 0.076146
v -0.09991 -0.000192 0.076146
v -0.09991 -0.000192 0.076146
v -0.100308 -0.000859 0.075479
v -0.100308 -0.000859 0.075479
v -0.100308 -0.000859 0.075479
vn 0.2503 -0.4595 0.8522
vn -0.0294 -0.6923 0.721
vn -0.0531 -0.6447 0.7626
vn -0.0376 -0.3701 0.9282
vn -0.0098 -0.6338 0.7734
vn -0.0248 -0.8817 0.4712
vn -0.0294 -0.6923 0.721
vn -0.0531 -0.6447 0.7626
vn -0.003 -0.8332 0.553
vn -0.0433 -0.8415 0.5385
vn -0.0248 -0.8817 0.4712
vn 0.1701 -0.8817 0.4401
vn -0.003 -0.8332 0.553
vn -0.0735 -0.4004 0.9134
vn -0.0376 -0.3701 0.9282
vn -0.0485 -0.3046 0.9513
vn -0.0098 -0.6338 0.7734
vn -0.0531 -0.6447 0.7626
vn -0.326 -0.805 0.4956
vn -0.3878 -0.7558 0.5276
vn -0.0098 -0.6338 0.7734
vn -0.1349 -0.3907 0.9106
vn -0.0433 -0.8415 0.5385
vn -0.3818 -0.4739 0.7935
vn -0.0735 -0.4004 0.9134
vn -0.0248 -0.8817 0.4712
vn -0.0433 -0.8415 0.5385
vn -0.326 -0.805 0.4956
vn 0.3243 0.7089 0.6264
vn -0.0312 0.8775 0.4786
vn 0.0058 0.7566 0.6539
vn -0.0663 0.1405 0.9879
vn 0.1787 -0.0534 0.9824
vn -0.0335 0.2782 0.9599
vn 0.3414 0.2028 0.9178
vn -0.0402 -0.087 0.9954
vn 0.3543 -0.4198 0.8356
vn 0.4307 -0.4257 0.7958
vn 0.3064 0.1893 0.9329
vn 0.3414 0.2028 0.9178
vn 0.1787 -0.0534 0.9824
vn 0.6598 0.0058 0.7514
vn -0.0446 0.3774 0.925
vn 0.3064 0.1893 0.9329
vn -0.0335 0.2782 0.9599
vn 0.3948 0.6303 0.6685
vn -0.0345 0.6614 0.7492
vn 0.3414 0.2028 0.9178
vn 0.3243 0.7089 0.6264
vn 0.0058 0.7566 0.6539
vn -0.0294 -0.6923 0.721
vn -0.003 -0.8332 0.553
vn 0.1701 -0.8817 0.4401
vn 0.2503 -0.4595 0.8522
vn 0.5184 -0.6568 0.5476
vn 0.5453 -0.5435 0.6382
vn 0.4307 -0.4257 0.7958
vn 0.3543 -0.4198 0.8356
vn 0.2503 -0.4595 0.8522
vn 0.1787 -0.0534 0.9824
vn -0.0485 -0.3046 0.9513
vn -0.0402 -0.087 0.9954
vn -0.0376 -0.3701 0.9282
vn 0.3543 -0.4198 0.8356
vn 0.5453 -0.5435 0.6382
vn 0.4307 -0.4257 0.7958
vn 0.6598 0.0058 0.7514
vn 0.7482 0.0271 0.6629
vn 0.7726 -0.4118 0.4832
vn 0.1701 -0.8817 0.4401
vn 0.5184 -0.6568 0.5476
vn 0.5184 -0.6568 0.5476
vn 0.7726 -0.4118 0.4832
vn 0.5453 -0.5435 0.6382
vn 0.3064 0.1893 0.9329
vn 0.7482 0.0271 0.6629
vn 0.3948 0.6303 0.6685
vn 0.6598 0.0058 0.7514
vn 0.7686 0.0532 0.6375
vn 0.7334 0.4512 0.5085
vn 0.7686 0.0532 0.6375
vn 0.7482 0.0271 0.6629
vn 0.7726 -0.4118 0.4832
vn 0.7334 0.4512 0.5085
vn 0.7686 0.0532 0.6375
vn 0.3948 0.6303 0.6685
vn 0.7334 0.4512 0.5085
vn 0.3243 0.7089 0.6264
vn -0.0335 0.2782 0.9599
vn -0.0663 0.1405 0.9879
vn -0.0378 0.0813 0.996
vn -0.0467 0.3651 0.9298
vn -0.0446 0.3774 0.925
vn -0.0241 0.877 0.4799
vn 0.0058 0.7566 0.6539
vn -0.0312 0.8775 0.4786
vn -0.0449 0.6906 0.7218
vn -0.0345 0.6614 0.7492
vn -0.0345 0.6614 0.7492
vn -0.0446 0.3774 0.925
vn -0.0449 0.6906 0.7218
vn -0.0467 0.3651 0.9298
vn -0.3617 0.5351 0.7635
vn -0.0209 0.8666 0.4986
vn -0.4834 0.8216 0.3022
vn -0.0241 0.877 0.4799
vn -0.0209 0.8666 0.4986
vn -0.0312 0.8775 0.4786
vn -0.5861 0.631 0.5082
vn -0.0241 0.877 0.4799
vn -0.0449 0.6906 0.7218
vn -0.0209 0.8666 0.4986
vn -0.4834 0.8216 0.3022
vn -0.4645 0.5057 0.727
vn -0.3617 0.5351 0.7635
vn -0.4752 0.0458 0.8787
vn -0.5618 0.2833 0.7773
vn -0.2518 0.0012 0.9678
vn -0.3617 0.5351 0.7635
vn -0.4645 0.5057 0.727
vn -0.0378 0.0813 0.996
vn -0.0467 0.3651 0.9298
vn -0.5861 0.631 0.5082
vn -0.725 0.5747 0.3797
vn -0.4834 0.8216 0.3022
vn -0.8254 0.2613 0.5004
vn -0.4645 0.5057 0.727
vn -0.725 0.5747 0.3797
vn -0.5861 0.631 0.5082
vn -0.5618 0.2833 0.7773
vn -0.8462 -0.3667 0.3866
vn -0.9135 0.125 0.3871
vn -0.8495 -0.1538 0.5046
vn -0.8495 -0.1538 0.5046
vn -0.5618 0.2833 0.7773
vn -0.4752 0.0458 0.8787
vn -0.5949 -0.1835 0.7825
vn -0.9135 0.125 0.3871
vn -0.8254 0.2613 0.5004
vn -0.6187 -0.6864 0.3822
vn -0.7481 -0.4668 0.4717
vn -0.8462 -0.3667 0.3866
vn -0.8462 -0.3667 0.3866
vn -0.5573 -0.3354 0.7596
vn -0.5949 -0.1835 0.7825
vn -0.8495 -0.1538 0.5046
vn -0.7481 -0.4668 0.4717
vn -0.2518 0.0012 0.9678
vn -0.1349 -0.3907 0.9106
vn -0.5949 -0.1835 0.7825
vn -0.4752 0.0458 0.8787
vn -0.5573 -0.3354 0.7596
vn -0.3818 -0.4739 0.7935
vn -0.3818 -0.4739 0.7935
vn -0.6187 -0.6864 0.3822
vn -0.3878 -0.7558 0.5276
vn -0.5573 -0.3354 0.7596
vn -0.7481 -0.4668 0.4717
vn -0.8254 0.2613 0.5004
vn -0.725 0.5747 0.3797
vn -0.9135 0.125 0.3871
vn -0.1349 -0.3907 0.9106
vn -0.0663 0.1405 0.9879
vn -0.0378 0.0813 0.996
vn -0.0485 -0.3046 0.9513
vn -0.0402 -0.087 0.9954
vn -0.0735 -0.4004 0.9134
vn -0.2518 0.0012 0.9678
vn -0.326 -0.805 0.4956
vn -0.6187 -0.6864 0.3822
vn -0.3878 -0.7558 0.5276
f 17//17 21//21 5//5
f 51//51 2//2 7//7
f 52//52 9//9 13//13
f 63//63 15//15 4//4
f 14//14 167//167 25//25
f 27//27 10//10 23//23
f 8//8 3//3 18//18
f 11//11 6//6 26//26
f 166//166 62//62 36//36
f 16//16 61//61 165//165
f 29//29 49//49 88//88
f 72//72 55//55 71//71
f 1//1 54//54 59//59
f 74//74 65//65 56//56
f 64//64 58//58 37//37
f 70//70 53//53 12//12
f 66//66 38//38 57//57
f 85//85 79//79 81//81
f 83//83 69//69 73//73
f 33//33 60//60 41//41
f 46//46 77//77 86//86
f 39//39 75//75 44//44
f 48//48 35//35 40//40
f 87//87 80//80 84//84
f 82//82 76//76 68//68
f 78//78 42//42 67//67
f 104//104 112//112 107//107
f 111//111 101//101 97//97
f 108//108 96//96 30//30
f 32//32 90//90 163//163
f 98//98 99//99 47//47
f 43//43 100//100 93//93
f 91//91 121//121 164//164
f 31//31 95//95 50//50
f 110//110 94//94 106//106
f 102//102 122//122 92//92
f 34//34 45//45 89//89
f 113//113 105//105 125//125
f 127//127 120//120 114//114
f 142//142 143//143 131//131
f 147//147 141//141 158//158
f 145//145 150//150 137//137
f 136//136 151//151 116//116
f 157//157 152//152 144//144
f 148//148 168//168 118//118
f 160//160 128//128 124//124
f 123//123 129//129 109//109
f 22//22 162//162 149//149
f 115//115 119//119 103//103
f 134//134 133//133 146//146
f 130//130 135//135 117//117
f 170//170 155//155 140//140
f 138//138 161//161 132//132
f 126//126 159//159 139//139
f 28//28 19//19 169//169
f 171//171 20//20 156//156
f 154//154 24//24 153//153
